<?xml version="1.0" encoding="UTF-8"?><svg id="Calque_2" xmlns="http://www.w3.org/2000/svg" viewBox="0 0 129 126.58"><defs><style>.cls-1{fill:#333;}</style></defs><g id="Layer_1"><g><g><path class="cls-1" d="M31.83,96.95C12.49,89.34,0,70.99,0,50.21,0,22.53,22.53,0,50.21,0s50.21,22.53,50.21,50.21c0,2.23-.15,4.47-.44,6.65l-3.96-.53c.27-2.01,.4-4.08,.4-6.13,0-25.48-20.73-46.21-46.21-46.21S4,24.73,4,50.21c0,19.13,11.5,36.01,29.29,43.02l-1.46,3.72Z"/><path class="cls-1" d="M20.4,59.9c-.47,0-.94-.17-1.3-.48-6.46-5.56-7.42-6.79-7.68-7.32-.47-.54-2.4-1.89-2.95-2.17-1.37-.69-6.48-6.93-7.04-10.32l3.95-.66c.32,1.94,4.05,6.63,5.08,7.51,.78,.46,3.68,2.23,4.5,3.74,.45,.56,2.43,2.39,4.59,4.29,.3-.94,.49-1.74,.52-2.17-.9-1.22-2.7-3.48-3.09-3.87-.74-.67-2.65-3.44-2.5-5.43,.07-.92,.55-1.7,1.31-2.13,1.3-.74,3.44-.55,6.1-.21,.3,.04,.55,.07,.75,.09,.76-.4,2.48-1.89,2.8-2.94,.86-2.81,4.31-6.25,7.85-7.84,2.85-1.28,3.77-1.56,5.09-1.61,.99-1.26,2.33-5.2,1.85-6.15-.48-.67-2.15-1.58-3.5-2.32-2.24-1.23-4.36-2.39-5.05-4.19-.23-.6-.92-2.41,.04-11.03l3.98,.44c-.67,6.06-.48,8.64-.28,9.16,.28,.49,2.13,1.5,3.23,2.11,1.88,1.03,3.82,2.09,4.85,3.52,2.15,3.01-.63,8.62-.95,9.25-1.12,2.18-2.25,3.19-3.56,3.19-1.01,0-1.25,0-4.05,1.26-2.89,1.3-5.25,4-5.67,5.37-.84,2.73-4.54,5.78-6.41,5.78-.32,0-.72-.05-1.46-.14-.52-.06-1.56-.19-2.44-.25,.24,.44,.53,.88,.72,1.1,.89,.84,3.42,4.16,3.85,4.77,.4,.56,1.45,2.03-1.27,8.41-.25,.59-.77,1.02-1.39,1.16-.15,.04-.3,.05-.45,.05Zm-5.49-9.75h0Zm-4.65-3.8s.06,.03,.16,.09c-.04-.03-.09-.06-.16-.09Zm9.27-.96s.07,.06,.11,.1c-.04-.05-.08-.08-.11-.1Z"/><path class="cls-1" d="M52.59,25.82c-.52,0-1.14-.13-1.89-.49-1.39-.66-3.75-2.43-3.75-4.84,0-1.51,0-4.57-.13-5.85,0,0,0,0,0,0-.82-.78-1.57-1.79-1.42-3.98,.06-.89,.47-1.67,1.18-2.27,2.2-1.84,7.42-1.44,8.98-1.27,.97,.06,4.97,.36,6.41,1.3,.93,.6,1.6,1.68,2.32,2.83,.31,.5,.64,1.02,.96,1.46,.66,.89,.84,2.02,.52,3.17-.5,1.78-2.18,3.43-3.45,3.95-.57,.23-1.4,.4-2.44,.62-1.15,.24-2.88,.6-3.58,.97-.28,.15-.64,1.15-.81,1.63-.31,.86-.6,1.67-1.3,2.24-.35,.29-.87,.55-1.6,.55Zm-3.21-14.49c0,.19,.04,.27,.04,.27,.03,.03,.09,.07,.14,.12,.36,.34,1.04,.98,1.2,2.17,.18,1.29,.19,3.97,.19,6.59,.07,.21,.46,.58,.88,.88,.42-1.14,1.07-2.68,2.56-3.48,1.21-.66,3.05-1.04,4.68-1.37,.64-.13,1.51-.31,1.75-.41,.31-.16,.92-.83,1.07-1.23-.36-.5-.68-1.01-.99-1.51-.34-.54-.84-1.33-1.1-1.58-.76-.3-3.68-.68-4.46-.68h-.21c-2.28-.26-4.83-.14-5.75,.23Z"/><path class="cls-1" d="M37.31,93.46c-.19,0-.38-.03-.56-.08-3.76-1.11-5.98-2.38-6.6-3.78-.11-.18-.66-.7-1.02-1.05-1.18-1.12-2.66-2.52-2.8-4.39-.09-1.16-1.03-4.38-1.6-6.14-.02-.08-.05-.16-.06-.24-.22-1.15-.66-2.46-.95-2.9-1.01-.53-4.18-2.32-4.89-4.43-.6-1.79-.14-8.28,3.13-9.53,.25-.09,.59-.3,.95-.52,1.62-.99,4.34-2.64,8.34,.02,1.86,1.24,2.41,.94,3.11,.55,.41-.23,.92-.51,1.58-.59,2.38-.3,3.11,1.57,3.46,2.47,.1,.26,.22,.56,.38,.9,.22,.46,.33,.89,.39,1.25,.11,0,.23,0,.37,0,3.23,0,7.51,.55,9.8,1.78,2.8,1.51,2.24,6.59,1.87,8.71-.03,.18-.09,.36-.17,.52-.22,.47-2.3,4.59-5.95,5.81-1.79,.6-2.86,1.26-2.86,1.76,0,1.76-1.38,2.99-2.3,3.8-.11,.1-.26,.23-.38,.34-.08,.74-.39,2.05-1.39,4.49-.32,.76-1.06,1.24-1.85,1.24Zm-3.6-5.67c.34,.29,1.3,.74,2.42,1.16,.24-.68,.41-1.27,.44-1.54-.14-1.37,.89-2.28,1.71-3.01,.28-.25,.79-.7,.95-.95,.11-3.58,4.08-4.91,5.59-5.41,1.6-.53,2.97-2.57,3.49-3.51,.26-1.72,.25-3.67-.03-4.29-1.47-.7-4.74-1.22-7.74-1.22-1.44,0-4.12,0-4.29-3.05-.02-.27-.02-.37-.08-.48-.13-.28-.24-.53-.34-.77-1.66,.81-3.68,1.12-6.8-.96-1.87-1.25-2.64-.78-4.04,.07-.47,.28-.95,.58-1.5,.8-.64,.68-1.08,3.71-.86,4.6,.2,.36,1.63,1.47,3.06,2.18,1.63,.81,2.46,3.42,2.87,5.51,.28,.88,1.59,5.05,1.74,6.95,.08,.39,1.05,1.3,1.56,1.79,.73,.7,1.43,1.35,1.83,2.14Zm5.56-4.4h0Z"/><path class="cls-1" d="M80.75,68.42c-.76,0-1.57-.18-2.41-.65-3.42-1.9-5.91-3.51-6.93-5.22-.28-.47-1.13-1.88-1.13-10.3,0-1.83,3.93-6.97,5.15-8.08,1.88-1.71,6.68-3.61,8.51-3.61,.17,0,.65-.12,.98-.2,1.36-.34,3.9-.97,5.13,1.23,.5,.91,.79,1.23,.92,1.35,.15-.04,.38-.13,.56-.2,.69-.27,1.64-.63,2.81-.63,2,0,5.17,1.08,5.97,3.48l-3.79,1.27c-.15-.21-1.21-.74-2.18-.74-.43,0-.87,.17-1.38,.37-.7,.27-1.56,.6-2.55,.46-1.84-.26-2.92-1.79-3.57-2.9-.29,.05-.68,.14-.95,.21-.64,.16-1.29,.32-1.94,.32-.86,.05-4.65,1.51-5.82,2.57-1.17,1.07-3.38,4.39-3.84,5.41,.01,4.37,.31,7.38,.59,8.02,.28,.46,1.47,1.53,5.41,3.72,.53,.29,.95,.15,2.25-.57,.91-.5,1.94-1.07,3.17-1.07v4c-.22,0-.83,.35-1.24,.57-.89,.49-2.19,1.2-3.7,1.2Z"/></g><path class="cls-1" d="M89.98,117.45c-.04-.36-1.04-9.07,1.74-23.13,2.86-14.48,14.5-23.66,15-24.04l2.45,3.16-1.23-1.58,1.23,1.58c-.11,.08-10.96,8.68-13.53,21.66-2.64,13.38-1.7,21.8-1.69,21.88l-3.97,.47Z"/><path class="cls-1" d="M97.53,105.83l-.16-4c22.68-.89,23.05-19.59,23.21-27.57,.01-.57,.02-1.08,.04-1.52,.17-4.29,1.86-7.9,3.2-10.11-8.77-2.15-29.19-1.49-34.9,9.64-4.29,8.37-2.75,17.56-1.45,22.29l-3.86,1.06c-1.46-5.29-3.17-15.6,1.75-25.17,7.41-14.45,33.76-14.55,42.45-10.71,.58,.26,1,.77,1.14,1.39,.14,.62-.02,1.26-.43,1.74-.03,.04-3.68,4.4-3.9,10.03-.02,.41-.03,.89-.04,1.44-.15,7.53-.61,30.46-27.05,31.49Z"/><g><path class="cls-1" d="M98.46,126.58c-11.87-17.43-38.95-20.11-39.23-20.14l.37-3.98c1.19,.11,29.25,2.89,42.17,21.87l-3.31,2.25Z"/><path class="cls-1" d="M73.06,125.6c-6.45,0-12.81-1.6-17.69-5.56-12.11-9.84-13.07-23.42-13.1-23.99-.04-.7,.29-1.38,.87-1.77,.58-.4,1.33-.46,1.97-.16,3.92,1.82,12.55,.68,18.74-.85,.25-.06,.55-.14,.89-.23,4.92-1.3,19.89-5.24,27.2,5.7,.92,1.38,1.65,2.88,2.17,4.47l-3.8,1.24c-.41-1.24-.98-2.42-1.7-3.49-5.73-8.57-18.17-5.29-22.86-4.06-.36,.1-.68,.18-.95,.25-2.92,.72-11.71,2.66-18.07,1.57,.93,4.19,3.62,12.1,11.15,18.22,7.97,6.47,20.9,5.49,30.18,1.65l1.53,3.7c-4.91,2.03-10.76,3.32-16.55,3.32Z"/></g></g></g></svg>