<?xml version="1.0" encoding="UTF-8"?><svg id="Calque_2" xmlns="http://www.w3.org/2000/svg" viewBox="0 0 118.88 111.42"><defs><style>.cls-1{fill:#333;}</style></defs><g id="Layer_1"><g><g><path class="cls-1" d="M69.66,38c-2.19,0-4.39-.16-6.53-.5l-1.26-.2-.35-1.23c-.17-.58-3.93-14.4,8.34-28.75C79.37-3.8,90.33,.44,94.59,2.78l-1.92,3.51c-5.18-2.83-12.81-4.51-19.77,3.63-8.87,10.38-8.31,20.39-7.78,23.81,11.53,1.36,24.56-2.73,28.99-9.27,3.81-5.63,1.76-14,1.04-16.44l3.84-1.13c.84,2.86,3.23,12.73-1.57,19.81-4.6,6.79-16.2,11.29-27.76,11.29Z"/><path class="cls-1" d="M80.05,23.62l-1.99-3.47c5.41-3.11,18.54-13.93,22.96-19.97l3.23,2.36c-4.84,6.6-18.5,17.8-24.19,21.07Z"/></g><g><g><g><path class="cls-1" d="M81.97,111.42h-.01l-14.3-.08c-.9,0-1.68-.6-1.92-1.47l-2.2-7.96c-3.64,.68-7.41,1.03-11.09,1-3.91-.02-7.8-.43-11.58-1.22l-2.32,8.03c-.25,.86-1.03,1.45-1.92,1.45h-.01l-14.29-.08c-.55,0-1.07-.23-1.45-.63-.37-.4-.57-.93-.54-1.48l.86-15.75c-4.97-3.57-9-7.97-11.74-12.83l-7.47-.04c-1.1,0-2-.91-1.99-2.01l.11-19.98c0-1.1,.9-1.99,2-1.99h.01l4.16,.02c1.51-5.66,4.62-10.99,9.06-15.54-.9-3.87-2.45-10-4.15-14.34-.35-.9-.01-1.92,.81-2.43,.42-.26,10.17-6.08,22.79,4.99,5.75-1.88,11.82-2.85,18.08-2.78,1.6,0,3.22,.08,4.81,.22l-.34,3.98c-1.48-.13-2.99-.2-4.49-.21-.1,0-.21,0-.31,0-6.1,0-12,.99-17.56,2.94-.7,.25-1.48,.08-2.03-.42-8.1-7.55-14.58-6.82-17.37-5.95,1.59,4.52,2.98,10.08,3.9,14.19,.15,.68-.06,1.39-.56,1.88-4.73,4.58-7.88,10.08-9.12,15.89-.2,.92-1.01,1.58-1.96,1.58h-.01l-3.75-.02-.09,15.98,6.65,.04c.74,0,1.42,.42,1.76,1.08,2.59,5,6.73,9.53,11.96,13.09,.58,.39,.91,1.06,.87,1.76l-.81,14.76,10.68,.06,2.42-8.39c.3-1.03,1.36-1.64,2.4-1.39,4.06,.99,8.28,1.51,12.53,1.53,4.07,.04,8.13-.41,12.06-1.29,1.04-.23,2.08,.39,2.36,1.42l2.3,8.3,10.68,.06-.63-14.43c-.03-.71,.32-1.38,.91-1.77,10.08-6.5,15.9-16.11,15.95-26.36,.05-8.82-4.15-17.23-11.83-23.68l2.57-3.06c8.6,7.23,13.31,16.73,13.25,26.77-.06,11.29-6.18,21.83-16.82,29.06l.67,15.4c.02,.55-.18,1.08-.56,1.47-.38,.39-.9,.61-1.44,.61Z"/><path class="cls-1" d="M99.99,63.48c-1.13,0-1.87-.05-2.01-.06-1.1-.08-1.93-1.04-1.84-2.14,.08-1.1,1.01-1.93,2.14-1.85,.14,0,14.55,.98,16.3-6.64,.49-2.14,.59-4.94-1.72-6.12-1.53-.78-3.42-.43-3.95,.19-.82,.95-.87,2.03-.6,2.44,.23,.35,1.05,.12,1.3,.04,1.05-.33,2.18,.25,2.51,1.31,.33,1.05-.25,2.18-1.31,2.51-2.46,.77-4.65,.15-5.84-1.66-1.34-2.04-.95-5.08,.91-7.25,1.85-2.15,5.79-2.66,8.79-1.14,1.68,.85,5.42,3.59,3.81,10.58-2.04,8.87-13.72,9.79-18.49,9.79Z"/></g><path class="cls-1" d="M78.84,54.5c-10.21-14-32.2-12.22-32.43-12.2l-.36-3.98c.99-.09,24.46-2.01,36.02,13.83l-3.23,2.36Z"/></g><path class="cls-1" d="M22.54,56.41c-1.1,0-2.01-.9-2.01-2s.89-2,2-2h.01c1.1,0,2,.9,2,2s-.9,2-2,2Z"/></g></g></g></svg>