<?xml version="1.0" encoding="UTF-8"?><svg id="Calque_2" xmlns="http://www.w3.org/2000/svg" viewBox="0 0 116.03 108.69"><defs><style>.cls-1{fill:#333;}</style></defs><g id="Layer_1"><g><g><path class="cls-1" d="M27.07,41.27c-2.35,0-4.39-.39-5.8-.77l1.02-3.87c5.56,1.47,13.16,1.26,17.83-8.07,5.98-11.94,3.14-21.19,1.8-24.33-11.23,1.42-22.58,8.35-25.23,15.56-2.29,6.21,1.62,13.65,2.87,15.78l-3.45,2.03c-1.48-2.51-6.07-11.33-3.17-19.19C16.23,9.47,29.69,1.25,42.94,.11l1.27-.11,.64,1.11c.29,.51,7.12,12.75-1.15,29.26-4.45,8.88-11.31,10.91-16.62,10.91Z"/><path class="cls-1" d="M15.85,44.45l-3.7-1.52c3.04-7.4,13.36-21.23,17.99-25.67l2.77,2.89c-4.39,4.21-14.28,17.55-17.06,24.31Z"/></g><path class="cls-1" d="M28.97,108.69H2c-.55,0-1.08-.23-1.46-.63-.38-.4-.57-.94-.54-1.5L3.97,43.56c.07-1.05,.94-1.87,2-1.87H23.54c1.04,0,1.9,.79,1.99,1.83l5.43,63c.05,.56-.14,1.11-.52,1.52-.38,.41-.91,.65-1.47,.65Zm-24.84-4H26.79l-5.09-59H7.84l-3.71,59Z"/><path class="cls-1" d="M114.03,108.69H28.97v-4H112.03v-23.67l-19.84-12.77-20.69,13.31c-.06,.04-.12,.08-.19,.12-.64,.35-1.42,.32-2.04-.07l-20.76-13.36-20.75,13.35-2.16-3.36,21.84-14.05c.48-.31,1.06-.4,1.61-.25,.23,.06,.43,.16,.62,.29l20.68,13.31,20.76-13.36c.48-.31,1.06-.4,1.61-.25,.23,.06,.43,.16,.62,.29l21.77,14.01c.57,.37,.92,1,.92,1.68v26.76c0,1.1-.9,2-2,2Z"/></g></g></svg>