<?xml version="1.0" encoding="UTF-8"?><svg id="Calque_2" xmlns="http://www.w3.org/2000/svg" viewBox="0 0 117.54 113.35"><defs><style>.cls-1{fill:#333;}</style></defs><g id="Layer_1"><g><path class="cls-1" d="M59.13,44.26l-3.37-2.16c.15-.23,3.67-5.66,11.83-12.35,8.49-6.96,19.5-6.72,19.97-6.71l-.12,4,.06-2-.05,2c-.1,0-10.01-.19-17.32,5.8-7.62,6.25-10.97,11.37-11,11.42Z"/><path class="cls-1" d="M81.19,43.23c-3.84,0-8.17-1.35-12.93-4.96l2.42-3.18c11.26,8.56,19.03,2.44,25.14-4.68,.28-.32,.52-.61,.73-.84,1.9-2.12,4.23-3.38,6.02-4.09-4.22-5.14-15.34-13.36-23.04-10.03-9.05,3.91-11.99,14.54-12.02,14.65l-3.87-1.03c.14-.51,3.44-12.6,14.3-17.29,11.16-4.82,26.4,7.6,29.58,13.93,.28,.57,.28,1.23,0,1.8-.28,.56-.82,.96-1.44,1.07-.03,0-3.93,.75-6.54,3.67-.2,.22-.42,.49-.68,.78-2.56,2.98-8.77,10.22-17.67,10.22Z"/><g><path class="cls-1" d="M55.82,54.61c-.26-10.29-.66-14.29-.66-14.33-1.7-15.03-18.07-25.84-18.23-25.94l2.18-3.35c.74,.48,18.12,11.97,20.03,28.87,.02,.19,.42,4.17,.68,14.66l-4,.1Z"/><path class="cls-1" d="M51.4,34.99c-8.32-.77-18.29-5.22-21.79-13.43-4.56-10.69-.46-20-.29-20.39,.29-.64,.9-1.08,1.6-1.16,.7-.08,1.39,.22,1.82,.78,1.71,2.25,7.31,4.45,12.09,5.64,.18,.04,.4,.09,.65,.15,3.71,.86,15,3.48,16.04,13.42,.82,7.78-5.2,12.99-5.46,13.21l-2.59-3.04s4.67-4.1,4.08-9.75c-.74-7.1-9.62-9.16-12.97-9.93-.27-.06-.51-.12-.7-.17-2.59-.64-8.06-2.21-11.75-4.75-.74,3.13-1.33,8.58,1.17,14.44,2.86,6.69,11.34,10.35,18.48,11.01l-.37,3.98Z"/></g><g><g><path class="cls-1" d="M36.58,66.86h-4c0-.64,.06-1.29,.18-1.92,.91-4.75,5.09-8.19,9.93-8.19,3.35,0,6.47,1.65,8.36,4.42l-3.31,2.25c-1.14-1.67-3.03-2.67-5.05-2.67-2.93,0-5.45,2.08-6,4.95-.07,.38-.11,.77-.11,1.16Z"/><path class="cls-1" d="M84.12,66.86h-4c0-.72-.12-1.42-.37-2.09-.87-2.41-3.18-4.02-5.75-4.02s-4.8,1.57-5.7,3.91l-3.73-1.44c1.49-3.87,5.29-6.47,9.44-6.47s8.06,2.68,9.5,6.66c.4,1.1,.61,2.27,.61,3.45Z"/></g><path class="cls-1" d="M51.4,63.81h-4c0-6.2,5.04-11.24,11.24-11.24,5.24,0,9.86,3.71,10.98,8.82l-3.91,.86c-.72-3.29-3.7-5.68-7.07-5.68-3.99,0-7.24,3.25-7.24,7.24Z"/></g><g><path class="cls-1" d="M88.5,88.98l-2.83-2.83,11.71-11.71c1.1-1.1,1.1-2.89,0-4-1.1-1.1-2.9-1.1-4,0l-11.7,11.7-2.83-2.83,11.71-11.7c2.66-2.66,6.99-2.66,9.65,0,2.66,2.66,2.66,6.99,0,9.65l-11.71,11.7Z"/><path class="cls-1" d="M86.32,113.35l-4-.16,.21-5.32c.11-2.83,1.28-5.49,3.28-7.5l14.73-14.73c1.6-1.6,2.8-3.59,3.47-5.76l9.38-30.31c.46-1.49-.38-3.07-1.86-3.54-.72-.22-1.49-.15-2.15,.2-.67,.35-1.16,.94-1.38,1.66l-5.85,18.91-3.82-1.18,5.85-18.91c.54-1.74,1.72-3.17,3.34-4.02,1.61-.85,3.46-1.02,5.2-.48,1.74,.54,3.17,1.72,4.02,3.34,.85,1.61,1.02,3.46,.48,5.2l-9.38,30.31c-.86,2.78-2.41,5.34-4.47,7.4l-14.73,14.73c-1.29,1.29-2.04,3.01-2.11,4.83l-.21,5.32Z"/><path class="cls-1" d="M69.6,109.76l-4-.2,.59-11.93c.01-.3,0-.59-.04-.85-.25-1.67-.4-6.08,3.62-10.8,2.09-2.45,4.16-3.58,5.99-4.58,1.2-.65,2.23-1.22,3.08-2.07l2.83,2.83c-1.26,1.26-2.65,2.02-4,2.75-1.67,.91-3.25,1.77-4.86,3.66-3.04,3.57-2.85,6.73-2.71,7.61,.08,.53,.11,1.08,.08,1.65l-.59,11.94Z"/></g><g><path class="cls-1" d="M29.03,88.98l-11.7-11.7c-1.29-1.29-2-3-2-4.83s.71-3.54,2-4.83c1.29-1.29,3-2,4.83-2s3.54,.71,4.83,2l11.7,11.7-2.83,2.83-11.7-11.7c-1.1-1.1-2.89-1.1-4,0-1.1,1.1-1.1,2.89,0,4l11.7,11.71-2.83,2.83Z"/><path class="cls-1" d="M31.22,113.35l-.21-5.32c-.07-1.82-.82-3.54-2.11-4.83l-14.73-14.73c-2.06-2.06-3.6-4.62-4.47-7.4L.31,50.75c-.54-1.74-.37-3.59,.48-5.2s2.28-2.8,4.02-3.34c1.74-.54,3.59-.37,5.2,.48,1.61,.85,2.8,2.28,3.34,4.02l5.85,18.91-3.82,1.18-5.85-18.91c-.22-.72-.71-1.31-1.38-1.66-.67-.35-1.43-.42-2.15-.2-.72,.22-1.31,.71-1.67,1.38-.35,.67-.42,1.43-.2,2.15l9.39,30.31c.67,2.17,1.87,4.16,3.47,5.76l14.73,14.73c2,2,3.17,4.67,3.28,7.5l.21,5.32-4,.16Z"/><path class="cls-1" d="M47.94,109.76l-.59-11.93c-.03-.57,0-1.12,.08-1.65,.13-.88,.33-4.04-2.71-7.61-1.61-1.89-3.19-2.75-4.86-3.66-1.34-.73-2.73-1.49-4-2.75l2.83-2.83c.86,.86,1.89,1.42,3.08,2.07,1.83,1,3.9,2.13,5.99,4.58,4.03,4.73,3.87,9.13,3.62,10.8-.04,.27-.05,.55-.04,.85l.59,11.93-4,.2Z"/></g></g></g></svg>