<?xml version="1.0" encoding="UTF-8"?><svg id="Calque_2" xmlns="http://www.w3.org/2000/svg" viewBox="0 0 58.67 126.22"><defs><style>.cls-1{fill:#333;}</style></defs><g id="Layer_1"><g><g><path class="cls-1" d="M40.38,43.79c-.53-1.77-2.33-4.97-5.06-9.01-1.64-2.42-3.04-4.3-3.05-4.32l3.2-2.39c.06,.08,1.47,1.96,3.16,4.47,3.04,4.49,4.91,7.89,5.57,10.1l-3.83,1.15Z"/><path class="cls-1" d="M9.82,64.01c-4.83-4.71-5.85-15.81-5.85-17.8,0-2.67,0-7.63,2.95-13.26,2.48-4.74,10.96-12.81,13.42-15.09v-3.89h4v4.77c0,.56-.24,1.1-.65,1.48-2.97,2.7-11.12,10.58-13.22,14.59-2.49,4.76-2.49,8.92-2.49,11.41,0,2.96,1.38,11.75,4.64,14.93l-2.79,2.86Z"/><path class="cls-1" d="M27.49,126.22c-3.7,0-12.14-.17-16.5-1.57-6.78-2.18-7.01-9.04-7.02-9.34v-7.99s4,0,4,0v7.95c0,.12,.21,4.27,4.25,5.57,4.1,1.32,13.71,1.43,17.07,1.36,.21,0,12.21,.23,17.15-1.36,4.1-1.32,4.25-5.58,4.25-5.62v-7.9s4,0,4,0v7.95c0,.34-.24,7.2-7.02,9.38-5.58,1.8-17.86,1.56-18.38,1.55-.1,0-.76,.02-1.8,.02Z"/><path class="cls-1" d="M48.84,64.01l-2.79-2.86c3.26-3.18,4.64-11.97,4.64-14.93,0-2.49,0-6.65-2.49-11.41-2.1-4-10.25-11.89-13.22-14.59-.42-.38-.65-.92-.65-1.48v-4.77h4v3.89c2.45,2.28,10.94,10.34,13.42,15.09,2.95,5.63,2.95,10.6,2.95,13.26,0,1.99-1.02,13.08-5.85,17.8Z"/><path class="cls-1" d="M36.33,15.97h-13.99c-1.1,0-2-.9-2-2V2c0-1.1,.9-2,2-2h13.99c1.1,0,2,.9,2,2V13.97c0,1.1-.9,2-2,2Zm-11.99-4h9.99V4h-9.99v7.97Z"/></g><g><polygon class="cls-1" points="35.87 117.61 25.45 110.75 33.55 101.64 36.54 104.3 31.51 109.96 38.07 114.27 35.87 117.61"/><polygon class="cls-1" points="24.52 70.38 21.44 67.82 26.27 62.03 19.56 57.9 21.65 54.49 32.3 61.05 24.52 70.38"/><path class="cls-1" d="M29.33,112.15v-4c13.97,0,25.33-10.1,25.33-22.51,0-7.88-4.52-15.06-12.09-19.19l1.92-3.51c8.88,4.85,14.18,13.34,14.18,22.7,0,14.62-13.16,26.51-29.33,26.51Z"/><path class="cls-1" d="M14.74,109.39C5.65,104.67,0,95.86,0,86.38c0-14.62,13.16-26.51,29.33-26.51v4c-13.97,0-25.33,10.1-25.33,22.51,0,7.97,4.82,15.43,12.59,19.45l-1.84,3.55Z"/></g></g></g></svg>