<?xml version="1.0" encoding="UTF-8"?><svg id="Calque_2" xmlns="http://www.w3.org/2000/svg" viewBox="0 0 103.78 117.69"><defs><style>.cls-1{fill:#333;}</style></defs><g id="Layer_1"><g><polygon class="cls-1" points="45.03 22.44 41.8 20.09 49.05 10.16 38.84 3.32 41.07 0 54.73 9.16 45.03 22.44"/><polygon class="cls-1" points="62.48 117.69 48.81 108.53 58.51 95.25 61.74 97.6 54.5 107.53 64.7 114.37 62.48 117.69"/><path class="cls-1" d="M51.89,109.89v-4c26.41,0,47.89-21.48,47.89-47.89,0-16.85-8.6-32.15-23.02-40.93l2.08-3.42c15.61,9.51,24.94,26.09,24.94,44.35,0,28.61-23.28,51.89-51.89,51.89Z"/><path class="cls-1" d="M25.94,104.47C9.94,95.21,0,77.99,0,59.53,0,30.92,23.28,7.64,51.89,7.64v4C25.48,11.64,4,33.12,4,59.53c0,17.04,9.17,32.94,23.94,41.48l-2,3.46Z"/><g><path class="cls-1" d="M51.89,90.74c-12.59,0-22.83-10.24-22.83-22.83S49.38,26.69,50.25,25.45c.37-.54,.99-.85,1.64-.85s1.27,.32,1.64,.85c.87,1.24,21.19,30.47,21.19,42.47,0,12.59-10.24,22.83-22.83,22.83Zm0-60.61c-6.47,9.6-18.83,29.63-18.83,37.78,0,10.38,8.45,18.83,18.83,18.83s18.83-8.45,18.83-18.83c0-8.16-12.36-28.19-18.83-37.78Z"/><path class="cls-1" d="M58.5,80.68l-1.75-3.6c1.27-.62,2.41-1.47,3.36-2.52,1.87-2.05,2.9-4.71,2.9-7.48h4c0,3.77-1.4,7.39-3.94,10.18-1.3,1.43-2.84,2.58-4.57,3.42Z"/></g></g></g></svg>