<?xml version="1.0" encoding="UTF-8"?><svg id="Calque_2" xmlns="http://www.w3.org/2000/svg" viewBox="0 0 93.09 107.49"><defs><style>.cls-1{fill:#333;}</style></defs><g id="Layer_1"><g><g><g><path class="cls-1" d="M37.72,52.62l-2.83-2.83,12.05-12.05c.47-.59,1.24-.86,1.99-.7,.41,.09,.77,.31,1.05,.61l12.14,12.14-2.83,2.83-10.79-10.79-10.79,10.79Z"/><polygon class="cls-1" points="62.52 53.39 50.54 53.39 50.54 49.39 58.52 49.39 58.52 41.41 62.52 41.41 62.52 53.39"/></g><g><path class="cls-1" d="M42.97,83.22l-16.46-4.41c-.72-.11-1.33-.61-1.58-1.32-.14-.42-.14-.86-.02-1.27l4.44-16.58,3.86,1.04-3.95,14.73,14.74,3.95-1.04,3.86Z"/><polygon class="cls-1" points="34.79 69.86 30.81 62.95 23.9 66.94 21.9 63.48 32.27 57.49 38.26 67.86 34.79 69.86"/></g><g><path class="cls-1" d="M54.27,83.09l-1.04-3.86,14.73-3.95-3.95-14.74,3.86-1.04,4.41,16.46c.26,.68,.14,1.46-.35,2.02-.29,.34-.68,.56-1.1,.66l-16.58,4.44Z"/><polygon class="cls-1" points="61.32 87.63 50.95 81.64 56.94 71.27 60.4 73.27 56.41 80.17 63.32 84.16 61.32 87.63"/></g></g><g><g><path class="cls-1" d="M91.09,25.77H2c-1.1,0-2-.9-2-2V10.66c0-1.1,.9-2,2-2H91.09c1.1,0,2,.9,2,2v13.1c0,1.1-.9,2-2,2ZM4,21.77H89.09V12.66H4v9.1Z"/><path class="cls-1" d="M57.38,12.66h-21.66c-1.1,0-2-.9-2-2V2c0-1.1,.9-2,2-2h21.66c1.1,0,2,.9,2,2V10.66c0,1.1-.9,2-2,2Zm-19.66-4h17.66V4h-17.66v4.66Z"/></g><path class="cls-1" d="M73.33,107.49H19.77c-6.21,0-11.26-5.05-11.26-11.26V23.77c0-1.1,.9-2,2-2H82.59c1.1,0,2,.9,2,2V96.23c0,6.21-5.05,11.26-11.26,11.26ZM12.51,25.77V96.23c0,4,3.26,7.26,7.26,7.26h53.56c4,0,7.26-3.26,7.26-7.26V25.77H12.51Z"/></g></g></g></svg>