<?xml version="1.0" encoding="UTF-8"?><svg id="Calque_2" xmlns="http://www.w3.org/2000/svg" viewBox="0 0 105.12 103.18"><defs><style>.cls-1{fill:#333;}</style></defs><g id="Layer_1"><g><g><path class="cls-1" d="M52.56,103.18c-19.43,0-35.24-15.81-35.24-35.24S49.55,2.82,50.92,.85c.37-.54,.99-.85,1.64-.85s1.27,.32,1.64,.85c1.37,1.96,33.6,48.31,33.6,67.08s-15.81,35.24-35.24,35.24Zm0-97.63c-6.65,9.82-31.24,47.17-31.24,62.4,0,17.22,14.01,31.24,31.24,31.24s31.24-14.01,31.24-31.24c0-15.23-24.59-52.57-31.24-62.4Z"/><path class="cls-1" d="M30.75,80.01c-2.52-4.06-3.85-8.73-3.85-13.53h4c0,4.05,1.12,8,3.25,11.42l-3.4,2.11Z"/></g><rect class="cls-1" y="59.83" width="105.12" height="4"/><path class="cls-1" d="M44.12,45.67c-.53,0-1.03-.21-1.41-.58-.09-.1-.18-.2-.25-.31-.07-.11-.14-.22-.19-.34-.04-.12-.08-.25-.11-.37-.02-.13-.04-.26-.04-.4,0-.13,.02-.26,.04-.39,.03-.13,.07-.25,.12-.37,.05-.12,.11-.24,.18-.35,.07-.11,.16-.21,.25-.3,.46-.46,1.15-.68,1.81-.55,.12,.03,.25,.07,.37,.12,.12,.05,.24,.11,.35,.18,.1,.07,.21,.16,.3,.25,.09,.09,.17,.19,.25,.3,.07,.11,.13,.23,.18,.35,.05,.12,.09,.24,.11,.37,.03,.13,.04,.26,.04,.39,0,.14,0,.27-.03,.4-.03,.12-.07,.25-.12,.37s-.11,.23-.18,.34c-.07,.11-.16,.21-.25,.31-.1,.09-.2,.18-.31,.25-.11,.07-.22,.13-.34,.18-.12,.05-.25,.09-.37,.11-.13,.03-.26,.04-.4,.04Z"/><path class="cls-1" d="M36.13,55c-.54,0-1.04-.21-1.42-.59-.38-.38-.59-.88-.59-1.41s.22-1.05,.59-1.42c.74-.74,2.08-.74,2.83,0,.37,.37,.59,.89,.59,1.42s-.21,1.03-.59,1.41c-.38,.38-.88,.59-1.41,.59Z"/><path class="cls-1" d="M67.25,55c-.53,0-1.03-.21-1.41-.59-.19-.19-.34-.41-.44-.65-.1-.24-.15-.5-.15-.76,0-.13,.02-.27,.04-.39,.03-.13,.07-.26,.12-.38,.05-.12,.11-.24,.18-.34,.07-.11,.16-.21,.25-.31,.74-.74,2.08-.74,2.83,0,.37,.37,.58,.89,.58,1.42,0,.26-.05,.52-.15,.76s-.24,.46-.43,.65c-.38,.38-.89,.59-1.42,.59Z"/><path class="cls-1" d="M59.05,40.13c-.27,0-.53-.05-.77-.15-.24-.1-.46-.25-.65-.44-.38-.37-.58-.87-.58-1.41,0-.13,0-.26,.03-.39,.03-.13,.07-.26,.12-.38,.05-.12,.11-.23,.18-.34,.07-.11,.16-.21,.25-.3,.09-.1,.19-.18,.3-.25,.11-.07,.23-.14,.35-.19,.12-.05,.25-.09,.37-.11,.65-.13,1.34,.08,1.81,.55,.09,.09,.17,.19,.25,.3,.07,.11,.13,.22,.18,.34,.05,.12,.09,.25,.12,.38,.02,.13,.04,.26,.04,.39,0,.53-.21,1.04-.59,1.41-.1,.1-.2,.18-.31,.25-.1,.08-.22,.14-.34,.19-.12,.05-.24,.09-.37,.11-.13,.03-.26,.04-.39,.04Z"/><path class="cls-1" d="M59.05,27.92c-.27,0-.53-.05-.77-.15-.24-.1-.46-.25-.65-.43-.38-.38-.58-.88-.58-1.42s.21-1.04,.58-1.41c.09-.09,.19-.18,.3-.25,.11-.07,.23-.13,.35-.18,.12-.05,.25-.09,.37-.12,.65-.13,1.34,.08,1.81,.55,.37,.37,.59,.89,.59,1.41,0,.14-.02,.27-.04,.4-.03,.12-.07,.25-.12,.37-.05,.12-.11,.23-.18,.34-.07,.11-.16,.21-.25,.31-.1,.09-.2,.18-.31,.25-.1,.07-.22,.13-.34,.18-.12,.05-.24,.09-.37,.11-.13,.03-.26,.04-.39,.04Z"/><path class="cls-1" d="M53.37,52.3c-.26,0-.52-.05-.76-.15-.24-.1-.46-.25-.65-.44-.09-.09-.18-.19-.25-.3-.07-.11-.14-.23-.18-.35-.05-.12-.09-.24-.12-.37-.02-.13-.04-.26-.04-.39,0-.53,.22-1.04,.59-1.42,.46-.46,1.15-.67,1.81-.54,.12,.02,.25,.06,.37,.11,.12,.05,.24,.11,.34,.19,.11,.07,.22,.15,.31,.24,.37,.38,.58,.89,.58,1.42,0,.13,0,.26-.03,.39-.03,.13-.07,.25-.12,.37s-.11,.24-.18,.35c-.07,.11-.16,.21-.25,.3-.38,.38-.88,.59-1.42,.59Z"/><path class="cls-1" d="M46.04,35.21c-.27,0-.53-.05-.77-.15-.24-.1-.46-.25-.65-.43-.19-.19-.33-.41-.43-.65-.1-.24-.15-.5-.15-.77,0-.52,.21-1.04,.58-1.41,.09-.09,.2-.18,.31-.25,.1-.07,.22-.14,.34-.19,.12-.05,.25-.08,.38-.11,.64-.13,1.34,.08,1.8,.55,.37,.37,.59,.89,.59,1.41,0,.27-.05,.53-.15,.77-.11,.24-.25,.46-.44,.65-.09,.09-.2,.17-.3,.25-.11,.07-.23,.13-.35,.18-.12,.05-.24,.09-.37,.11-.13,.03-.26,.04-.39,.04Z"/></g></g></svg>