<?xml version="1.0" encoding="UTF-8"?><svg id="Calque_2" xmlns="http://www.w3.org/2000/svg" viewBox="0 0 125.91 92.26"><defs><style>.cls-1{fill:#333;}</style></defs><g id="Layer_1"><g><path class="cls-1" d="M84.01,92.26h-25.14c-1.1,0-2-.9-2-2v-29.75H29.12v29.75c0,1.1-.9,2-2,2H2c-1.1,0-2-.9-2-2V30.96c0-.65,.32-1.26,.85-1.63L41.84,.37c.69-.49,1.62-.49,2.31,0l14.04,9.91-2.31,3.27-12.88-9.09L4,31.99v56.27H25.12v-29.75c0-1.1,.9-2,2-2h31.75c1.1,0,2,.9,2,2v29.75h21.14v-26.2h4v28.2c0,1.1-.9,2-2,2Z"/><g><path class="cls-1" d="M97.8,57.87c-10.06,0-14.69-7.62-16.33-11.27l3.65-1.64c2.26,5.03,7.01,10.58,16.79,8.44,12.41-2.72,17.68-10.42,19.26-13.33-7.86-7.51-19.87-11.8-26.86-9.43l-1.29-3.79c8.73-2.97,23.1,2.15,32.01,11.41l.88,.92-.46,1.19c-.21,.53-5.25,13.11-22.69,16.93-1.78,.39-3.43,.56-4.96,.56Z"/><path class="cls-1" d="M103.85,43.01c-3.04-.38-8.81-.38-14.7,0l-.26-3.99c6.21-.41,12.14-.4,15.46,.02l-.5,3.97Z"/></g><g><path class="cls-1" d="M75.55,46.47l-1.41-3.74c2.22-.84,9.64-4.04,11.69-10.05,2.38-6.99-1.91-19.01-9.43-26.87-2.92,1.57-10.59,6.77-13.32,19.27-2.14,9.78,3.41,14.53,8.44,16.79l-1.64,3.65c-4.21-1.89-13.67-7.74-10.71-21.29C62.97,6.78,75.55,1.73,76.09,1.53l1.19-.46,.92,.88c9.26,8.91,14.38,23.27,11.41,32.01-2.54,7.46-10.68,11.23-14.06,12.51Z"/><path class="cls-1" d="M75.34,52.82l-3.83-1.15c1.98-6.62,2.67-22.87,1.95-28.55l3.97-.5c.78,6.14,.13,22.8-2.08,30.2Z"/></g></g></g></svg>