<?xml version="1.0" encoding="UTF-8"?><svg id="Calque_2" xmlns="http://www.w3.org/2000/svg" viewBox="0 0 115.36 81.24"><defs><style>.cls-1{fill:#333;}</style></defs><g id="Layer_1"><g><g><path class="cls-1" d="M53.35,81.24c-13.16,0-23.69-6.86-30.11-12.48l2.63-3.01c9.58,8.39,29.21,19.8,52.96,1.92,30.2-22.73,32.41-51,32.52-57.26C82.75-.36,47.41,2.57,32,17.13c-13.05,12.34-12.58,34.61-12.13,41.14l-3.99,.28c-.49-6.97-.96-30.78,13.37-44.32C45.9-1.52,83.95-4.68,114.06,7.18l1.19,.47,.08,1.27c.09,1.42,1.7,35.02-34.09,61.95-10.1,7.6-19.53,10.37-27.88,10.37Z"/><path class="cls-1" d="M2.64,71.57l-2.64-3.01c9.34-8.2,28.04-18.79,42.42-25.97l1.79,3.58C26.42,55.05,10.1,65.02,2.64,71.57Z"/></g><g><path class="cls-1" d="M59.15,39.89c-4.33,0-7.72-4.93-7.72-11.22s3.39-11.22,7.72-11.22,7.72,4.93,7.72,11.22-3.39,11.22-7.72,11.22Zm0-18.43c-1.75,0-3.72,3.09-3.72,7.22s1.96,7.22,3.72,7.22,3.72-3.09,3.72-7.22-1.96-7.22-3.72-7.22Z"/><path class="cls-1" d="M75.25,39.89c-4.33,0-7.72-4.93-7.72-11.22s3.39-11.22,7.72-11.22,7.72,4.93,7.72,11.22-3.39,11.22-7.72,11.22Zm0-18.43c-1.75,0-3.72,3.09-3.72,7.22s1.96,7.22,3.72,7.22,3.72-3.09,3.72-7.22-1.96-7.22-3.72-7.22Z"/><rect class="cls-1" x="46.68" y="18.28" width="4" height="20.79"/><rect class="cls-1" x="83.78" y="26.68" width="20.79" height="4" transform="translate(7.3 74.99) rotate(-45)"/><path class="cls-1" d="M89.27,25.77c-.13,0-.27,0-.4-.04-.12-.02-.25-.06-.37-.11-.12-.05-.24-.11-.35-.19-.11-.07-.21-.15-.3-.25-.37-.36-.58-.88-.58-1.41s.21-1.04,.58-1.41c.74-.75,2.09-.75,2.83,0,.37,.37,.59,.88,.59,1.41s-.22,1.04-.59,1.41c-.37,.38-.89,.59-1.41,.59Z"/><path class="cls-1" d="M99.12,35.63c-.53,0-1.04-.22-1.41-.59-.37-.37-.59-.89-.59-1.41,0-.13,.01-.26,.04-.39,.03-.13,.07-.26,.12-.38,.05-.12,.11-.23,.18-.34,.07-.11,.16-.21,.25-.31,.74-.74,2.08-.74,2.83,0,.09,.1,.17,.2,.25,.31,.07,.11,.13,.22,.18,.34,.05,.12,.09,.25,.11,.38,.03,.13,.04,.26,.04,.39,0,.52-.21,1.04-.58,1.41-.38,.37-.89,.59-1.42,.59Z"/></g></g></g></svg>