<?xml version="1.0" encoding="UTF-8"?><svg id="Calque_2" xmlns="http://www.w3.org/2000/svg" viewBox="0 0 94.2 120.75"><defs><style>.cls-1{fill:#333;}</style></defs><g id="Layer_1"><g><g><g><path class="cls-1" d="M26.02,38.5c-10.61,0-19.25-8.64-19.25-19.25S15.4,0,26.02,0s19.25,8.64,19.25,19.25-8.63,19.25-19.25,19.25Zm0-34.5c-8.41,0-15.25,6.84-15.25,15.25s6.84,15.25,15.25,15.25,15.25-6.84,15.25-15.25-6.84-15.25-15.25-15.25Z"/><rect class="cls-1" x="10.35" y="65.39" width="4" height="53.28"/><path class="cls-1" d="M12.02,97.07c-6.63,0-12.02-5.39-12.02-12.02v-30.61c0-6.63,5.39-12.02,12.02-12.02h14v4H12.02c-4.42,0-8.02,3.6-8.02,8.02v30.61c0,4.42,3.6,8.02,8.02,8.02v4Z"/><path class="cls-1" d="M38.92,118.76l-.18-53.36c0-.59,.26-1.16,.71-1.54,.45-.38,1.05-.54,1.64-.44l12.95,2.31,18.16-12.84-1.83-5.56-13.88,7.6c-.76,.42-1.71,.3-2.34-.3-7.44-7.06-9.42-8.21-14.14-8.21h-14v-4h14c5.96,0,8.79,1.7,15.83,8.3l14.71-8.06c.52-.29,1.14-.33,1.69-.11,.55,.22,.98,.67,1.17,1.23l3.05,9.25c.28,.83-.03,1.75-.74,2.26l-20.05,14.18c-.44,.31-.98,.43-1.51,.34l-11.42-2.04,.17,50.96h-4Z"/></g><rect class="cls-1" x="23.83" y="88.28" width="4" height="30.47"/></g><path class="cls-1" d="M85.85,120.75h-22.57c-.96,0-1.78-.68-1.96-1.62l-6.35-32.76c-.11-.59,.04-1.19,.42-1.65,.38-.46,.95-.73,1.54-.73h35.27c.6,0,1.16,.27,1.54,.73,.38,.46,.53,1.07,.42,1.65l-6.35,32.76c-.18,.94-1.01,1.62-1.96,1.62Zm-20.92-4h19.27l5.58-28.76h-30.42l5.58,28.76Z"/><path class="cls-1" d="M66.7,73.96c-.27,0-.53-.05-.77-.15-.24-.1-.46-.24-.65-.43-.09-.1-.17-.2-.25-.31-.07-.1-.13-.22-.18-.34s-.09-.24-.11-.37c-.03-.13-.04-.26-.04-.39s0-.27,.04-.4c.02-.12,.06-.25,.11-.37,.05-.12,.11-.24,.18-.35,.08-.11,.16-.21,.25-.3,.75-.74,2.08-.75,2.83,0,.09,.09,.18,.19,.25,.3,.07,.11,.14,.23,.19,.35,.05,.12,.08,.25,.11,.37,.03,.13,.04,.27,.04,.4s-.01,.26-.04,.39c-.03,.13-.06,.25-.11,.37s-.11,.24-.19,.34c-.07,.11-.15,.21-.25,.31-.38,.37-.88,.58-1.41,.58Z"/><path class="cls-1" d="M75.2,67.96c-.54,0-1.04-.2-1.42-.58-.37-.38-.58-.88-.58-1.42s.21-1.04,.58-1.41c.47-.46,1.16-.68,1.81-.55,.13,.03,.25,.07,.37,.12,.12,.05,.24,.11,.35,.18,.11,.07,.21,.16,.3,.25,.37,.37,.59,.89,.59,1.41s-.21,1.04-.59,1.42c-.38,.38-.88,.58-1.41,.58Z"/><path class="cls-1" d="M83.32,79.72c-.53,0-1.03-.21-1.41-.59-.09-.1-.18-.2-.25-.31-.07-.1-.14-.22-.19-.34-.05-.12-.08-.24-.11-.37-.02-.13-.04-.26-.04-.39,0-.14,.02-.27,.04-.4,.03-.12,.07-.25,.12-.37,.05-.12,.11-.24,.18-.35,.07-.11,.16-.21,.25-.3,.09-.09,.19-.18,.3-.25,.11-.07,.23-.13,.35-.18,.12-.05,.24-.09,.37-.12,.65-.13,1.34,.09,1.81,.55,.09,.09,.17,.19,.25,.3,.07,.11,.13,.23,.18,.35,.05,.12,.09,.25,.11,.37,.03,.13,.04,.26,.04,.4,0,.13,0,.26-.04,.39-.02,.13-.06,.25-.11,.37-.05,.12-.11,.24-.18,.34-.08,.11-.16,.21-.25,.31-.38,.38-.88,.59-1.42,.59Z"/><path class="cls-1" d="M75.2,80.97c-.13,0-.27-.02-.39-.04-.13-.03-.26-.07-.38-.12-.12-.05-.23-.11-.34-.18-.11-.07-.21-.16-.31-.25-.37-.38-.58-.88-.58-1.41,0-.14,0-.27,.04-.4,.02-.12,.06-.25,.11-.37,.05-.12,.11-.24,.19-.35,.07-.11,.15-.21,.24-.3,.75-.74,2.08-.75,2.83,0,.09,.09,.18,.19,.25,.3,.07,.11,.14,.23,.19,.35,.05,.12,.08,.25,.11,.37,.03,.13,.04,.26,.04,.4,0,.53-.21,1.03-.59,1.41-.38,.38-.88,.59-1.41,.59Z"/></g></g></svg>