<?xml version="1.0" encoding="UTF-8"?><svg id="Calque_2" xmlns="http://www.w3.org/2000/svg" viewBox="0 0 115.67 115.16"><defs><style>.cls-1{fill:#333;}</style></defs><g id="Layer_1"><g><g><path class="cls-1" d="M56.18,108.18c-11.87-17.43-38.95-20.11-39.23-20.14l.37-3.98c1.19,.11,29.25,2.89,42.17,21.87l-3.31,2.25Z"/><path class="cls-1" d="M30.79,107.2c-6.45,0-12.81-1.6-17.69-5.56C.99,91.8,.04,78.22,0,77.65c-.04-.7,.29-1.38,.87-1.77,.58-.4,1.33-.46,1.97-.16,3.92,1.83,12.55,.68,18.74-.85,.25-.06,.55-.14,.89-.23,4.92-1.29,19.89-5.23,27.2,5.7,.92,1.38,1.65,2.88,2.17,4.47l-3.8,1.24c-.41-1.24-.98-2.42-1.7-3.49-5.73-8.57-18.17-5.29-22.86-4.06-.36,.1-.68,.18-.95,.25-2.91,.72-11.71,2.66-18.07,1.57,.93,4.2,3.62,12.1,11.15,18.22,7.97,6.47,20.9,5.49,30.18,1.65l1.53,3.7c-4.91,2.03-10.76,3.32-16.55,3.32Z"/></g><g><path class="cls-1" d="M59.49,90.39l-3.31-2.25c12.92-18.98,40.98-21.76,42.17-21.87l.37,3.98c-.27,.03-27.38,2.74-39.23,20.14Z"/><path class="cls-1" d="M84.88,89.42c-5.79,0-11.64-1.29-16.55-3.32l1.53-3.7c9.28,3.84,22.21,4.83,30.18-1.65,7.53-6.11,10.22-14.02,11.15-18.22-6.36,1.08-15.16-.85-18.07-1.57-.27-.07-.59-.15-.95-.25-4.68-1.23-17.13-4.51-22.86,4.06-.72,1.07-1.29,2.25-1.7,3.49l-3.8-1.24c.52-1.59,1.25-3.1,2.17-4.47,7.32-10.94,22.29-7,27.2-5.7,.34,.09,.64,.17,.89,.23,6.2,1.53,14.82,2.68,18.74,.85,.64-.3,1.39-.24,1.97,.16,.58,.4,.91,1.07,.87,1.77-.03,.57-.99,14.16-13.1,24-4.87,3.96-11.24,5.56-17.69,5.56Z"/></g><g><g><path class="cls-1" d="M57.9,55.96c-11.9,0-21.58-9.68-21.58-21.58V13.25c0-1.1,.9-2,2-2h39.16c1.1,0,2,.9,2,2v21.13c0,11.9-9.68,21.58-21.58,21.58ZM40.32,15.25v19.13c0,9.69,7.89,17.58,17.58,17.58s17.58-7.89,17.58-17.58V15.25H40.32Z"/><g><rect class="cls-1" x="46.7" width="4" height="13.25"/><rect class="cls-1" x="65.11" width="4" height="13.25"/></g></g><rect class="cls-1" x="55.9" y="53.96" width="4" height="61.2"/><rect class="cls-1" x="48.69" y="25.25" width="18.42" height="4"/><rect class="cls-1" x="48.69" y="35.77" width="18.42" height="4"/></g></g></g></svg>