<?xml version="1.0" encoding="UTF-8"?><svg id="Calque_2" xmlns="http://www.w3.org/2000/svg" viewBox="0 0 77.97 101.91"><defs><style>.cls-1{fill:#333;}</style></defs><g id="Layer_1"><g><g><g><path class="cls-1" d="M28.81,45.78l-2.83-2.83,12.05-12.05c.47-.58,1.24-.86,1.99-.7,.41,.09,.77,.31,1.05,.61l12.14,12.14-2.83,2.83-10.79-10.79-10.79,10.79Z"/><polygon class="cls-1" points="53.62 46.55 41.64 46.55 41.64 42.55 49.62 42.55 49.62 34.58 53.62 34.58 53.62 46.55"/></g><g><path class="cls-1" d="M34.06,76.38l-16.46-4.41c-.75-.12-1.37-.65-1.6-1.39-.12-.4-.12-.81,0-1.2l4.44-16.58,3.86,1.04-3.95,14.73,14.74,3.95-1.04,3.86Z"/><polygon class="cls-1" points="25.89 63.03 21.9 56.12 14.99 60.11 12.99 56.64 23.36 50.66 29.35 61.03 25.89 63.03"/></g><g><path class="cls-1" d="M45.36,76.26l-1.04-3.86,14.73-3.95-3.95-14.74,3.86-1.04,4.41,16.46c.27,.69,.13,1.49-.38,2.06-.29,.32-.66,.53-1.06,.62l-16.58,4.44Z"/><polygon class="cls-1" points="52.41 80.79 42.04 74.8 48.03 64.43 51.49 66.43 47.51 73.34 54.41 77.33 52.41 80.79"/></g></g><g><path class="cls-1" d="M23.12,25.1H9.81v-4h11.31V9.78h4v13.32c0,1.1-.9,2-2,2Z"/><path class="cls-1" d="M75.97,101.91H2c-1.1,0-2-.9-2-2V15.85c0-.53,.21-1.04,.59-1.41L14.44,.59c.37-.38,.88-.59,1.41-.59h60.11c1.1,0,2,.9,2,2V99.91c0,1.1-.9,2-2,2ZM4,97.91H73.97V4H16.69L4,16.68V97.91Z"/></g></g></g></svg>