<?xml version="1.0" encoding="UTF-8"?><svg id="Calque_2" xmlns="http://www.w3.org/2000/svg" viewBox="0 0 110.67 110.67"><defs><style>.cls-1{fill:#333;}</style></defs><g id="Layer_1"><g><g><path class="cls-1" d="M49,42.39c-.62-.33-2.3-1.01-6.66-1.86-1.96-.38-3.53-.61-3.55-.61l.57-3.96c.07,0,1.68,.24,3.74,.64,3.72,.72,6.34,1.48,7.79,2.26l-1.9,3.52Z"/><path class="cls-1" d="M55.65,84.45l-12.31-12.31c-1.53-1.53-1.67-3.69-1.48-5.34-4.27-1.13-8.68-4.82-9.51-5.66-1.33-1.33-3.81-3.81-5.16-8.13-1.1-3.51-.95-11.08-.85-13.79l-1.7-1.7,2.83-2.83,2.32,2.32c.4,.4,.61,.95,.58,1.51-.13,2.72-.26,10.42,.64,13.29,1.06,3.38,3.01,5.33,4.18,6.5,1.46,1.46,6.27,4.85,9.06,4.82,.64,0,1.27,.3,1.65,.83,.38,.53,.48,1.21,.26,1.83-.37,1.09-.57,2.92,.02,3.52l12.31,12.31-2.83,2.83Z"/><path class="cls-1" d="M71.17,96.81c-2.33,0-4.26-1.14-5.24-2.08l-10.28-10.28,2.83-2.83,10.24,10.25c.14,.13,1.89,1.63,4.04,.53,2.56-1.31,7.21-5.86,8.79-7.51,1.7-1.64,6.26-6.29,7.57-8.84,1.1-2.15-.4-3.9-.58-4.09l-10.2-10.2,2.83-2.83,10.24,10.25c1.4,1.47,3.2,4.91,1.26,8.7-1.85,3.61-7.64,9.22-8.3,9.85-.57,.6-6.18,6.39-9.79,8.24-1.19,.61-2.35,.85-3.42,.85Z"/><path class="cls-1" d="M78.34,61.76l-12.31-12.31c-.62-.62-2.59-.35-3.52-.02-.61,.21-1.3,.12-1.83-.26-.53-.38-.84-1-.83-1.65,.04-2.9-3.48-7.72-4.82-9.06-1.17-1.17-3.12-3.12-6.5-4.17-2.88-.9-10.57-.76-13.29-.64-.58,.02-1.11-.19-1.51-.58l-2.32-2.32,2.83-2.83,1.7,1.7c2.71-.1,10.28-.25,13.79,.85,4.31,1.35,6.8,3.83,8.13,5.16,.84,.84,4.52,5.25,5.66,9.51,1.65-.19,3.81-.04,5.34,1.48l12.31,12.31-2.83,2.83Z"/><path class="cls-1" d="M26.05,38.12c-.51,0-1.02-.2-1.41-.59l-5.82-5.82c-.37-.38-.59-.88-.59-1.41s.21-1.04,.59-1.41l6.79-6.79c.78-.78,2.05-.78,2.83,0l5.82,5.82c.37,.38,.59,.88,.59,1.41s-.21,1.04-.59,1.41l-6.79,6.79c-.39,.39-.9,.59-1.41,.59Zm-2.99-7.82l2.99,2.99,3.97-3.96-2.99-2.99-3.96,3.96Z"/></g><path class="cls-1" d="M55.33,110.67C24.82,110.67,0,85.84,0,55.33S24.82,0,55.33,0s55.33,24.82,55.33,55.33-24.82,55.33-55.33,55.33Zm0-106.67C27.03,4,4,27.03,4,55.33s23.03,51.33,51.33,51.33,51.33-23.03,51.33-51.33S83.64,4,55.33,4Z"/><rect class="cls-1" x="1.9" y="53.19" width="106.86" height="4" transform="translate(-22.82 55.29) rotate(-45)"/></g></g></svg>