<?xml version="1.0" encoding="UTF-8" standalone="no"?>
<svg
   xmlns:dc="http://purl.org/dc/elements/1.1/"
   xmlns:cc="http://creativecommons.org/ns#"
   xmlns:rdf="http://www.w3.org/1999/02/22-rdf-syntax-ns#"
   xmlns:svg="http://www.w3.org/2000/svg"
   xmlns="http://www.w3.org/2000/svg"
   id="svg133"
   xml:space="preserve"
   style="enable-background:new 0 0 1000 666;"
   viewBox="0 0 1000 666"
   y="0px"
   x="0px"
   version="1.1"><metadata
   id="metadata139"><rdf:RDF><cc:Work
       rdf:about=""><dc:format>image/svg+xml</dc:format><dc:type
         rdf:resource="http://purl.org/dc/dcmitype/StillImage" /><dc:title></dc:title></cc:Work></rdf:RDF></metadata><defs
   id="defs137" />
<style
   id="style2"
   type="text/css">
	.st0{fill:#95D2EF;}
	.st1{fill:#1E1E1C;}
	.st2{fill:#1E1E1C;stroke:#1E1E1C;stroke-width:0.25;stroke-miterlimit:10;}
	.st3{fill:#1E1E1C;stroke:#1E1E1C;stroke-width:0.15;stroke-miterlimit:10;}
	.st4{fill:#FFFFFF;}
	.st5{stroke:#1E1E1C;stroke-miterlimit:10;}
	.st6{fill:none;stroke:#1E1E1C;stroke-width:3;stroke-linecap:round;stroke-linejoin:round;stroke-miterlimit:10;}
</style>

<g
   id="g1062"><g
     id="Calque_2">
	<g
   id="g6">
		<path
   class="st0"
   d="M176.4,348c-2.7-1.5-5.4-3-8.4-3.7c-6.2-1.5-12.9,0.6-18.2,4.2c-15.9,10.5-21.6,31.7-19.6,50.7    c2.8,26.2,18.4,50.4,40.3,65s49.7,19.7,75.6,15.3c2-0.3,4-0.8,5.6-2c2.5-1.9,3.2-5.4,3.6-8.5c2.2-18.4-2.7-37.1-11.2-53.6    c-8.5-16.5-20.4-30.9-32.9-44.5c-9.6-10.4-21.2-21.2-35.4-21.2"
   id="path4" />
	</g>
	<g
   id="g10">
		<path
   class="st0"
   d="M729.4,355c-4.2,6.9-3.4,16.5,1.9,22.7s14.7,8.4,22.2,5.2c11.9-5,17-20.8,29.4-24.1c5-1.4,10.5-0.4,15.4-2.2    c7-2.5,11.1-9.9,12.9-17.1c1.2-4.8,1.5-10.5-1.9-14.1c-2.8-2.9-7.1-3.6-11.2-3.8c-14.1-0.4-27.7,4.3-41.2,8.5    c-5.9,1.8-12,3.6-17.1,7.2s-9.1,9.3-8.9,15.5"
   id="path8" />
	</g>
	<g
   id="g14">
		<path
   class="st0"
   d="M476.1,522.2c-4.7,3-10.7,1-16.2,0.3c-12.8-1.7-26.6,5.3-31.5,17.2c-4.8,11.9,1.3,27.6,13.4,31.8    c6,2.1,12.6,1.5,18.9,1.5c13.6,0.1,26.9,3.6,40.4,5.6c13.5,2,27.7,2.5,40.2-2.9c12.5-5.4,22.7-18.1,21.4-31.6    c-0.4-3.8-1.6-7.6-4-10.7c-4.5-5.8-12.1-8.1-19.3-9.1c-9.5-1.4-19.3-1.3-28.8,0.4"
   id="path12" />
	</g>
</g><g
     id="Calque_1">
	
	
	
	
	
	
	
	
	
	
<g
   id="g975"><g
     id="XMLID_2_">
		<g
   id="g23">
			<path
   id="path17"
   d="M515.7,513.2c1.1,10.9,2.3,21.8,3.4,32.8c-14.6,7.8-32.5,8.6-47.7,2.1c0.4-40,1.2-79.9,2.5-119.9     c1.3-40.4,3.1-80.7,5.4-121c1.3-22.6,2.7-45.3,4.3-67.9c0-0.2,0-0.3,0-0.4c1.4,0.3,2.8,0.5,4.2,0.4h0c0.5,22.9,1.4,45.7,2.8,68.5     c1.4,24.4,3.4,48.7,5.8,73c0.5,4.7,0.6,10.9,5.3,13.5c0.6,0.3,1.3,0.6,1.9,0.7C507.5,434.4,511.6,473.8,515.7,513.2z"
   class="st4" />
			<path
   id="path19"
   d="M511.8,249.4c7.3,7,7,17.4,5.7,26.7c-0.8,5.8-1.9,11.6-2.8,17.4c-0.9,6.2-1.8,12.4-2.6,18.6     c-1.6,12.6-2.9,25.1-3.8,37.8c-1,13.8-1.7,27.6-2,41.4c-1.1,0.6-2.4,0.2-3.4-0.5c-1.5-1.1-2.1-3.3-2.4-5.1     c-0.4-2.6-0.6-5.2-0.8-7.8c-0.3-2.6-0.5-5.3-0.8-7.9c-1-10.9-1.9-21.8-2.8-32.6c-1.6-21.9-2.9-43.7-3.8-65.6     c-0.5-12.3-0.9-24.6-1.1-37c0-0.7,0.1-1.5,0.5-2c0.2-0.2,0.7-0.3,1.2-0.4c1,0,1.7,0.1,2.6,0.3     C497.8,240.5,506.3,244.1,511.8,249.4z"
   class="st4" />
			<path
   id="path21"
   d="M491.2,212.2c-0.5,0-1.1,0-1.6,0.1c0,0,0,0,0,0c-0.1,0-0.3,0.1-0.4,0.1c-0.3,0-0.5,0.1-0.7,0.2     c-0.5,0.1-0.9,0.3-1.4,0.5c-0.1,0-0.1,0.1-0.2,0.1c-0.1,0.1-0.3,0.1-0.4,0.2c-0.2,0.1-0.5,0.2-0.7,0.4c-0.2,0.1-0.4,0.3-0.6,0.4     c-0.1,0.1-0.2,0.1-0.3,0.2c0,0,0,0-0.1,0c0,0,0,0,0,0c-0.4,0.3-0.8,0.7-1.2,1.1c-0.2,0.2-0.3,0.4-0.5,0.6c0,0,0,0,0,0     c-0.1,0.1-0.1,0.2-0.2,0.3c1.8,2.1,3.3,4.7,2.6,7.5c-0.8,3.1-3.9,4.5-6.8,5.2c0,0.1,0.1,0.3,0.1,0.4c0,0.2,0,0.3,0,0.5     c0,0,0,0.1,0,0.2c0,0.1,0,0.3,0,0.3c0,0.1,0,0.2,0.1,0.3c0.1,0.2,0.1,0.5,0.2,0.7c0,0.1,0.1,0.2,0.1,0.2c0.1,0.1,0.1,0.3,0.2,0.4     c0.1,0.3,0.3,0.5,0.5,0.7c0,0,0,0.1,0,0.1c0,0,0,0,0,0c0.1,0.1,0.2,0.2,0.3,0.3c0.2,0.2,0.4,0.4,0.6,0.6c0,0.1,0.1,0.1,0.2,0.1     c0,0,0.2,0.1,0.2,0.1c0.5,0.3,1.2,0.7,1.6,0.9c0.3,0.1,1.1,0.4,1.6,0.5c0.3,0.1,0.6,0.1,0.9,0.2c0.1,0,0.2,0,0.2,0     c0.2,0,0.3,0,0.5,0c0.2,0,0.4,0,0.5,0c0.3-0.3,0.6-0.4,0.9-0.5c0-0.1,0-0.2,0-0.4c0.1-2.7,1.3-5.3,4.1-5.9c2-0.4,4,0.1,6,0.4     c0.6,0.1,1.2,0.7,1.3,1.3c0.2,0.8,0.4,1.7,0.8,2.4c0.1-0.2,0.2-0.4,0.4-0.6c0.3-0.2,0.5-0.5,0.7-0.7c0,0,0.1-0.2,0.2-0.2     c0-0.1,0.1-0.2,0.2-0.2c0.2-0.3,0.3-0.5,0.5-0.8c0.1-0.1,0.1-0.3,0.2-0.4c0,0,0.1-0.1,0.1-0.2c0.2-0.5,0.4-1.1,0.5-1.6     c0-0.1,0-0.3,0.1-0.4c0-0.1,0-0.2,0-0.2c0-0.3,0-0.6,0-0.8c0-2.2-0.6-4.2-2.1-5.7c-0.3-0.3-0.5-0.6-0.5-1c-0.1,0-0.1,0-0.2,0     c-3.7,0.7-7-1-7.7-4.8c-0.2-1-0.2-2-0.2-3.1C491.6,212.2,491.4,212.2,491.2,212.2z M496.2,216c0.2,0.3,0.2,0.2,0.5,0.4     c0.1,0,0.5,0.2,0.5,0.2c0.4,0.1,0.8,0,1.2,0c1.5-0.2,3-0.6,4.4-0.9c1.7-0.3,3.5-0.6,5.1-1.4c3-1.3,5.8-3,8.7-4.5     c2.9-1.6,5.8-3.3,8.7-5c5.7-3.4,11.2-7,16.7-10.7c11.1-7.4,22-15,32.7-22.9c16.4-12.1,32.3-24.8,48.6-36.9     c-5.8,2.7-11.6,5.3-17.5,7.9c-21,9.3-42.2,18-63.6,26.1c-5.4,2-10.8,4.1-16.2,6c-2.7,1-5.3,1.9-8,2.9c-2.2,0.8-4.5,1.7-6.3,3.3     c-1.8,1.7-3,3.9-4.1,6.1c-1.3,2.7-2.6,5.3-4,8c-2.6,5.3-5.2,10.5-7.8,15.8c0,0.2-0.1,0.3-0.1,0.5c0,0.2-0.1,0.4-0.1,0.7     c0,0.1,0,0.1,0,0.1c0,0,0,0,0,0.1c0,0.1,0,0.2,0,0.3c-0.1,0.7-0.1,1.3,0,2c0,0.1,0,0.3,0,0.4c0,0.1,0,0.3,0.1,0.3     c0,0.1,0.2,0.6,0.2,0.7c0,0,0,0,0,0C496,215.6,496.2,216,496.2,216z M642,123.3c0.6,0.8,0.6,2-0.6,2.5     c-12.9,9.1-25.4,18.7-37.9,28.3c-22,16.9-44.2,33.6-67.6,48.6c-5.8,3.7-11.8,7.3-17.8,10.6c-3,1.6-6,3.4-9.1,4.7     c-1.6,0.6-3.3,1.1-5,1.4c3.5,4.5,3.2,11.6-1.1,15.6c-0.4,0.4-1,0.6-1.5,0.5c2.3,3,5.6,5.1,8.5,7.3c3.4,2.6,6.7,5.4,8.9,9.2     c4.8,8.5,3.5,18.9,2,28.1c-3.8,23.8-7,47.6-8.7,71.6c-0.9,12-1.5,24.1-1.8,36.2c0,1.4,0.2,3.3-0.2,4.7c-0.3,1.1-1.5,1.8-2.5,2.2     c-0.1,0-0.2,0.1-0.3,0.1c1.1,10.9,2.3,21.9,3.4,32.8c4.1,39.8,8.2,79.6,12.3,119.4c0.1,0.6-0.4,1.3-0.9,1.6     c-16.3,9.2-36.5,10-53.5,2.3c-0.6-0.3-0.9-1-0.9-1.6c0.2-22.7,0.6-45.3,1.1-68c0.9-40.4,2.3-80.7,4.1-121.1     c1.8-40.3,4.2-80.7,7-120.9c0-0.7,0.4-1.2,0.9-1.5c-3.1-1.7-5.5-4.7-5.5-8.4c-3,0.2-6.1,0.1-9.1-0.2c-4.4-0.4-8.8-0.8-13.2-1.1     c-4.1-0.4-8.1-0.7-12.2-1.1c-3.6-0.3-7.3-0.7-10.8-1.8c-6.3-2-11-6.5-16-10.6c-9.9-8-21-14.4-32-20.8     c-11.2-6.4-22.5-12.7-32.9-20.3c-4.9-3.6-9.6-7.4-13.8-11.7c-2-2.1-4.2-4.4-5-7.3c-0.9-3.1,0.6-5.7,3.2-7.4     c0.8-0.5,1.5-0.4,2,0.1c9,6.5,19.2,10.9,29.5,14.8c10,3.9,20,7.4,30,11.3c10.1,4,20.1,8.2,30.1,12.6     c18.9,8.4,37.4,17.7,55.3,27.8c2.9-3.8,7.7-5.9,12.4-5.3c3-6.1,6-12.2,9.1-18.2c2.6-5.3,4.8-11.4,10.2-14.5     c2.2-1.3,4.6-2.1,7-2.9c2.7-1,5.4-2,8.1-2.9c5.4-2,10.8-4,16.2-6.1c10.9-4.2,21.8-8.5,32.6-12.9c21.5-8.9,42.7-18.3,63.7-28.4     C640.5,121.9,641.5,122.4,642,123.3z M519.1,546c-1.1-10.9-2.3-21.8-3.4-32.8c-4.1-39.4-8.2-78.8-12.2-118.2     c-0.7-0.2-1.3-0.4-1.9-0.7c-4.7-2.5-4.9-8.8-5.3-13.5c-2.4-24.3-4.3-48.6-5.8-73c-1.4-22.8-2.3-45.6-2.8-68.5h0     c-1.4,0.1-2.8-0.1-4.2-0.4c0,0.1,0,0.3,0,0.4c-1.6,22.6-3,45.2-4.3,67.9c-2.3,40.3-4,80.7-5.4,121c-1.3,39.9-2.1,79.9-2.5,119.9     C486.5,554.6,504.5,553.8,519.1,546z M517.5,276.1c1.3-9.3,1.6-19.7-5.7-26.7c-5.5-5.3-14-8.9-16.2-16.8     c-0.9-0.2-1.6-0.3-2.6-0.3c-0.5,0-1,0.2-1.2,0.4c-0.4,0.4-0.5,1.2-0.5,2c0.3,12.3,0.6,24.7,1.1,37c0.9,21.9,2.1,43.8,3.8,65.6     c0.8,10.9,1.7,21.8,2.8,32.6c0.2,2.6,0.5,5.3,0.8,7.9c0.3,2.6,0.4,5.2,0.8,7.8c0.3,1.8,0.8,3.9,2.4,5.1c1,0.7,2.4,1.1,3.4,0.5     c0.3-13.8,1-27.6,2-41.4c1-12.6,2.3-25.2,3.8-37.8c0.8-6.2,1.7-12.4,2.6-18.6C515.6,287.7,516.7,281.9,517.5,276.1z M481.8,223.3     c1.2-1.9-1.2-4.4-2.5-5.6c-10.2-5.8-20.5-11.2-30.9-16.4c-19.3-9.6-39.1-18.3-59.2-26c-9.9-3.8-19.9-7.3-29.7-11.2     c-8.7-3.5-17.4-7.4-25.1-12.9c-0.5,0.5-0.8,1.1-0.7,1.9c0.1,1.3,1.1,2.6,1.8,3.6c1.9,2.4,4.2,4.6,6.5,6.6     c4.7,4.2,9.9,8,15.2,11.5c19.8,13.1,41.9,22.7,60.3,38c4.5,3.8,8.9,7.7,14.7,9.3c3.3,0.9,6.8,1.1,10.2,1.4     c3.7,0.3,7.4,0.6,11,0.9c3.8,0.3,7.5,0.7,11.3,1c3.2,0.3,6.4,0.6,9.6,0.4c1.6-0.1,3.2-0.3,4.7-0.8     C479.9,224.6,481.2,224.2,481.8,223.3z"
   class="st1" />
		</g>
	</g><g
     id="XMLID_3_">
		<g
   id="g32">
			<path
   id="path26"
   d="M855.7,322.8c0.2,1.4,0,1.8-1.4,2.3c-1.5,0.6-3,0.6-4.6,0.6c-2,0-4-0.1-6-0.1c-8.1-0.1-16.2,0.1-24.2,0.6     c-7.6,0.5-15.3,1-22.8,2.3c-3.5,0.6-7,1.6-10.3,3c-3.2,1.4-6.1,3.2-8.9,5.3c-3,2.2-6.1,4.7-9.8,5.8c-2.8,0.8-6.2,0.9-8.7-0.9     c-0.2-2.7,0.3-5.5,0.7-8.1c0.5-2.7,1-5.4,1.4-8.1c0.6-0.3,1.3-0.7,1.8-1.1c24-2,48-2.5,72.1-2.9c6.8-0.1,13.7-0.3,20.5-0.5     C855.6,321.6,855.6,322.2,855.7,322.8z"
   class="st4" />
			<path
   id="path28"
   d="M769.4,346c0,0,0.1,0,0.1,0c-0.5,8-1.9,17.4-9.7,21.3c-2.4,1.2-5.1,1.8-7.7,2.5c-2.8,0.7-5.6,1.3-8.5,1.8     c-5.8,1.1-11.6,1.8-17.4,2.1c-11.6,0.7-23.3,0.1-34.8-2c-2.9-0.5-5.8-1.1-8.7-1.8c-2.5-0.6-5.1-1.2-7.5-2.2     c-2.2-0.9-4.2-2.2-5.4-4.2c-1.4-2.3-2-4.9-2.6-7.4c-2.8-11.4-4.2-23-4.3-34.7c0.6,0.2,1.3,0.4,1.9,0.5c2.3,0.4,4.6,0.5,6.8,0.7     c9.6,0.9,19.3,1.8,28.9,2.8c16.7,1.6,33.9,4.2,50.6,0.9c2.2-0.4,4.3-1,6.4-1.7c0,0,0.1,0.1,0.1,0.1c-0.4,3.5-1.3,7-1.8,10.5     c-0.3,1.9-0.5,3.8-0.5,5.7c0,0.8,0,1.5,0.2,2.3c0.2,1.1,1.4,1.8,2.3,2.4C761.2,347.4,765.7,347.3,769.4,346z"
   class="st4" />
			<path
   id="path30"
   d="M860.7,311.6c1,0.2,1.6,1.4,1.3,2.3c-0.6,1.9-1.5,3.6-2.8,5c0,0.1,0,0.1,0,0.2c-0.4,2,0.7,4.1,0.1,6.1     c-0.7,2.2-3.1,3.3-5.2,3.8c-2.5,0.6-5,0.4-7.5,0.4c-3,0-5.9-0.1-8.9,0c-10.5,0.1-20.9,0.6-31.3,1.7c-4.6,0.5-9.2,1-13.6,2.3     c-4.5,1.2-8.5,3.2-12.3,5.9c-2.4,1.7-4.7,3.5-7.2,5c0,0,0,0,0,0.1c-0.3,5.4-0.8,11-2.8,16c-2.2,5.3-5.9,9.2-11.3,11.2     c-5.7,2.1-11.9,3.2-17.9,4.2c-6.2,1-12.4,1.6-18.7,1.9c-12.3,0.5-24.8-0.6-36.8-3.2c-3-0.6-5.9-1.3-8.8-2.2     c-2.5-0.8-5-1.7-7.2-3.3c-4.6-3.5-5.8-9.4-7-14.8c-2.8-12.5-4-25.3-3.8-38.1c0-0.3,0.1-0.6,0.2-0.9c0.4-2.2,1.9-4.3,3.4-5.8     c4.3-4.1,10.9-6,16.6-7.2c5-1,10.2-1.5,15.3-1.6c0.1,0,0.3,0,0.5,0c0.3,0,0.5,0,0.8,0c2.7,0,5.5,0.1,8.2,0.3     c0.2,0,0.4,0.1,0.5,0.1c8.9,0.4,17.7,0.8,26.6,1.1c9.5,0.4,19.1,0.4,28.5,1.7c3.8,0.5,8,1.1,11.1,3.6c1.9,1.5,2.9,3.7,2.7,5.8     c0.5-0.1,0.9-0.2,1.4-0.3c3.3-0.5,6.6-0.5,9.9-0.6c3.7-0.1,7.3-0.2,11-0.3c7.3-0.2,14.6-0.4,21.9-0.7c7.3-0.2,14.6-0.5,21.9-0.7     C846.7,310.4,853.8,310.2,860.7,311.6z M855.5,317.4c0.8-0.8,1.5-1.6,2-2.5c-7.1-1.1-14.3-0.6-21.4-0.4     c-14.3,0.4-28.5,0.9-42.8,1.3c-3.7,0.1-7.3,0.2-11,0.3c-3,0.1-6.2,0.1-9.1,1c-2.1,0.6-3.8,1.9-5.4,3.2c4-0.3,7.9-0.6,11.8-0.8     C805,318.1,830.3,318,855.5,317.4z M854.3,325.1c1.4-0.5,1.6-0.9,1.4-2.3c-0.1-0.6-0.1-1.1-0.2-1.7c-6.8,0.2-13.7,0.3-20.5,0.5     c-24,0.5-48.1,0.9-72.1,2.9c-0.6,0.4-1.2,0.8-1.8,1.1c-0.4,2.7-0.9,5.4-1.4,8.1c-0.5,2.7-0.9,5.4-0.7,8.1     c2.5,1.8,5.8,1.7,8.7,0.9c3.7-1.1,6.8-3.6,9.8-5.8c2.8-2.1,5.7-3.9,8.9-5.3c3.3-1.4,6.8-2.3,10.3-3c7.5-1.4,15.2-1.9,22.8-2.3     c8.1-0.5,16.1-0.7,24.2-0.6c2,0,4,0.1,6,0.1C851.2,325.7,852.8,325.6,854.3,325.1z M764.5,317.5c1.8-1,6.6-3.2,5.2-6     c-1.4-2.7-5.9-3.3-8.6-3.8c-4.2-0.8-8.6-1-12.9-1.2c-17.5-0.8-35-1.5-52.5-2.2c-6.4,0-12.9,0.7-19.1,2.3     c-2.6,0.7-5.2,1.6-7.6,2.8c-2.3,1.2-4.8,2.8-5.8,5.4c-0.5,1.1-0.5,2.4,0.8,2.9c1.7,0.7,3.9,0.6,5.8,0.8c4.4,0.4,8.7,0.8,13.1,1.3     c8.9,0.9,17.8,1.7,26.7,2.6c14.8,1.4,30.3,3.2,44.8-0.9C757.9,320.5,761.3,319.2,764.5,317.5z M769.5,345.9c0,0-0.1,0-0.1,0     c-3.7,1.3-8.1,1.4-11.6-0.6c-1-0.6-2.1-1.3-2.3-2.4c-0.1-0.7-0.2-1.5-0.2-2.3c0-1.9,0.2-3.8,0.5-5.7c0.5-3.5,1.3-7,1.8-10.5     c0,0-0.1-0.1-0.1-0.1c-2.1,0.7-4.2,1.2-6.4,1.7c-16.6,3.3-33.9,0.7-50.6-0.9c-9.6-0.9-19.3-1.8-28.9-2.8     c-2.3-0.2-4.6-0.4-6.8-0.7c-0.6-0.1-1.3-0.3-1.9-0.5c0.1,11.7,1.5,23.3,4.3,34.7c0.6,2.6,1.2,5.2,2.6,7.4c1.3,2,3.3,3.4,5.4,4.2     c2.4,1,5,1.6,7.5,2.2c2.9,0.7,5.8,1.3,8.7,1.8c11.5,2.1,23.2,2.7,34.8,2c5.8-0.4,11.7-1.1,17.4-2.1c2.9-0.5,5.7-1.2,8.5-1.8     c2.6-0.7,5.3-1.3,7.7-2.5C767.6,363.3,769,353.9,769.5,345.9z"
   class="st1" />
		</g>
	</g><path
     id="path35"
     d="M858.4,313.9c0.4,1.4,0.9,2.8,1.3,4.2c0.4,1.3,0.5,2.4,0.2,3.7c0,0.1-0.2,0.4,0,0.1c0,0.1-0.1,0.2-0.2,0.3   c-0.1,0.1-0.1,0.2-0.2,0.3c0.1-0.2,0.1-0.2,0,0c-0.1,0.1-0.2,0.2-0.2,0.2c-0.2,0.2,0.2-0.1,0,0c-0.2,0.1-0.4,0.3-0.6,0.4   c-0.1,0.1-0.2,0.1-0.3,0.2c0,0-0.4,0.2-0.2,0.1c0.2-0.1-0.2,0.1-0.2,0.1c-0.1,0.1-0.3,0.1-0.4,0.2c-0.7,0.3-1.3,0.5-2,0.8   c-0.9,0.4-1.1,1.8-0.7,2.6c0.6,1,1.6,1.1,2.6,0.7c0.6-0.2-0.3,0.1,0.2-0.1c0.2-0.1,0.3-0.1,0.5-0.2c0.3-0.1,0.6-0.2,0.9-0.3   c0.6-0.3,1.3-0.5,1.9-0.9c1.2-0.7,2.2-1.8,2.6-3.2c1.1-3.4-0.6-6.8-1.5-10c-0.3-1-1.3-1.6-2.3-1.3   C858.7,311.9,858.1,312.9,858.4,313.9L858.4,313.9z"
     class="st1" /><g
     id="g52">
		<g
   id="XMLID_1_">
			<g
   id="g49">
				<path
   id="path37"
   d="M323.8,448.8c-2.6,4.5-4.7,9.2-8.2,13c-0.4,0.5-0.8,1-1.4,1.3c-2.5,1.5-4.9,3.3-7.7,4.6      c-6.3,2.7-12.8,4.5-19.4,5.9c-4.5,0.9-9.3,0.7-14,0.8c-6,0-11.9-1.1-17.6-2.9c-3.6-1.1-7.3-1.7-10.9-2.9      c-3.9-1.3-7.8-2.8-11.6-4.5c-8.3-3.7-15.7-9-23.5-13.7c-1.1-0.6-2.2-1.4-3.3-2c-4-2.1-7.4-5-10.9-7.8c-4.6-3.6-8-8.2-11.9-12.5      c-1.2-1.3-1.7-3.2-2.6-4.8c0.1-0.1,0.2-0.1,0.4-0.2c0.2,0.3,0.4,0.5,0.6,0.8c1.9,2.5,3.7,5,5.6,7.5c0.7,0.9,1.6,1.7,2.5,2.4      c3.7,2.7,7.4,5.3,11.1,7.9c2.6,1.8,5.1,3.5,7.7,5.3c7.1,4.8,15,7.6,23,10.3c1.7,0.6,3.4,1.4,5.1,2.1c6.8,2.6,13.4,5.7,20.3,7.8      c6.5,2,13.3,3.2,20.1,2.6c4.8-0.4,9.6-1.3,14.3-2c0.8-0.1,1.6-0.3,2.4-0.4c2.4-0.1,4.7-0.7,6.9-1.9c0.7-0.4,1.5-0.5,2.3-0.8      c1.7-0.8,3.5-1.5,5.2-2.4c1.2-0.6,2.3-1.4,3.6-1.9c1.8-0.8,3.2-1.9,4.5-3.3c2.4-2.4,4.9-4.8,6.6-7.7      C323.4,449.3,323.6,449,323.8,448.8z"
   class="st4" />
				<path
   id="path39"
   d="M326.5,429.8c0,4.2-1.5,7.8-3.1,11.5c-1.5,3.4-3.2,6.6-5.6,9.3c-2.4,2.7-4.6,5.7-8.3,6.9      c-0.1,0-0.1,0.1-0.2,0.1c-3.1,2.1-6.5,3.3-9.9,4.7c-2.3,0.9-4.7,1.2-7.1,1.6c-4,0.7-7.9,1.4-11.9,2c-1.5,0.2-3,0.2-5.2,0.3      c-8-0.5-16.3-1.9-24.3-5.1c-8.6-3.4-16.9-7.3-25.7-10.2c-6.4-2.1-12.2-5.5-17.7-9.4c-5-3.5-10.1-6.9-14.9-10.6      c-2.3-1.8-4.1-4.4-5.9-6.7c-1.6-2-2.8-4.2-4.3-6.2c-4-5.4-2.9-14.2,1.6-17.7c2.5-2,4.9-4.1,7.4-6c0.9-0.7,2.2-0.7,2.8-2      c0.2-0.4,1.2-0.4,1.9-0.6c2.6-0.8,5.2-1.3,7.6-2.3c6.6-2.8,13.5-4.3,20.6-4.3c3.9,0,7.9-0.1,11.7-1.1c2.9-0.8,5.6-2.1,8.4-3      c1.9-0.7,4-1.2,5.9-1.8c0.9-0.3,1.9-0.7,2.8-1c0.7-0.2,1.5-0.3,2.3-0.3c3.3,0.3,6.6,0.8,9.9,1c6,0.3,11.9,1.2,17.7,2.8      c2.2,0.6,4.3,1.7,6.4,2.7c3.7,1.8,7.5,3.6,11.1,5.7c3.2,1.8,6.2,4,9.1,6.2c3.6,2.7,6.6,6.1,9.6,9.5c2.1,2.5,3.9,5.3,5,8.6      C325.6,419.1,326.5,424.4,326.5,429.8z M298.9,440.6c4.1-4,4.9-9.1,4.1-14.4c-1.1-7.1-5.5-12.6-10.2-17.7c-2-2.2-4.6-4-7-5.8      c-5.3-4.1-11.4-6.5-18-7.7c-3.4-0.6-6.8-1-10.1-1.7c-4.1-0.8-8.1-1.2-12.3-1.1c-2,0-4,0.4-6.1,0.2c-4.5-0.5-8.4,1.6-12.4,3.3      c-3.7,1.5-6.6,4.2-9.3,7.1c-4.2,4.3-4.7,9.7-3.8,15.2c0.5,2.9,2.2,5.3,4.1,7.5c4.2,4.6,8.8,8.8,14.3,11.9c2.7,1.5,5.4,2.9,8.3,4      c3.9,1.7,7.8,3.4,11.9,4.7c8.7,2.7,17.7,2.8,26.7,3.1c1.3,0,2.6,0.1,4,0c3.9-0.3,7.6-1.3,10.7-3.8      C295.6,443.9,297.2,442.2,298.9,440.6z"
   class="st4" />
				<path
   id="path41"
   d="M260.4,337.4c0.7,8.1-0.4,16.2-1.7,24.2c-0.4,2.6-1.6,5-2.5,7.5c-0.2,0.7-0.6,1.3-0.8,2      c-0.3,1.4-1.2,2.2-2.5,2.6c-1.4,0.4-2.9,0.7-4.3,1.1c-1.7,0.5-3.4,1.2-5.1,1.8c-3.4,1.2-6.7,2.8-10.2,3.5      c-3.3,0.7-6.7,0.8-10.1,0.8c-7.4,0.1-14.5,1.5-21.1,4.6c-3.2,1.5-6.7,1.9-10,2.8c-0.6,0.2-1.7-0.3-2.2-0.8      c-2.9-3.2-6-6.3-8.4-9.8c-7.3-10.5-13.3-21.6-17-33.9c-2.4-8.1-5-16.2-6.3-24.6c-0.6-4.1-0.8-8.4-1.1-12.5      c-0.2-3.4-0.1-6.7-0.3-10.1c-0.5-8.8,1.3-17.2,4.1-25.5c2.6-7.6,6.1-14.9,10.8-21.4c1.2-1.7,3-3.3,4.8-4.5      c5.6-3.6,11.6-6.4,18.1-7.7c3.3-0.7,6.7-0.6,10.1,0c3,0.6,6.1,0.9,9.1,1.3c4.9,0.6,8.8,3.2,12.6,6c6.5,4.8,11.7,10.9,15.9,17.8      c4.9,8.1,9.5,16.4,11.8,25.7c2.3,9.3,4,18.7,4.9,28.3c0.3,3.4,0.9,6.7,1.1,10.1C260.6,330.1,260.4,333.8,260.4,337.4z"
   class="st4" />
				<path
   id="path43"
   d="M327.5,442.4c-0.7,1.5-1.5,3.1-2.2,4.6c-0.1-0.1-0.2-0.1-0.3-0.2c0.8-1.5,1.5-3.1,2.3-4.6      C327.3,442.2,327.4,442.3,327.5,442.4z"
   class="st4" />
				<path
   id="path45"
   d="M325.3,447c0.7-1.5,1.5-3.1,2.2-4.6c-0.1-0.1-0.2-0.1-0.3-0.2c-0.8,1.5-1.5,3.1-2.3,4.6      C325.1,446.9,325.2,446.9,325.3,447z M323.8,448.8c-0.2,0.2-0.5,0.4-0.6,0.7c-1.8,3-4.2,5.3-6.6,7.7c-1.4,1.3-2.8,2.5-4.5,3.3      c-1.2,0.5-2.4,1.3-3.6,1.9c-1.7,0.8-3.5,1.6-5.2,2.4c-0.7,0.3-1.6,0.4-2.3,0.8c-2.2,1.2-4.4,1.8-6.9,1.9c-0.8,0-1.6,0.3-2.4,0.4      c-4.8,0.7-9.5,1.6-14.3,2c-6.8,0.6-13.6-0.6-20.1-2.6c-6.9-2.1-13.6-5.2-20.3-7.8c-1.7-0.7-3.4-1.5-5.1-2.1      c-8-2.7-15.9-5.5-23-10.3c-2.6-1.8-5.2-3.5-7.7-5.3c-3.7-2.6-7.5-5.2-11.1-7.9c-0.9-0.7-1.8-1.5-2.5-2.4c-1.9-2.5-3.7-5-5.6-7.5      c-0.2-0.3-0.4-0.5-0.6-0.8c-0.1,0.1-0.2,0.1-0.4,0.2c0.8,1.6,1.4,3.5,2.6,4.8c3.9,4.3,7.3,8.9,11.9,12.5      c3.5,2.8,6.9,5.7,10.9,7.8c1.1,0.6,2.2,1.3,3.3,2c7.8,4.7,15.2,9.9,23.5,13.7c3.8,1.7,7.7,3.2,11.6,4.5      c3.6,1.2,7.3,1.8,10.9,2.9c5.8,1.8,11.6,2.9,17.6,2.9c4.7,0,9.5,0.2,14-0.8c6.6-1.4,13.1-3.2,19.4-5.9c2.8-1.2,5.1-3,7.7-4.6      c0.5-0.3,0.9-0.9,1.4-1.3C319.1,458,321.3,453.3,323.8,448.8z M331.9,437.8c0.3,3.9-1.1,7.4-3.1,10.7c-2.2,3.8-4.3,7.7-6.7,11.3      c-1.9,2.8-4.1,5.5-7,7.6c-2.9,2.1-6.1,3.4-9.2,4.9c-2,1-4.2,1.5-6.4,2.1c-3.6,1-7.2,2.1-10.8,3c-1.6,0.4-3.3,0.5-5,0.6      c-5,0.1-10,0.4-15,0.2c-3.4-0.2-6.8-0.9-10.1-1.7c-5-1.2-10-2.5-14.9-4.1c-4.1-1.3-8.1-2.9-12.1-4.6c-7.4-3.2-14-7.8-20.9-12      c-2.4-1.5-4.7-3-7.2-4.3c-3.6-1.9-6.6-4.6-9.8-7c-5.1-3.8-8.9-8.9-13.1-13.6c-2.6-2.9-3.6-6.6-4.1-10.3      c-0.4-2.8-0.5-5.7-0.7-8.6c-0.3-6.4,1.6-12,6.9-16c1.8-1.4,3.5-3,5.4-4.5c-1-1.2-1.8-2.4-2.9-3.4c-4.7-4.4-8-9.9-11.5-15.3      c-9.4-14.5-14.2-30.7-18.2-47.3c-1.3-5.6-1.9-11.3-2-17c-0.1-5.7-0.2-11.4-0.3-17.1c-0.1-6.4,1.5-12.5,3.3-18.6      c2.5-8.3,6.2-16.1,10.8-23.4c2-3.1,4.4-5.7,7.6-7.7c5.4-3.2,11-5.9,17.1-7.5c4.6-1.2,9.2-1.3,13.9-0.4c3.4,0.7,6.9,0.8,10.3,1.4      c4.8,0.9,8.7,3.5,12.5,6.3c9,6.6,15.3,15.3,20.6,25c1.8,3.3,3.4,6.8,5.1,10.2c3.1,6.3,4.5,13.1,5.7,19.9      c1.4,7.9,2.3,16,3.5,23.9c1.3,8.5,0.9,17.1,0.8,25.6c0,3.8-0.7,7.6-1.3,11.3c-0.5,3.1-1,6.1-1.8,9.1c-0.6,2.3-1.8,4.5-2.6,6.8      c-0.1,0.3-0.2,0.5-0.4,1c3.3,0.2,6.4,0.3,9.5,0.7c4.5,0.6,9.1,1.4,13.6,2c3.4,0.5,6.4,2.1,9.5,3.6c3.8,1.9,7.7,3.7,11.4,5.9      c3.4,2,6.5,4.3,9.7,6.6c3.7,2.8,6.8,6.2,9.8,9.7c2.5,2.9,4.5,6.2,5.8,9.9c1.6,4.6,2.3,9.3,3,14C331,430.3,331.6,434,331.9,437.8      z M323.4,441.2c1.6-3.7,3.1-7.3,3.1-11.5c0-5.4-0.8-10.6-2.6-15.8c-1.1-3.2-2.8-6.1-5-8.6c-2.9-3.4-5.9-6.8-9.6-9.5      c-2.9-2.2-5.9-4.4-9.1-6.2c-3.6-2.1-7.3-3.9-11.1-5.7c-2.1-1-4.2-2.1-6.4-2.7c-5.8-1.6-11.7-2.4-17.7-2.8      c-3.3-0.2-6.6-0.7-9.9-1c-0.8-0.1-1.5,0.1-2.3,0.3c-1,0.3-1.9,0.7-2.8,1c-2,0.6-4,1.1-5.9,1.8c-2.8,1-5.6,2.2-8.4,3      c-3.8,1-7.7,1-11.7,1.1c-7.1,0.1-14,1.5-20.6,4.3c-2.4,1-5.1,1.6-7.6,2.3c-0.6,0.2-1.7,0.2-1.9,0.6c-0.6,1.3-1.9,1.3-2.8,2      c-2.5,2-4.9,4.1-7.4,6c-4.5,3.6-5.6,12.3-1.6,17.7c1.5,2,2.7,4.2,4.3,6.2c1.9,2.3,3.6,4.9,5.9,6.7c4.8,3.8,9.9,7.1,14.9,10.6      c5.5,3.9,11.3,7.3,17.7,9.4c8.8,2.9,17.1,6.8,25.7,10.2c8.1,3.2,16.4,4.6,24.3,5.1c2.1-0.1,3.7-0.1,5.2-0.3      c4-0.6,7.9-1.4,11.9-2c2.4-0.4,4.7-0.7,7.1-1.6c3.4-1.4,6.8-2.6,9.9-4.7c0.1,0,0.1-0.1,0.2-0.1c3.7-1.2,5.9-4.2,8.3-6.9      C320.1,447.8,321.9,444.6,323.4,441.2z M258.7,361.5c1.3-8,2.4-16,1.7-24.2c0-3.6,0.2-7.2,0-10.8c-0.2-3.4-0.8-6.7-1.1-10.1      c-0.9-9.6-2.6-19-4.9-28.3c-2.3-9.3-6.9-17.6-11.8-25.7c-4.2-6.9-9.3-13-15.9-17.8c-3.8-2.8-7.7-5.4-12.6-6      c-3.1-0.3-6.1-0.7-9.1-1.3c-3.4-0.6-6.8-0.7-10.1,0c-6.5,1.3-12.5,4.1-18.1,7.7c-1.8,1.2-3.5,2.7-4.8,4.5      c-4.7,6.6-8.2,13.8-10.8,21.4c-2.8,8.3-4.6,16.7-4.1,25.5c0.2,3.4,0.1,6.7,0.3,10.1c0.3,4.2,0.4,8.4,1.1,12.5      c1.2,8.4,3.8,16.5,6.3,24.6c3.7,12.3,9.7,23.5,17,33.9c2.5,3.5,5.5,6.6,8.4,9.8c0.5,0.5,1.6,1,2.2,0.8c3.3-1,6.8-1.3,10-2.8      c6.7-3.1,13.8-4.5,21.1-4.6c3.4-0.1,6.8-0.1,10.1-0.8c3.5-0.8,6.8-2.3,10.2-3.5c1.7-0.6,3.3-1.2,5.1-1.8      c1.4-0.4,2.8-0.7,4.3-1.1c1.3-0.4,2.2-1.2,2.5-2.6c0.1-0.7,0.5-1.3,0.8-2C257.1,366.5,258.3,364.1,258.7,361.5z" />
				<path
   id="path47"
   d="M303,426.2c0.8,5.3,0,10.4-4.1,14.4c-1.6,1.6-3.3,3.3-5.1,4.7c-3.1,2.5-6.8,3.5-10.7,3.8c-1.3,0.1-2.6,0-4,0      c-9-0.3-18-0.5-26.7-3.1c-4.1-1.3-8-3-11.9-4.7c-2.8-1.2-5.6-2.5-8.3-4c-5.5-3.1-10.1-7.3-14.3-11.9c-1.9-2.1-3.6-4.6-4.1-7.5      c-0.9-5.5-0.4-10.9,3.8-15.2c2.7-2.8,5.6-5.6,9.3-7.1c4-1.6,7.9-3.7,12.4-3.3c2.1,0.2,4.1-0.1,6.1-0.2c4.1-0.1,8.2,0.3,12.3,1.1      c3.4,0.7,6.8,1,10.1,1.7c6.6,1.2,12.6,3.6,18,7.7c2.4,1.9,5,3.6,7,5.8C297.4,413.6,301.9,419.1,303,426.2z M299,432.9      c0.9-4.8,0-9.2-2.6-13.3c-3.4-5.5-7.6-10.2-13-13.9c-4.9-3.4-10.1-5.7-15.9-6.9c-3.4-0.7-6.9-1-10.3-1.7      c-4.3-0.9-8.6-1.2-13-1.1c-1.5,0-2.9,0-4.4,0c-2.1,0.1-4,0.4-6,1c-5,1.4-9.2,3.9-12.8,7.6c-1.7,1.8-3.1,3.8-3.5,6.3      c-0.2,1.5-0.2,3-0.1,4.4c0.1,1.1,0.3,2.2,0.8,3.2c1.3,3.1,3.8,5.3,6,7.6c3.9,4,8.5,7.1,13.4,9.6c1.7,0.9,3.4,1.6,5.1,2.3      c3.6,1.4,7.2,3.1,10.9,4.2c8.3,2.5,16.8,2.7,25.4,2.9c0.8,0,1.5,0,2.3,0c4.7,0.1,8.7-1.3,12-4.8c0.7-0.7,1.5-1.4,2.2-2.1      C297.1,436.9,298.6,435.2,299,432.9z" />
			</g>
		</g>
	</g><path
     id="path54"
     d="M206.9,459.4c-1.3-0.7-2.7-1.1-4.2-1.3c-0.7-0.1-1.3-0.1-2-0.1c-0.8,0.1-1.6,0.1-2.3,0.6   c-0.7,0.5-1.1,1.3-1.1,2.1c-0.1,0.3-0.1,0.7,0.1,1c0,0,0,0,0,0c0.1,0.3,0.2,0.6,0.4,0.8c0.1,0.2,0.3,0.4,0.4,0.5   c-7.7,6.2-13.1,15.2-14.9,24.9c-0.3,1.6,2.1,2.2,2.4,0.7c1.7-9.3,6.8-17.8,14.1-23.7c0.5,0.5,1,1.1,1.6,1.5c0.5,0.4,1.3,0.5,1.8,0   c1.6-1.6,3-3.4,4.2-5.3C207.7,460.5,207.5,459.7,206.9,459.4z M203,462.5c0.1,0,0.2,0.1,0.3,0.1c-0.1,0.1-0.2,0.2-0.3,0.3   C203,462.8,203,462.7,203,462.5z M200.1,460.6c0,0.2,0,0.5,0.1,0.7c0,0,0,0.1,0,0.1c0,0,0,0.1,0,0.1c0,0,0,0,0,0   c-0.2-0.2-0.3-0.5-0.5-0.8c0,0,0,0,0,0C199.9,460.7,200,460.6,200.1,460.6C200.1,460.6,200.1,460.6,200.1,460.6z"
     class="st1" /><path
     id="path56"
     d="M528.7,158.2c-1.2-1.6-3.2-1.9-4.8-0.8c-0.3,0.2-0.5,0.3-0.7,0.5c-7.4-8.9-11-20.6-9.8-32.1   c0.2-1.6-2.3-1.6-2.5,0c-1.2,11.9,2.5,24.1,10.1,33.3c-0.1,0.1-0.2,0.2-0.2,0.4c0,0,0,0-0.1,0.1c0,0-0.1,0.1-0.1,0.1   c-0.1,0-0.1,0-0.2,0c-0.7,0-1.3,0.6-1.3,1.3c0,0.4,0.2,0.7,0.4,0.9c0,0.1,0.1,0.2,0.2,0.3c1.3,1.6,3.1,2.8,5.1,3.5   c1,0.3,2.2,0.6,3.2,0.3c1.3-0.3,1.8-1.6,1.8-2.9C529.9,161.4,529.7,159.5,528.7,158.2z"
     class="st1" /><path
     id="path58"
     d="M839,345.9c0.3-1.1-0.2-2.1-0.9-3c-1.4-1.9-2.8-3.9-4.2-5.8c-0.4-0.6-1.2-0.7-1.8-0.4c0,0-0.1,0-0.1-0.1   c-0.6-0.2-1.4,0.2-1.5,0.9c-0.4,2.1-0.9,4.2-1.3,6.2c-0.2,0.9-0.5,2-0.2,2.9c0.3,1,1.2,1.6,2.2,1.8c1,0.2,2,0.2,3,0.1   c3.2,13.6,2.6,27.9-1.8,41.2c-0.5,1.5,1.9,2.2,2.4,0.7c4.5-13.7,5.1-28.5,1.8-42.5c0.2-0.1,0.4-0.1,0.5-0.2   C837.9,347.4,838.8,346.8,839,345.9z"
     class="st1" /><g
     transform="matrix(1.2399571,0,0,1.2399571,-30.760451,-124.56615)"
     id="text954"
     style="font-style:normal;font-weight:normal;font-size:25.1276207px;line-height:1.25;font-family:sans-serif;letter-spacing:0px;word-spacing:0px;fill:#000000;fill-opacity:1;stroke:none;stroke-width:0.80647951"
     aria-label="SIEGE DE TOILETTES"><path
       id="path1034"
       style="font-style:normal;font-variant:normal;font-weight:normal;font-stretch:normal;font-family:PreciousPlastic;-inkscape-font-specification:PreciousPlastic;stroke-width:0.80647951"
       d="m 128.19151,518.21377 q 0,-0.4523 0.30153,-0.67845 0.32666,-0.25127 1.73381,-0.5528 1.13074,-0.25128 1.7338,-1.10562 0.60307,-0.85434 0.60307,-1.93483 0,-0.67844 -0.10051,-1.18099 -0.10051,-0.50256 -0.30153,-0.9046 -0.20103,-0.42717 -0.55281,-0.82921 -0.32666,-0.40204 -0.77896,-0.85434 -0.37691,-0.37691 -0.67844,-0.65332 -0.27641,-0.2764 -0.4523,-0.45229 -0.57794,-0.57794 -1.00511,-1.25639 -0.42717,-0.70357 -0.42717,-1.53278 0,-0.62819 0.27641,-1.25638 0.2764,-0.62819 0.7287,-1.13074 0.4523,-0.52768 1.05536,-0.82922 0.60306,-0.32666 1.23125,-0.32666 0.85434,0 0.85434,0.80409 0,0.40204 -0.15076,0.52768 -0.12564,0.12564 -0.7287,0.35179 -0.65332,0.25127 -1.08049,0.7287 -0.42717,0.45229 -0.42717,1.18099 0,0.1759 0.0502,0.35179 0.0503,0.17589 0.10051,0.30153 0,0.0251 0.22615,0.27641 0.25128,0.25127 0.55281,0.5528 0.30153,0.30154 0.60306,0.57794 0.30153,0.2764 0.40204,0.40204 l 0.32666,0.30153 q 0.37692,0.35179 0.62819,0.60307 0.25128,0.25127 0.32666,0.37691 0.47743,0.85434 0.80409,1.78406 0.35178,0.92972 0.35178,2.13585 0,1.30664 -0.7287,2.51276 -0.70357,1.181 -1.83431,1.83432 -0.1759,0.0754 -0.55281,0.20102 -0.37692,0.12564 -0.80408,0.25127 -0.40205,0.10052 -0.80409,0.20103 -0.40204,0.0754 -0.62819,0.0754 -0.85434,0 -0.85434,-0.85434 z" /><path
       id="path1036"
       style="font-style:normal;font-variant:normal;font-weight:normal;font-stretch:normal;font-family:PreciousPlastic;-inkscape-font-specification:PreciousPlastic;stroke-width:0.80647951"
       d="m 135.90567,505.27304 q 0,-1.60816 0.87947,-1.60816 0.32666,0 0.62819,0.30153 l 0.30153,0.30153 0.0251,1.43227 q 0.0251,1.20613 0.0503,2.46251 0.0251,1.25638 0.0754,2.46251 0.0502,1.23125 0.0502,2.43738 0.0251,1.20612 0.0503,2.48763 0.0251,0.97998 0.0251,1.53279 0.0251,0.5528 0.0251,0.57793 0,0.22615 -0.0251,0.47743 0,0.22615 -0.10051,0.45229 -0.0754,0.20102 -0.25127,0.35179 -0.1759,0.12564 -0.52768,0.12564 -0.27641,0 -0.50256,-0.17589 -0.20102,-0.20103 -0.30153,-0.47743 -0.0754,-0.25128 -0.12563,-2.01021 -0.0251,-1.75893 -0.12564,-4.84963 l -0.0251,-0.77896 q -0.0251,-0.65331 -0.0251,-1.20612 0,-0.55281 -0.0251,-1.05536 -0.0503,-1.30664 -0.0503,-2.03534 0,-0.75383 -0.0251,-0.87947 z" /><path
       id="path1038"
       style="font-style:normal;font-variant:normal;font-weight:normal;font-stretch:normal;font-family:PreciousPlastic;-inkscape-font-specification:PreciousPlastic;stroke-width:0.80647951"
       d="m 139.44862,505.85098 q 0,-2.03534 0.10051,-2.23636 0.27641,-0.42717 0.70358,-0.47742 0.42717,-0.0754 1.181,-0.0754 h 0.17589 q 0.15076,-0.0251 0.32666,-0.0251 0.17589,0 0.37691,0 h 0.40204 q 0.27641,0 0.55281,0.0251 0.27641,0 0.47743,0.10051 0.22614,0.10052 0.35178,0.30154 0.15077,0.20102 0.15077,0.5528 h 0.0503 q -0.17589,0.30154 -0.50255,0.47743 -0.32666,0.17589 -0.70357,0.25127 -0.37692,0.0754 -0.77896,0.10052 -0.37691,0 -0.70357,0 -0.10051,0 -0.20102,0.0251 -0.10051,0 -0.20102,0 l 0.0251,2.48764 q 0.0251,1.05536 0.0503,1.80919 0.0251,0.7287 0.0251,1.10561 v 0.22615 q 1.20612,0.0251 1.20612,0.87947 0,0.52768 -0.37691,0.75383 -0.35179,0.20102 -0.77896,0.22614 v 0.40205 q -0.0251,0.12563 -0.0251,0.2764 0,0.12564 0,0.32666 0,0.60306 0,1.25638 0.0251,0.62819 0.0754,1.35689 0.0251,0.2764 0,0.52768 0,0.25128 0.0503,0.40204 0.0251,0.0754 0.0251,0.22615 0.12564,0.0251 0.30153,0.0503 0.20102,0 0.47743,0 1.15587,0 1.50765,0.15076 0.37692,0.15077 0.37692,0.65332 v 0.0503 q 0,0.2764 -0.37692,0.95485 l -1.75893,-0.0251 h -0.22615 q -0.67844,0 -1.03023,0 -0.35179,-0.0251 -0.55281,-0.0754 -0.17589,-0.0503 -0.25127,-0.1759 -0.0754,-0.15076 -0.1759,-0.37691 -0.0503,-0.12564 -0.10051,-1.00511 -0.0251,-0.87946 -0.0754,-2.13585 -0.0251,-1.2815 -0.0754,-2.76403 -0.0251,-1.48253 -0.0503,-2.8143 0,-1.35689 -0.0251,-2.38712 0,-1.03023 0,-1.38202 z" /><path
       id="path1040"
       style="font-style:normal;font-variant:normal;font-weight:normal;font-stretch:normal;font-family:PreciousPlastic;-inkscape-font-specification:PreciousPlastic;stroke-width:0.80647951"
       d="m 145.83103,510.3237 q 0,-0.87947 0.0754,-1.75894 0.0754,-0.87946 0.2764,-1.70868 0.22615,-0.82921 0.60306,-1.60816 0.40205,-0.80409 1.03024,-1.50766 0.57793,-0.65332 1.40714,-1.10562 0.82922,-0.45229 1.70868,-0.45229 0.35179,0 0.75383,0.20102 0.40204,0.17589 0.40204,0.67844 0,0.4523 -0.35178,0.67845 -0.35179,0.20102 -0.70358,0.25128 -0.67844,0.0754 -1.181,0.37691 -0.47742,0.30153 -0.85433,0.77896 -0.35179,0.47742 -0.6282,1.05536 -0.25127,0.57793 -0.47742,1.20612 -0.25128,0.7287 -0.25128,2.96506 0,0.87947 0.0754,2.03534 0.0754,1.15587 0.37691,2.21123 0.32666,1.03023 0.97998,1.75893 0.67844,0.70358 1.85944,0.70358 h 0.10051 q 0.25128,-0.12564 0.47743,-0.32666 0.25127,-0.22615 0.37691,-0.50256 0.0754,-0.32665 0.12564,-0.97997 0.0503,-0.67845 0.0503,-1.73381 v -0.77895 h -0.0754 q -0.20102,0 -0.42717,-0.0251 -0.22615,-0.0251 -0.42717,-0.10051 -0.20102,-0.10051 -0.32666,-0.27641 -0.12563,-0.17589 -0.12563,-0.47742 0,-0.35179 0.15076,-0.52768 0.1759,-0.20102 0.40204,-0.2764 0.25128,-0.10052 0.50256,-0.10052 0.2764,-0.0251 0.47742,-0.0251 0.97998,0 1.20613,0.25127 0.42717,0.47743 0.42717,1.53279 0,0.22615 0,0.4523 0.0251,0.20102 0,0.40204 -0.0251,0.20102 -0.0251,0.37691 0,0.15077 0,0.32666 0,0.97998 -0.0251,1.58304 -0.0251,0.57794 -0.0754,0.77896 -0.10051,0.47742 -0.40204,0.90459 -0.30154,0.42717 -0.7287,0.75383 -0.40205,0.30153 -0.9046,0.47742 -0.47742,0.1759 -0.95485,0.1759 -0.37691,0 -0.82921,-0.12564 -0.4523,-0.12564 -0.90459,-0.32666 -0.42717,-0.20102 -0.80409,-0.47742 -0.37691,-0.27641 -0.65332,-0.60307 -0.60306,-0.7287 -0.95485,-1.58304 -0.32666,-0.87946 -0.50255,-1.80919 -0.15076,-0.92972 -0.20102,-1.88457 -0.0503,-0.95485 -0.0503,-1.83431 z" /><path
       id="path1042"
       style="font-style:normal;font-variant:normal;font-weight:normal;font-stretch:normal;font-family:PreciousPlastic;-inkscape-font-specification:PreciousPlastic;stroke-width:0.80647951"
       d="m 155.35439,505.85098 q 0,-2.03534 0.10051,-2.23636 0.27641,-0.42717 0.70358,-0.47742 0.42716,-0.0754 1.18099,-0.0754 h 0.1759 q 0.15076,-0.0251 0.32666,-0.0251 0.17589,0 0.37691,0 h 0.40204 q 0.27641,0 0.55281,0.0251 0.2764,0 0.47742,0.10051 0.22615,0.10052 0.35179,0.30154 0.15077,0.20102 0.15077,0.5528 h 0.0503 q -0.17589,0.30154 -0.50255,0.47743 -0.32666,0.17589 -0.70357,0.25127 -0.37692,0.0754 -0.77896,0.10052 -0.37691,0 -0.70357,0 -0.10051,0 -0.20102,0.0251 -0.10051,0 -0.20103,0 l 0.0251,2.48764 q 0.0251,1.05536 0.0503,1.80919 0.0251,0.7287 0.0251,1.10561 v 0.22615 q 1.20612,0.0251 1.20612,0.87947 0,0.52768 -0.37691,0.75383 -0.35179,0.20102 -0.77896,0.22614 v 0.40205 q -0.0251,0.12563 -0.0251,0.2764 0,0.12564 0,0.32666 0,0.60306 0,1.25638 0.0251,0.62819 0.0754,1.35689 0.0251,0.2764 0,0.52768 0,0.25128 0.0503,0.40204 0.0251,0.0754 0.0251,0.22615 0.12564,0.0251 0.30153,0.0503 0.20102,0 0.47742,0 1.15588,0 1.50766,0.15076 0.37692,0.15077 0.37692,0.65332 v 0.0503 q 0,0.2764 -0.37692,0.95485 l -1.75893,-0.0251 h -0.22615 q -0.67845,0 -1.03023,0 -0.35179,-0.0251 -0.55281,-0.0754 -0.17589,-0.0503 -0.25128,-0.1759 -0.0754,-0.15076 -0.17589,-0.37691 -0.0503,-0.12564 -0.10051,-1.00511 -0.0251,-0.87946 -0.0754,-2.13585 -0.0251,-1.2815 -0.0754,-2.76403 -0.0251,-1.48253 -0.0502,-2.8143 0,-1.35689 -0.0251,-2.38712 0,-1.03023 0,-1.38202 z" /><path
       id="path1044"
       style="font-style:normal;font-variant:normal;font-weight:normal;font-stretch:normal;font-family:PreciousPlastic;-inkscape-font-specification:PreciousPlastic;stroke-width:0.80647951"
       d="m 169.30016,502.6849 q 1.43227,0 2.58814,0.7287 1.15587,0.7287 1.95996,1.85944 0.50255,0.77896 0.80408,1.6333 0.32666,0.82921 0.50255,1.70868 0.1759,0.85434 0.22615,1.75893 0.0503,0.9046 0.0503,1.80919 0,0.80408 -0.0251,1.35689 -0.0251,0.52768 -0.0754,0.77896 -0.25128,1.05536 -0.70358,1.93482 -0.42717,0.87947 -1.08048,1.50766 -0.65332,0.60307 -1.53279,0.95485 -0.87947,0.35179 -2.01021,0.35179 h -0.17589 q -1.05536,-0.0251 -1.25638,-0.80409 -0.0754,-0.30153 -0.10051,-1.08048 -0.0251,-0.77896 -0.0754,-1.98509 -0.0251,-0.80408 -0.0502,-1.80918 0,-1.00511 -0.12564,-2.21123 -0.0251,-0.40205 -0.0754,-1.60817 0,-0.80409 -0.0251,-1.60817 -0.0251,-0.80408 -0.0754,-1.60817 -0.0754,-1.55791 -0.0754,-2.23636 0,-0.45229 0.0503,-0.7287 0.0503,-0.2764 0.17589,-0.42717 0.15077,-0.17589 0.40204,-0.22615 0.27641,-0.0502 0.70358,-0.0502 z m 0.40204,1.93483 q 0.12564,0.67844 0.15077,2.26148 0.0251,0.77896 0.0503,1.70868 0.0251,0.90459 0.0503,1.95996 0.0251,1.05536 0.0251,1.63329 0.0251,0.57794 0.0251,0.70357 0.0503,1.50766 0.12564,2.61328 0.0754,1.10561 0.15077,1.75893 1.2815,-0.32666 2.03533,-1.03023 0.77896,-0.7287 1.181,-2.01021 0.15077,-0.50255 0.15077,-2.18611 0,-1.03023 -0.1759,-2.23635 -0.15076,-1.23126 -0.60306,-2.31174 -0.42717,-1.10562 -1.20613,-1.9097 -0.75382,-0.82922 -1.98508,-1.08049 0,0.0502 0,0.0754 0.0251,0.0251 0.0251,0.0503 z" /><path
       id="path1046"
       style="font-style:normal;font-variant:normal;font-weight:normal;font-stretch:normal;font-family:PreciousPlastic;-inkscape-font-specification:PreciousPlastic;stroke-width:0.80647951"
       d="m 176.93895,505.85098 q 0,-2.03534 0.10051,-2.23636 0.27641,-0.42717 0.70358,-0.47742 0.42717,-0.0754 1.18099,-0.0754 h 0.1759 q 0.15076,-0.0251 0.32666,-0.0251 0.17589,0 0.37691,0 h 0.40204 q 0.27641,0 0.55281,0.0251 0.2764,0 0.47742,0.10051 0.22615,0.10052 0.35179,0.30154 0.15077,0.20102 0.15077,0.5528 h 0.0503 q -0.17589,0.30154 -0.50255,0.47743 -0.32666,0.17589 -0.70357,0.25127 -0.37692,0.0754 -0.77896,0.10052 -0.37691,0 -0.70357,0 -0.10051,0 -0.20102,0.0251 -0.10051,0 -0.20102,0 l 0.0251,2.48764 q 0.0251,1.05536 0.0503,1.80919 0.0251,0.7287 0.0251,1.10561 v 0.22615 q 1.20612,0.0251 1.20612,0.87947 0,0.52768 -0.37691,0.75383 -0.35179,0.20102 -0.77896,0.22614 v 0.40205 q -0.0251,0.12563 -0.0251,0.2764 0,0.12564 0,0.32666 0,0.60306 0,1.25638 0.0251,0.62819 0.0754,1.35689 0.0251,0.2764 0,0.52768 0,0.25128 0.0503,0.40204 0.0251,0.0754 0.0251,0.22615 0.12564,0.0251 0.30153,0.0503 0.20102,0 0.47743,0 1.15587,0 1.50765,0.15076 0.37692,0.15077 0.37692,0.65332 v 0.0503 q 0,0.2764 -0.37692,0.95485 l -1.75893,-0.0251 h -0.22615 q -0.67845,0 -1.03023,0 -0.35179,-0.0251 -0.55281,-0.0754 -0.17589,-0.0503 -0.25128,-0.1759 -0.0754,-0.15076 -0.17589,-0.37691 -0.0503,-0.12564 -0.10051,-1.00511 -0.0251,-0.87946 -0.0754,-2.13585 -0.0251,-1.2815 -0.0754,-2.76403 -0.0251,-1.48253 -0.0503,-2.8143 0,-1.35689 -0.0251,-2.38712 0,-1.03023 0,-1.38202 z" /><path
       id="path1048"
       style="font-style:normal;font-variant:normal;font-weight:normal;font-stretch:normal;font-family:PreciousPlastic;-inkscape-font-specification:PreciousPlastic;stroke-width:0.80647951"
       d="m 189.67859,504.51922 q 0,-0.65332 0.60307,-0.80409 0.22614,-0.0503 1.2815,-0.0251 1.05536,0 2.71379,-0.15076 0.20102,-0.0251 0.45229,-0.0251 0.27641,0 0.50256,0 h 0.50255 q 0.47742,0 0.85434,0.12564 0.40204,0.12564 0.40204,0.70357 v 0.0754 q 0,0.22614 -0.17589,0.42717 -0.1759,0.20102 -0.40205,0.32665 -0.10051,0.0503 -0.40204,0.10051 -0.2764,0.0251 -0.60306,0.0503 -0.32666,0 -0.62819,0.0251 -0.30153,0 -0.4523,0 h -0.15076 v 6.33216 q 0,3.31684 -0.0754,5.20142 -0.0502,1.85944 -0.17589,2.06046 -0.0754,0.12564 -0.22615,0.15077 -0.15076,0.0251 -0.40204,0.0251 -0.15077,0 -0.32666,0 -0.15077,-0.0251 -0.2764,-0.12563 -0.20102,-0.22615 -0.27641,-0.47743 -0.0754,-0.2764 -0.0754,-0.60306 0,-0.35179 0.0251,-0.77896 0.0251,-0.4523 0.0251,-1.05536 0,-0.85434 0,-1.65842 0.0251,-0.82921 0.0251,-1.65842 -0.0251,-0.80409 -0.0251,-1.58304 0.0251,-0.77896 0.0251,-1.55792 l 0.0251,-4.22144 h -0.70357 q -0.62819,0 -1.03024,-0.0251 -0.37691,-0.0251 -0.5528,-0.12564 -0.47743,-0.25128 -0.47743,-0.7287 z" /><path
       id="path1050"
       style="font-style:normal;font-variant:normal;font-weight:normal;font-stretch:normal;font-family:PreciousPlastic;-inkscape-font-specification:PreciousPlastic;stroke-width:0.80647951"
       d="m 198.6994,507.05711 q 0.0754,-0.87947 0.35179,-1.6333 0.30153,-0.77896 0.77895,-1.33176 0.50256,-0.57794 1.20613,-0.9046 0.7287,-0.32666 1.65842,-0.32666 1.10562,0 1.88458,0.50256 0.77895,0.50255 1.2815,1.2815 0.50256,0.77896 0.75383,1.75894 0.27641,0.95485 0.37692,1.85944 0.0503,0.50255 0.0754,1.30664 0.0251,0.77895 0.0503,1.83431 0,0.82922 -0.0503,1.75894 -0.0251,0.92972 -0.20102,1.83431 -0.17589,0.9046 -0.55281,1.73381 -0.37691,0.80408 -1.03023,1.40715 -0.97998,0.90459 -2.362,0.90459 -1.28151,0 -2.11072,-0.7287 -0.82921,-0.7287 -1.30663,-1.80919 -0.47743,-1.08049 -0.65332,-2.31174 -0.1759,-1.23125 -0.1759,-2.23636 0,-0.50255 -0.0503,-0.97998 -0.0503,-0.47742 -0.0503,-0.97997 0,-0.87947 0.0251,-1.60817 0.0503,-0.75383 0.10051,-1.33176 z m 1.68355,2.68865 q 0,0.65332 0.0503,1.78406 0.0503,1.10562 0.22615,2.23636 0.20102,1.13074 0.52768,2.08559 0.35178,0.92972 0.92972,1.20613 0.20102,0.10051 0.7287,0.10051 0.90459,0 1.40715,-0.62819 0.50255,-0.62819 0.75382,-1.53279 0.25128,-0.90459 0.30154,-1.88457 0.0502,-1.0051 0.0502,-1.70868 l -0.0502,-0.35178 h 0.0251 q -0.0251,-0.20102 -0.0503,-0.4523 0,-0.2764 0,-0.62819 0,-0.65332 -0.10051,-1.55791 -0.0754,-0.92972 -0.37692,-1.78406 -0.2764,-0.85434 -0.80408,-1.43228 -0.50255,-0.60306 -1.38202,-0.60306 -0.4523,0 -0.80408,0.20102 -0.32666,0.20102 -0.60307,0.52768 -0.25127,0.32666 -0.42717,0.7287 -0.17589,0.40204 -0.25127,0.80408 -0.15077,0.70358 -0.15077,2.88968 z" /><path
       id="path1052"
       style="font-style:normal;font-variant:normal;font-weight:normal;font-stretch:normal;font-family:PreciousPlastic;-inkscape-font-specification:PreciousPlastic;stroke-width:0.80647951"
       d="m 208.62479,505.27304 q 0,-1.60816 0.87947,-1.60816 0.32666,0 0.62819,0.30153 l 0.30153,0.30153 0.0251,1.43227 q 0.0251,1.20613 0.0502,2.46251 0.0251,1.25638 0.0754,2.46251 0.0502,1.23125 0.0502,2.43738 0.0251,1.20612 0.0503,2.48763 0.0251,0.97998 0.0251,1.53279 0.0251,0.5528 0.0251,0.57793 0,0.22615 -0.0251,0.47743 0,0.22615 -0.10052,0.45229 -0.0754,0.20102 -0.25127,0.35179 -0.17589,0.12564 -0.52768,0.12564 -0.27641,0 -0.50255,-0.17589 -0.20102,-0.20103 -0.30154,-0.47743 -0.0754,-0.25128 -0.12563,-2.01021 -0.0251,-1.75893 -0.12564,-4.84963 l -0.0251,-0.77896 q -0.0251,-0.65331 -0.0251,-1.20612 0,-0.55281 -0.0251,-1.05536 -0.0503,-1.30664 -0.0503,-2.03534 0,-0.75383 -0.0251,-0.87947 z" /><path
       id="path1054"
       style="font-style:normal;font-variant:normal;font-weight:normal;font-stretch:normal;font-family:PreciousPlastic;-inkscape-font-specification:PreciousPlastic;stroke-width:0.80647951"
       d="m 212.16774,510.1478 q 0,-3.06557 0.0503,-4.67373 0.0503,-1.60817 0.17589,-1.73381 0.25128,-0.25128 0.50255,-0.25128 0.57794,0 0.82921,0.67845 0.0503,0.2764 0.0754,1.55791 0.0503,1.28151 0.0754,3.49274 0.0251,1.95996 0.0251,3.49274 0,1.53279 0,2.58815 0,1.53278 -0.10051,1.90969 0.35178,0 0.67844,0.0251 0.35179,0.0251 0.67845,0.10051 v -0.22615 q 0.75383,0.75383 0.75383,1.08049 0,0.4523 -0.35179,0.67845 -0.35179,0.22615 -0.70357,0.22615 -0.10051,0 -0.40204,0 -0.27641,-0.0251 -0.60307,-0.0503 -0.32666,-0.0251 -0.60306,-0.0502 -0.25128,-0.0251 -0.30153,-0.0503 -0.50255,-0.30153 -0.67845,-1.15587 -0.10051,-0.42717 -0.10051,-7.6388 z" /><path
       id="path1056"
       style="font-style:normal;font-variant:normal;font-weight:normal;font-stretch:normal;font-family:PreciousPlastic;-inkscape-font-specification:PreciousPlastic;stroke-width:0.80647951"
       d="m 217.41941,505.85098 q 0,-2.03534 0.10051,-2.23636 0.2764,-0.42717 0.70357,-0.47742 0.42717,-0.0754 1.181,-0.0754 h 0.17589 q 0.15077,-0.0251 0.32666,-0.0251 0.17589,0 0.37691,0 h 0.40205 q 0.2764,0 0.5528,0.0251 0.27641,0 0.47743,0.10051 0.22615,0.10052 0.35179,0.30154 0.15076,0.20102 0.15076,0.5528 h 0.0503 q -0.1759,0.30154 -0.50256,0.47743 -0.32666,0.17589 -0.70357,0.25127 -0.37691,0.0754 -0.77896,0.10052 -0.37691,0 -0.70357,0 -0.10051,0 -0.20102,0.0251 -0.10051,0 -0.20102,0 l 0.0251,2.48764 q 0.0251,1.05536 0.0502,1.80919 0.0251,0.7287 0.0251,1.10561 v 0.22615 q 1.20613,0.0251 1.20613,0.87947 0,0.52768 -0.37692,0.75383 -0.35179,0.20102 -0.77896,0.22614 v 0.40205 q -0.0251,0.12563 -0.0251,0.2764 0,0.12564 0,0.32666 0,0.60306 0,1.25638 0.0251,0.62819 0.0754,1.35689 0.0251,0.2764 0,0.52768 0,0.25128 0.0503,0.40204 0.0251,0.0754 0.0251,0.22615 0.12564,0.0251 0.30153,0.0503 0.20103,0 0.47743,0 1.15587,0 1.50766,0.15076 0.37691,0.15077 0.37691,0.65332 v 0.0503 q 0,0.2764 -0.37691,0.95485 l -1.75894,-0.0251 h -0.22615 q -0.67844,0 -1.03023,0 -0.35179,-0.0251 -0.55281,-0.0754 -0.17589,-0.0503 -0.25127,-0.1759 -0.0754,-0.15076 -0.1759,-0.37691 -0.0503,-0.12564 -0.10051,-1.00511 -0.0251,-0.87946 -0.0754,-2.13585 -0.0251,-1.2815 -0.0754,-2.76403 -0.0251,-1.48253 -0.0503,-2.8143 0,-1.35689 -0.0251,-2.38712 0,-1.03023 0,-1.38202 z" /><path
       id="path1058"
       style="font-style:normal;font-variant:normal;font-weight:normal;font-stretch:normal;font-family:PreciousPlastic;-inkscape-font-specification:PreciousPlastic;stroke-width:0.80647951"
       d="m 223.87719,504.51922 q 0,-0.65332 0.60307,-0.80409 0.22614,-0.0503 1.2815,-0.0251 1.05536,0 2.71379,-0.15076 0.20102,-0.0251 0.45229,-0.0251 0.27641,0 0.50256,0 h 0.50255 q 0.47742,0 0.85434,0.12564 0.40204,0.12564 0.40204,0.70357 v 0.0754 q 0,0.22614 -0.17589,0.42717 -0.1759,0.20102 -0.40204,0.32665 -0.10051,0.0503 -0.40205,0.10051 -0.2764,0.0251 -0.60306,0.0503 -0.32666,0 -0.62819,0.0251 -0.30153,0 -0.4523,0 h -0.15076 v 6.33216 q 0,3.31684 -0.0754,5.20142 -0.0503,1.85944 -0.17589,2.06046 -0.0754,0.12564 -0.22615,0.15077 -0.15076,0.0251 -0.40204,0.0251 -0.15077,0 -0.32666,0 -0.15076,-0.0251 -0.2764,-0.12563 -0.20102,-0.22615 -0.27641,-0.47743 -0.0754,-0.2764 -0.0754,-0.60306 0,-0.35179 0.0251,-0.77896 0.0251,-0.4523 0.0251,-1.05536 0,-0.85434 0,-1.65842 0.0251,-0.82921 0.0251,-1.65842 -0.0251,-0.80409 -0.0251,-1.58304 0.0251,-0.77896 0.0251,-1.55792 l 0.0251,-4.22144 h -0.70357 q -0.62819,0 -1.03023,-0.0251 -0.37692,-0.0251 -0.55281,-0.12564 -0.47743,-0.25128 -0.47743,-0.7287 z" /><path
       id="path1060"
       style="font-style:normal;font-variant:normal;font-weight:normal;font-stretch:normal;font-family:PreciousPlastic;-inkscape-font-specification:PreciousPlastic;stroke-width:0.80647951"
       d="m 232.87287,504.51922 q 0,-0.65332 0.60307,-0.80409 0.22615,-0.0503 1.28151,-0.0251 1.05536,0 2.71378,-0.15076 0.20102,-0.0251 0.4523,-0.0251 0.2764,0 0.50255,0 h 0.50255 q 0.47743,0 0.85434,0.12564 0.40204,0.12564 0.40204,0.70357 v 0.0754 q 0,0.22614 -0.17589,0.42717 -0.17589,0.20102 -0.40204,0.32665 -0.10051,0.0503 -0.40204,0.10051 -0.27641,0.0251 -0.60307,0.0503 -0.32666,0 -0.62819,0.0251 -0.30153,0 -0.4523,0 h -0.15076 v 6.33216 q 0,3.31684 -0.0754,5.20142 -0.0503,1.85944 -0.1759,2.06046 -0.0754,0.12564 -0.22615,0.15077 -0.15076,0.0251 -0.40204,0.0251 -0.15076,0 -0.32666,0 -0.15076,-0.0251 -0.2764,-0.12563 -0.20102,-0.22615 -0.2764,-0.47743 -0.0754,-0.2764 -0.0754,-0.60306 0,-0.35179 0.0251,-0.77896 0.0251,-0.4523 0.0251,-1.05536 0,-0.85434 0,-1.65842 0.0251,-0.82921 0.0251,-1.65842 -0.0251,-0.80409 -0.0251,-1.58304 0.0251,-0.77896 0.0251,-1.55792 l 0.0251,-4.22144 h -0.70357 q -0.62819,0 -1.03023,-0.0251 -0.37692,-0.0251 -0.55281,-0.12564 -0.47743,-0.25128 -0.47743,-0.7287 z" /><path
       id="path1062"
       style="font-style:normal;font-variant:normal;font-weight:normal;font-stretch:normal;font-family:PreciousPlastic;-inkscape-font-specification:PreciousPlastic;stroke-width:0.80647951"
       d="m 241.71779,505.85098 q 0,-2.03534 0.10051,-2.23636 0.27641,-0.42717 0.70357,-0.47742 0.42717,-0.0754 1.181,-0.0754 h 0.1759 q 0.15076,-0.0251 0.32666,-0.0251 0.17589,0 0.37691,0 h 0.40204 q 0.27641,0 0.55281,0.0251 0.2764,0 0.47742,0.10051 0.22615,0.10052 0.35179,0.30154 0.15077,0.20102 0.15077,0.5528 h 0.0503 q -0.17589,0.30154 -0.50255,0.47743 -0.32666,0.17589 -0.70357,0.25127 -0.37692,0.0754 -0.77896,0.10052 -0.37691,0 -0.70357,0 -0.10051,0 -0.20102,0.0251 -0.10052,0 -0.20103,0 l 0.0251,2.48764 q 0.0251,1.05536 0.0503,1.80919 0.0251,0.7287 0.0251,1.10561 v 0.22615 q 1.20613,0.0251 1.20613,0.87947 0,0.52768 -0.37691,0.75383 -0.35179,0.20102 -0.77896,0.22614 v 0.40205 q -0.0251,0.12563 -0.0251,0.2764 0,0.12564 0,0.32666 0,0.60306 0,1.25638 0.0251,0.62819 0.0754,1.35689 0.0251,0.2764 0,0.52768 0,0.25128 0.0503,0.40204 0.0251,0.0754 0.0251,0.22615 0.12564,0.0251 0.30153,0.0503 0.20102,0 0.47742,0 1.15588,0 1.50766,0.15076 0.37692,0.15077 0.37692,0.65332 v 0.0503 q 0,0.2764 -0.37692,0.95485 l -1.75893,-0.0251 h -0.22615 q -0.67845,0 -1.03023,0 -0.35179,-0.0251 -0.55281,-0.0754 -0.17589,-0.0503 -0.25128,-0.1759 -0.0754,-0.15076 -0.17589,-0.37691 -0.0503,-0.12564 -0.10051,-1.00511 -0.0251,-0.87946 -0.0754,-2.13585 -0.0251,-1.2815 -0.0754,-2.76403 -0.0251,-1.48253 -0.0503,-2.8143 0,-1.35689 -0.0251,-2.38712 0,-1.03023 0,-1.38202 z" /><path
       id="path1064"
       style="font-style:normal;font-variant:normal;font-weight:normal;font-stretch:normal;font-family:PreciousPlastic;-inkscape-font-specification:PreciousPlastic;stroke-width:0.80647951"
       d="m 248.04994,518.21377 q 0,-0.4523 0.30153,-0.67845 0.32666,-0.25127 1.73381,-0.5528 1.13074,-0.25128 1.7338,-1.10562 0.60307,-0.85434 0.60307,-1.93483 0,-0.67844 -0.10051,-1.18099 -0.10051,-0.50256 -0.30154,-0.9046 -0.20102,-0.42717 -0.5528,-0.82921 -0.32666,-0.40204 -0.77896,-0.85434 -0.37691,-0.37691 -0.67844,-0.65332 -0.27641,-0.2764 -0.4523,-0.45229 -0.57794,-0.57794 -1.00511,-1.25639 -0.42717,-0.70357 -0.42717,-1.53278 0,-0.62819 0.27641,-1.25638 0.2764,-0.62819 0.7287,-1.13074 0.4523,-0.52768 1.05536,-0.82922 0.60306,-0.32666 1.23125,-0.32666 0.85434,0 0.85434,0.80409 0,0.40204 -0.15076,0.52768 -0.12564,0.12564 -0.72871,0.35179 -0.65331,0.25127 -1.08048,0.7287 -0.42717,0.45229 -0.42717,1.18099 0,0.1759 0.0502,0.35179 0.0503,0.17589 0.10051,0.30153 0,0.0251 0.22615,0.27641 0.25128,0.25127 0.55281,0.5528 0.30153,0.30154 0.60306,0.57794 0.30153,0.2764 0.40204,0.40204 l 0.32666,0.30153 q 0.37692,0.35179 0.62819,0.60307 0.25128,0.25127 0.32666,0.37691 0.47743,0.85434 0.80409,1.78406 0.35178,0.92972 0.35178,2.13585 0,1.30664 -0.7287,2.51276 -0.70357,1.181 -1.83431,1.83432 -0.1759,0.0754 -0.55281,0.20102 -0.37692,0.12564 -0.80409,0.25127 -0.40204,0.10052 -0.80408,0.20103 -0.40204,0.0754 -0.62819,0.0754 -0.85434,0 -0.85434,-0.85434 z" /></g><g
     transform="matrix(1.2094554,0,0,1.2094554,-97.332563,-23.562102)"
     id="text958"
     style="font-style:normal;font-weight:normal;font-size:25.1276207px;line-height:1.25;font-family:sans-serif;letter-spacing:0px;word-spacing:0px;fill:#000000;fill-opacity:1;stroke:none;stroke-width:0.82681853"
     aria-label="PALES D'EOLIENNE"><path
       id="path1003"
       style="font-style:normal;font-variant:normal;font-weight:normal;font-stretch:normal;font-family:PreciousPlastic;-inkscape-font-specification:PreciousPlastic;stroke-width:0.82681853"
       d="m 464.71907,96.385464 h -0.0251 q 0,-0.05025 0.0251,-0.100511 0.0251,-0.05026 0.0251,-0.10051 0,-0.05026 0,-0.07538 0.0251,-0.05025 0.0251,-0.10051 h 0.0251 q 0.25128,-0.628191 0.80409,-0.703574 h 0.15076 q 1.10562,0 2.58815,1.005105 1.0051,0.678446 1.60816,1.834316 0.60307,1.155871 0.60307,2.43738 0,0.85434 -0.27641,1.55791 -0.25127,0.67844 -0.70357,1.25638 -0.42717,0.57794 -1.0051,1.08049 -0.57794,0.47742 -1.23126,0.92972 l -0.47742,0.32666 q -0.0503,0.20102 -0.0503,1.20612 v 1.48253 l 0.0503,2.91481 q -0.52768,0.55281 -0.97998,0.55281 -0.37691,0 -0.60306,-0.27641 -0.22615,-0.2764 -0.27641,-0.60306 -0.0251,-0.20102 -0.0754,-1.48253 -0.0251,-1.28151 -0.0251,-3.41736 0,-0.50255 -0.0251,-0.97997 0,-0.47743 0,-0.9046 0,-2.71378 -0.0754,-3.69376 -0.0503,-1.130739 -0.0754,-2.035333 -0.0251,-0.904594 -0.0251,-1.557912 0,-0.175894 0,-0.301532 0,-0.125638 0.0251,-0.251276 z m 1.83432,1.758933 q 0.0503,0.502553 0.0503,1.030233 0.0251,0.502552 0.0251,1.0051 0,0.22615 0,0.42717 0,0.20103 0.0251,0.35179 0.0754,0.57794 0.0754,1.08049 0,0.50255 0,0.85434 0,0.35178 0,0.47742 0,0.12564 -0.0251,0.30153 0.77896,-0.50255 1.38202,-1.2815 0.60306,-0.80409 0.60306,-1.70868 0,-2.387127 -2.16097,-3.341976 v 0.326659 q 0,0.07538 0,0.201021 0,0.10051 0.0251,0.276403 z" /><path
       id="path1005"
       style="font-style:normal;font-variant:normal;font-weight:normal;font-stretch:normal;font-family:PreciousPlastic;-inkscape-font-specification:PreciousPlastic;stroke-width:0.82681853"
       d="m 472.10659,111.18563 q 0,-0.12564 0.0251,-0.32666 0.0251,-0.20102 0.0754,-0.45229 0.10051,-0.57794 0.42717,-2.23636 0.32665,-1.65842 0.87946,-4.39734 0.52768,-2.66352 0.82921,-4.196308 0.32666,-1.557913 0.37692,-1.733806 0.10051,-0.42717 0.55281,-0.778956 0.45229,-0.376915 0.90459,-0.376915 0.35179,0 0.55281,0.201021 0.20102,0.201021 0.57793,1.231254 0.37692,1.030232 0.80409,2.99019 0.10051,0.42717 0.20102,0.85434 0.12564,0.42717 0.25127,0.92972 0.30154,1.20612 0.67845,2.66353 0.40204,1.43227 0.85434,3.24146 0.60306,2.41225 0.60306,2.83942 0,0.35179 -0.25127,0.60306 -0.22615,0.25128 -0.57794,0.25128 -0.52768,0 -0.80408,-0.65332 -0.12564,-0.32666 -0.62819,-1.83432 -0.50256,-1.50765 -0.97998,-4.0958 -0.0503,-0.30153 -0.12564,-0.52768 -0.0503,-0.22615 -0.10051,-0.32666 -0.37691,-0.0754 -1.98508,-0.0754 h -0.15077 q -0.0503,0.20102 -0.10051,0.50255 -0.0503,0.30153 -0.15076,0.75383 -0.10051,0.4523 -0.20103,0.9046 -0.10051,0.45229 -0.17589,0.92972 -0.0502,0.32666 -0.15076,0.82921 -0.0754,0.47742 -0.1759,0.97998 -0.0754,0.50255 -0.20102,0.95485 -0.10051,0.45229 -0.22615,0.70357 -0.25127,0.52768 -0.75383,0.52768 -0.35178,0 -0.60306,-0.25128 -0.25127,-0.2764 -0.25127,-0.62819 z m 3.34197,-8.01571 h 0.70357 q 0.20102,0 0.35179,0 0.17589,0 0.30153,0.0251 -0.0251,-0.0754 -0.0503,-0.15077 -0.0251,-0.0754 -0.0503,-0.17589 l -0.0251,-0.12564 q -0.0251,-0.12564 -0.10051,-0.35178 -0.0503,-0.25128 -0.15076,-0.57794 -0.12564,-0.35179 -0.1759,-0.67845 -0.0503,-0.32665 -0.15076,-0.67844 l -0.0754,-0.30153 q -0.0503,0.20102 -0.10051,0.42717 -0.0251,0.22615 -0.0754,0.47742 -0.17589,0.7287 -0.2764,1.25638 -0.0754,0.52768 -0.12564,0.85434 z" /><path
       id="path1007"
       style="font-style:normal;font-variant:normal;font-weight:normal;font-stretch:normal;font-family:PreciousPlastic;-inkscape-font-specification:PreciousPlastic;stroke-width:0.82681853"
       d="m 482.23297,103.06941 q 0,-3.06557 0.0503,-4.673736 0.0503,-1.608168 0.17589,-1.733806 0.25128,-0.251276 0.50255,-0.251276 0.57794,0 0.82921,0.678445 0.0503,0.276404 0.0754,1.557913 0.0503,1.281508 0.0754,3.49274 0.0251,1.95995 0.0251,3.49274 0,1.53278 0,2.58814 0,1.53279 -0.10051,1.9097 0.35178,0 0.67844,0.0251 0.35179,0.0251 0.67845,0.10051 v -0.22615 q 0.75383,0.75383 0.75383,1.08049 0,0.4523 -0.35179,0.67845 -0.35179,0.22614 -0.70357,0.22614 -0.10051,0 -0.40204,0 -0.27641,-0.0251 -0.60307,-0.0503 -0.32666,-0.0251 -0.60306,-0.0503 -0.25128,-0.0251 -0.30153,-0.0503 -0.50255,-0.30153 -0.67845,-1.15587 -0.10051,-0.42717 -0.10051,-7.6388 z" /><path
       id="path1009"
       style="font-style:normal;font-variant:normal;font-weight:normal;font-stretch:normal;font-family:PreciousPlastic;-inkscape-font-specification:PreciousPlastic;stroke-width:0.82681853"
       d="m 487.48464,98.772588 q 0,-2.035337 0.10051,-2.236358 0.2764,-0.42717 0.70357,-0.477425 0.42717,-0.07538 1.181,-0.07538 h 0.17589 q 0.15077,-0.02513 0.32666,-0.02513 0.17589,0 0.37692,0 h 0.40204 q 0.2764,0 0.55281,0.02513 0.2764,0 0.47742,0.10051 0.22615,0.100511 0.35179,0.301532 0.15076,0.201021 0.15076,0.552808 h 0.0503 q -0.1759,0.301531 -0.50255,0.477424 -0.32666,0.175894 -0.70358,0.251277 -0.37691,0.07538 -0.77895,0.10051 -0.37692,0 -0.70358,0 -0.10051,0 -0.20102,0.02513 -0.10051,0 -0.20102,0 l 0.0251,2.487644 q 0.0251,1.05536 0.0502,1.80918 0.0251,0.7287 0.0251,1.10562 v 0.22615 q 1.20613,0.0251 1.20613,0.87946 0,0.52768 -0.37692,0.75383 -0.35178,0.20102 -0.77895,0.22615 v 0.40204 q -0.0251,0.12564 -0.0251,0.27641 0,0.12564 0,0.32666 0,0.60306 0,1.25638 0.0251,0.62819 0.0754,1.35688 0.0251,0.2764 0,0.52768 0,0.25128 0.0503,0.40204 0.0251,0.0754 0.0251,0.22616 0.12564,0.0251 0.30154,0.0503 0.20102,0 0.47742,0 1.15587,0 1.50766,0.15077 0.37691,0.15077 0.37691,0.65332 v 0.0503 q 0,0.27641 -0.37691,0.95485 l -1.75894,-0.0251 h -0.22614 q -0.67845,0 -1.03024,0 -0.35178,-0.0251 -0.5528,-0.0754 -0.1759,-0.0503 -0.25128,-0.17589 -0.0754,-0.15077 -0.17589,-0.37691 -0.0503,-0.12564 -0.10051,-1.00511 -0.0251,-0.87947 -0.0754,-2.13585 -0.0251,-1.28151 -0.0754,-2.76404 -0.0251,-1.48253 -0.0503,-2.81429 0,-1.35689 -0.0251,-2.38712 0,-1.03023 0,-1.382017 z" /><path
       id="path1011"
       style="font-style:normal;font-variant:normal;font-weight:normal;font-stretch:normal;font-family:PreciousPlastic;-inkscape-font-specification:PreciousPlastic;stroke-width:0.82681853"
       d="m 493.81678,111.13538 q 0,-0.4523 0.30153,-0.67845 0.32666,-0.25127 1.73381,-0.55281 1.13074,-0.25127 1.73381,-1.10561 0.60306,-0.85434 0.60306,-1.93483 0,-0.67844 -0.10051,-1.181 -0.10051,-0.50255 -0.30153,-0.90459 -0.20102,-0.42717 -0.55281,-0.82921 -0.32666,-0.40204 -0.77896,-0.85434 -0.37691,-0.37692 -0.67844,-0.65332 -0.27641,-0.2764 -0.4523,-0.4523 -0.57794,-0.57793 -1.00511,-1.25638 -0.42716,-0.70357 -0.42716,-1.532783 0,-0.62819 0.2764,-1.256381 0.2764,-0.62819 0.7287,-1.130743 0.4523,-0.52768 1.05536,-0.829211 0.60306,-0.326659 1.23125,-0.326659 0.85434,0 0.85434,0.804084 0,0.402042 -0.15076,0.52768 -0.12564,0.125638 -0.7287,0.351787 -0.65332,0.251276 -1.08049,0.728701 -0.42717,0.452297 -0.42717,1.180998 0,0.175893 0.0503,0.351786 0.0503,0.175894 0.10051,0.301532 0,0.02513 0.22615,0.276399 0.25128,0.25128 0.55281,0.55281 0.30153,0.30153 0.60306,0.57794 0.30154,0.2764 0.40205,0.40204 l 0.32665,0.30153 q 0.37692,0.35179 0.6282,0.60306 0.25127,0.25128 0.32665,0.37692 0.47743,0.85434 0.80409,1.78406 0.35178,0.92972 0.35178,2.13585 0,1.30663 -0.7287,2.51276 -0.70357,1.181 -1.83431,1.83432 -0.1759,0.0754 -0.55281,0.20102 -0.37691,0.12563 -0.80408,0.25127 -0.40205,0.10051 -0.80409,0.20102 -0.40204,0.0754 -0.62819,0.0754 -0.85434,0 -0.85434,-0.85434 z" /><path
       id="path1013"
       style="font-style:normal;font-variant:normal;font-weight:normal;font-stretch:normal;font-family:PreciousPlastic;-inkscape-font-specification:PreciousPlastic;stroke-width:0.82681853"
       d="m 509.14456,95.606508 q 1.43228,0 2.58815,0.728701 1.15587,0.728701 1.95995,1.859444 0.50256,0.778956 0.80409,1.633295 0.32666,0.829212 0.50255,1.708682 0.17589,0.85434 0.22615,1.75893 0.0503,0.90459 0.0503,1.80919 0,0.80408 -0.0251,1.35689 -0.0251,0.52768 -0.0754,0.77896 -0.25127,1.05536 -0.70357,1.93482 -0.42717,0.87947 -1.08049,1.50766 -0.65332,0.60306 -1.53278,0.95485 -0.87947,0.35179 -2.01021,0.35179 h -0.1759 q -1.05536,-0.0251 -1.25638,-0.80409 -0.0754,-0.30153 -0.10051,-1.08049 -0.0251,-0.77895 -0.0754,-1.98508 -0.0251,-0.80408 -0.0503,-1.80919 0,-1.0051 -0.12563,-2.21123 -0.0251,-0.40204 -0.0754,-1.60816 0,-0.80409 -0.0251,-1.60817 -0.0251,-0.80409 -0.0754,-1.60817 -0.0754,-1.557912 -0.0754,-2.236358 0,-0.452297 0.0503,-0.728701 0.0503,-0.276404 0.17589,-0.427169 0.15076,-0.175894 0.40204,-0.226149 0.2764,-0.05025 0.70357,-0.05025 z m 0.40205,1.934826 q 0.12563,0.678446 0.15076,2.261486 0.0251,0.77896 0.0503,1.70868 0.0251,0.90459 0.0503,1.95995 0.0251,1.05536 0.0251,1.6333 0.0251,0.57793 0.0251,0.70357 0.0503,1.50766 0.12564,2.61327 0.0754,1.10562 0.15076,1.75894 1.28151,-0.32666 2.03534,-1.03023 0.77895,-0.72871 1.181,-2.01021 0.15076,-0.50256 0.15076,-2.18611 0,-1.03023 -0.17589,-2.23636 -0.15077,-1.23125 -0.60306,-2.31174 -0.42717,-1.105612 -1.20613,-1.909696 -0.75383,-0.829211 -1.98508,-1.080488 0,0.05026 0,0.07538 0.0251,0.02513 0.0251,0.05026 z" /><path
       id="path1015"
       style="font-style:normal;font-variant:normal;font-weight:normal;font-stretch:normal;font-family:PreciousPlastic;-inkscape-font-specification:PreciousPlastic;stroke-width:0.82681853"
       d="m 516.80848,99.124375 q 0,-0.175894 0.0251,-0.351787 0.0251,-0.201021 0.0754,-0.376914 0.0754,-0.376915 0.12564,-0.728701 0.0754,-0.376915 0.0754,-0.778957 -0.0754,-0.226148 -0.10051,-0.427169 -0.0251,-0.226149 -0.0251,-0.477425 0,-0.326659 0.2764,-0.577935 0.30153,-0.276404 0.62819,-0.276404 0.42717,0 0.90459,0.703573 0.1759,0.251276 0.1759,0.829212 v 0.52768 q 0,0.251276 -0.0503,0.728701 -0.0251,0.477425 -0.15076,0.954849 -0.12564,0.477425 -0.37692,0.829212 -0.25127,0.35179 -0.70357,0.37691 h -0.0754 q -0.35179,0 -0.57794,-0.301527 -0.22615,-0.326659 -0.22615,-0.653318 z" /><path
       id="path1017"
       style="font-style:normal;font-variant:normal;font-weight:normal;font-stretch:normal;font-family:PreciousPlastic;-inkscape-font-specification:PreciousPlastic;stroke-width:0.82681853"
       d="m 520.45199,98.772588 q 0,-2.035337 0.10051,-2.236358 0.2764,-0.42717 0.70357,-0.477425 0.42717,-0.07538 1.181,-0.07538 h 0.17589 q 0.15077,-0.02513 0.32666,-0.02513 0.17589,0 0.37692,0 h 0.40204 q 0.2764,0 0.55281,0.02513 0.2764,0 0.47742,0.10051 0.22615,0.100511 0.35179,0.301532 0.15076,0.201021 0.15076,0.552808 h 0.0503 q -0.1759,0.301531 -0.50255,0.477424 -0.32666,0.175894 -0.70358,0.251277 -0.37691,0.07538 -0.77895,0.10051 -0.37692,0 -0.70358,0 -0.10051,0 -0.20102,0.02513 -0.10051,0 -0.20102,0 l 0.0251,2.487644 q 0.0251,1.05536 0.0503,1.80918 0.0251,0.7287 0.0251,1.10562 v 0.22615 q 1.20613,0.0251 1.20613,0.87946 0,0.52768 -0.37692,0.75383 -0.35178,0.20102 -0.77895,0.22615 v 0.40204 q -0.0251,0.12564 -0.0251,0.27641 0,0.12564 0,0.32666 0,0.60306 0,1.25638 0.0251,0.62819 0.0754,1.35688 0.0251,0.2764 0,0.52768 0,0.25128 0.0503,0.40204 0.0251,0.0754 0.0251,0.22616 0.12564,0.0251 0.30154,0.0503 0.20102,0 0.47742,0 1.15587,0 1.50766,0.15077 0.37691,0.15077 0.37691,0.65332 v 0.0503 q 0,0.27641 -0.37691,0.95485 l -1.75894,-0.0251 h -0.22614 q -0.67845,0 -1.03024,0 -0.35178,-0.0251 -0.5528,-0.0754 -0.1759,-0.0503 -0.25128,-0.17589 -0.0754,-0.15077 -0.17589,-0.37691 -0.0503,-0.12564 -0.10051,-1.00511 -0.0251,-0.87947 -0.0754,-2.13585 -0.0251,-1.28151 -0.0754,-2.76404 -0.0251,-1.48253 -0.0503,-2.81429 0,-1.35689 -0.0251,-2.38712 0,-1.03023 0,-1.382017 z" /><path
       id="path1019"
       style="font-style:normal;font-variant:normal;font-weight:normal;font-stretch:normal;font-family:PreciousPlastic;-inkscape-font-specification:PreciousPlastic;stroke-width:0.82681853"
       d="m 526.9349,99.978714 q 0.0754,-0.879467 0.35178,-1.633296 0.30154,-0.778956 0.77896,-1.331764 0.50255,-0.577935 1.20613,-0.904594 0.7287,-0.326659 1.65842,-0.326659 1.10562,0 1.88457,0.502552 0.77896,0.502553 1.28151,1.281509 0.50255,0.778956 0.75383,1.758934 0.2764,0.954854 0.37691,1.859444 0.0503,0.50255 0.0754,1.30664 0.0251,0.77895 0.0503,1.83431 0,0.82921 -0.0503,1.75894 -0.0251,0.92972 -0.20102,1.83431 -0.1759,0.9046 -0.55281,1.73381 -0.37692,0.80408 -1.03024,1.40714 -0.97997,0.9046 -2.36199,0.9046 -1.28151,0 -2.11072,-0.7287 -0.82921,-0.7287 -1.30664,-1.80919 -0.47742,-1.08049 -0.65332,-2.31174 -0.17589,-1.23126 -0.17589,-2.23636 0,-0.50255 -0.0503,-0.97998 -0.0503,-0.47742 -0.0503,-0.97997 0,-0.87947 0.0251,-1.60817 0.0503,-0.75383 0.10051,-1.331766 z m 1.68355,2.688656 q 0,0.65332 0.0502,1.78406 0.0503,1.10562 0.22615,2.23636 0.20102,1.13074 0.52768,2.08559 0.35179,0.92972 0.92972,1.20613 0.20103,0.10051 0.72871,0.10051 0.90459,0 1.40714,-0.62819 0.50255,-0.62819 0.75383,-1.53279 0.25128,-0.90459 0.30153,-1.88457 0.0503,-1.0051 0.0503,-1.70868 l -0.0503,-0.35178 h 0.0251 q -0.0251,-0.20103 -0.0503,-0.4523 0,-0.27641 0,-0.62819 0,-0.65332 -0.10051,-1.55791 -0.0754,-0.92973 -0.37691,-1.784066 -0.2764,-0.854339 -0.80408,-1.432274 -0.50256,-0.603063 -1.38202,-0.603063 -0.4523,0 -0.80409,0.201021 -0.32666,0.201021 -0.60306,0.52768 -0.25128,0.326659 -0.42717,0.728701 -0.17589,0.402042 -0.25128,0.804084 -0.15076,0.703577 -0.15076,2.889677 z" /><path
       id="path1021"
       style="font-style:normal;font-variant:normal;font-weight:normal;font-stretch:normal;font-family:PreciousPlastic;-inkscape-font-specification:PreciousPlastic;stroke-width:0.82681853"
       d="m 536.83515,103.06941 q 0,-3.06557 0.0503,-4.673736 0.0503,-1.608168 0.17589,-1.733806 0.25128,-0.251276 0.50255,-0.251276 0.57794,0 0.82922,0.678445 0.0503,0.276404 0.0754,1.557913 0.0503,1.281508 0.0754,3.49274 0.0251,1.95995 0.0251,3.49274 0,1.53278 0,2.58814 0,1.53279 -0.10051,1.9097 0.35179,0 0.67845,0.0251 0.35178,0.0251 0.67844,0.10051 v -0.22615 q 0.75383,0.75383 0.75383,1.08049 0,0.4523 -0.35179,0.67845 -0.35178,0.22614 -0.70357,0.22614 -0.10051,0 -0.40204,0 -0.27641,-0.0251 -0.60307,-0.0503 -0.32665,-0.0251 -0.60306,-0.0503 -0.25127,-0.0251 -0.30153,-0.0503 -0.50255,-0.30153 -0.67845,-1.15587 -0.10051,-0.42717 -0.10051,-7.6388 z" /><path
       id="path1023"
       style="font-style:normal;font-variant:normal;font-weight:normal;font-stretch:normal;font-family:PreciousPlastic;-inkscape-font-specification:PreciousPlastic;stroke-width:0.82681853"
       d="m 542.11194,98.194653 q 0,-1.608168 0.87947,-1.608168 0.32666,0 0.62819,0.301531 l 0.30153,0.301532 0.0251,1.432274 q 0.0251,1.206126 0.0503,2.462508 0.0251,1.25638 0.0754,2.46251 0.0503,1.23125 0.0503,2.43738 0.0251,1.20612 0.0503,2.48763 0.0251,0.97998 0.0251,1.53278 0.0251,0.55281 0.0251,0.57794 0,0.22615 -0.0251,0.47742 0,0.22615 -0.10051,0.4523 -0.0754,0.20102 -0.25128,0.35179 -0.17589,0.12564 -0.52768,0.12564 -0.2764,0 -0.50255,-0.1759 -0.20102,-0.20102 -0.30153,-0.47742 -0.0754,-0.25128 -0.12564,-2.01021 -0.0251,-1.75893 -0.12564,-4.84963 l -0.0251,-0.77896 q -0.0251,-0.65332 -0.0251,-1.20612 0,-0.55281 -0.0251,-1.05536 -0.0503,-1.30664 -0.0503,-2.035342 0,-0.753828 -0.0251,-0.879466 z" /><path
       id="path1025"
       style="font-style:normal;font-variant:normal;font-weight:normal;font-stretch:normal;font-family:PreciousPlastic;-inkscape-font-specification:PreciousPlastic;stroke-width:0.82681853"
       d="m 545.6549,98.772588 q 0,-2.035337 0.10051,-2.236358 0.27641,-0.42717 0.70358,-0.477425 0.42717,-0.07538 1.18099,-0.07538 h 0.1759 q 0.15076,-0.02513 0.32666,-0.02513 0.17589,0 0.37691,0 h 0.40204 q 0.27641,0 0.55281,0.02513 0.2764,0 0.47743,0.10051 0.22614,0.100511 0.35178,0.301532 0.15077,0.201021 0.15077,0.552808 h 0.0503 q -0.17589,0.301531 -0.50255,0.477424 -0.32666,0.175894 -0.70357,0.251277 -0.37692,0.07538 -0.77896,0.10051 -0.37691,0 -0.70357,0 -0.10051,0 -0.20102,0.02513 -0.10051,0 -0.20102,0 l 0.0251,2.487644 q 0.0251,1.05536 0.0503,1.80918 0.0251,0.7287 0.0251,1.10562 v 0.22615 q 1.20612,0.0251 1.20612,0.87946 0,0.52768 -0.37691,0.75383 -0.35179,0.20102 -0.77896,0.22615 v 0.40204 q -0.0251,0.12564 -0.0251,0.27641 0,0.12564 0,0.32666 0,0.60306 0,1.25638 0.0251,0.62819 0.0754,1.35688 0.0251,0.2764 0,0.52768 0,0.25128 0.0503,0.40204 0.0251,0.0754 0.0251,0.22616 0.12564,0.0251 0.30153,0.0503 0.20102,0 0.47743,0 1.15587,0 1.50765,0.15077 0.37692,0.15077 0.37692,0.65332 v 0.0503 q 0,0.27641 -0.37692,0.95485 l -1.75893,-0.0251 h -0.22615 q -0.67845,0 -1.03023,0 -0.35179,-0.0251 -0.55281,-0.0754 -0.17589,-0.0503 -0.25128,-0.17589 -0.0754,-0.15077 -0.17589,-0.37691 -0.0502,-0.12564 -0.10051,-1.00511 -0.0251,-0.87947 -0.0754,-2.13585 -0.0251,-1.28151 -0.0754,-2.76404 -0.0251,-1.48253 -0.0503,-2.81429 0,-1.35689 -0.0251,-2.38712 0,-1.03023 0,-1.382017 z" /><path
       id="path1027"
       style="font-style:normal;font-variant:normal;font-weight:normal;font-stretch:normal;font-family:PreciousPlastic;-inkscape-font-specification:PreciousPlastic;stroke-width:0.82681853"
       d="m 551.98704,97.541334 q 0.12564,-1.05536 0.80409,-1.05536 0.37691,0 0.82921,0.452298 0.2764,0.276403 0.87947,1.58304 0.60306,1.306636 1.53278,3.593248 l 0.35179,0.85434 q 0.20102,0.4523 0.35178,0.85434 0.1759,0.40204 0.30154,0.75383 0.20102,0.52768 0.32665,0.85434 0.12564,0.30153 0.22615,0.55281 0.10051,0.25127 0.20102,0.47742 0.10051,0.22615 0.22615,0.52768 -0.0251,-1.0051 -0.10051,-1.98508 -0.0503,-1.00511 -0.12564,-1.98508 -0.0503,-0.35179 -0.0503,-0.60307 0,-0.2764 0,-0.40204 0,-0.82921 -0.0503,-1.53278 -0.0503,-0.728705 -0.12563,-1.331768 -0.0503,-0.452297 -0.0754,-0.854339 -0.0251,-0.402042 -0.0251,-0.753829 v -0.10051 q 0,-0.351787 0.22614,-0.703573 0.25128,-0.376915 0.55281,-0.376915 0.70357,0 0.9046,0.879467 0.0754,0.351787 0.12563,1.48253 0.0754,1.130743 0.20102,3.090697 0.0503,1.13074 0.12564,2.46251 0.10051,1.33176 0.20102,2.9148 0.0503,0.9046 0.0754,1.65842 0.0251,0.7287 0.0251,1.25638 0,0.1759 -0.0251,0.50256 0,0.30153 -0.10051,0.60306 -0.0754,0.30153 -0.27641,0.52768 -0.17589,0.22615 -0.52768,0.22615 -0.42717,0 -0.70357,-0.37692 -0.25128,-0.40204 -0.42717,-0.75382 -0.17589,-0.35179 -0.65332,-1.3569 -0.47742,-1.0051 -1.13074,-2.66352 -0.50255,-1.30664 -1.05536,-2.61328 -0.55281,-1.33176 -1.10562,-2.61327 0.0503,1.05536 0.0754,2.11072 0.0503,1.05536 0.10051,2.11072 0.0503,1.80919 0.10051,3.04044 0.0754,1.23126 0.0754,1.80919 0,0.27641 -0.0251,0.47743 0,0.17589 -0.0251,0.30153 -0.0503,0.2764 -0.2764,0.37691 -0.22615,0.10051 -0.42717,0.10051 -0.32666,0 -0.57793,-0.20102 -0.25128,-0.22615 -0.32666,-0.67844 -0.0251,-0.12564 -0.12564,-1.68355 -0.10051,-1.55792 -0.20102,-4.59836 -0.0251,-0.65332 -0.0503,-1.25638 -0.0251,-0.62819 -0.0503,-1.181 -0.0503,-1.88457 -0.12564,-3.04044 -0.0503,-1.15587 -0.0503,-1.58304 z" /><path
       id="path1029"
       style="font-style:normal;font-variant:normal;font-weight:normal;font-stretch:normal;font-family:PreciousPlastic;-inkscape-font-specification:PreciousPlastic;stroke-width:0.82681853"
       d="m 561.38474,97.541334 q 0.12564,-1.05536 0.80409,-1.05536 0.37691,0 0.82921,0.452298 0.2764,0.276403 0.87946,1.58304 0.60307,1.306636 1.53279,3.593248 l 0.35179,0.85434 q 0.20102,0.4523 0.35178,0.85434 0.1759,0.40204 0.30153,0.75383 0.20102,0.52768 0.32666,0.85434 0.12564,0.30153 0.22615,0.55281 0.10051,0.25127 0.20102,0.47742 0.10051,0.22615 0.22615,0.52768 -0.0251,-1.0051 -0.10051,-1.98508 -0.0503,-1.00511 -0.12564,-1.98508 -0.0503,-0.35179 -0.0503,-0.60307 0,-0.2764 0,-0.40204 0,-0.82921 -0.0503,-1.53278 -0.0503,-0.728705 -0.12564,-1.331768 -0.0503,-0.452297 -0.0754,-0.854339 -0.0251,-0.402042 -0.0251,-0.753829 v -0.10051 q 0,-0.351787 0.22615,-0.703573 0.25128,-0.376915 0.55281,-0.376915 0.70357,0 0.90459,0.879467 0.0754,0.351787 0.12564,1.48253 0.0754,1.130743 0.20102,3.090697 0.0503,1.13074 0.12564,2.46251 0.10051,1.33176 0.20102,2.9148 0.0503,0.9046 0.0754,1.65842 0.0251,0.7287 0.0251,1.25638 0,0.1759 -0.0251,0.50256 0,0.30153 -0.10051,0.60306 -0.0754,0.30153 -0.2764,0.52768 -0.17589,0.22615 -0.52768,0.22615 -0.42717,0 -0.70357,-0.37692 -0.25128,-0.40204 -0.42717,-0.75382 -0.1759,-0.35179 -0.65332,-1.3569 -0.47743,-1.0051 -1.13074,-2.66352 -0.50256,-1.30664 -1.05536,-2.61328 -0.55281,-1.33176 -1.10562,-2.61327 0.0503,1.05536 0.0754,2.11072 0.0503,1.05536 0.10051,2.11072 0.0503,1.80919 0.10051,3.04044 0.0754,1.23126 0.0754,1.80919 0,0.27641 -0.0251,0.47743 0,0.17589 -0.0251,0.30153 -0.0503,0.2764 -0.2764,0.37691 -0.22615,0.10051 -0.42717,0.10051 -0.32666,0 -0.57794,-0.20102 -0.25127,-0.22615 -0.32666,-0.67844 -0.0251,-0.12564 -0.12563,-1.68355 -0.10051,-1.55792 -0.20102,-4.59836 -0.0251,-0.65332 -0.0503,-1.25638 -0.0251,-0.62819 -0.0503,-1.181 -0.0502,-1.88457 -0.12563,-3.04044 -0.0503,-1.15587 -0.0503,-1.58304 z" /><path
       id="path1031"
       style="font-style:normal;font-variant:normal;font-weight:normal;font-stretch:normal;font-family:PreciousPlastic;-inkscape-font-specification:PreciousPlastic;stroke-width:0.82681853"
       d="m 570.75731,98.772588 q 0,-2.035337 0.10051,-2.236358 0.27641,-0.42717 0.70358,-0.477425 0.42716,-0.07538 1.18099,-0.07538 h 0.1759 q 0.15076,-0.02513 0.32666,-0.02513 0.17589,0 0.37691,0 h 0.40204 q 0.27641,0 0.55281,0.02513 0.2764,0 0.47742,0.10051 0.22615,0.100511 0.35179,0.301532 0.15077,0.201021 0.15077,0.552808 h 0.0503 q -0.17589,0.301531 -0.50255,0.477424 -0.32666,0.175894 -0.70357,0.251277 -0.37692,0.07538 -0.77896,0.10051 -0.37691,0 -0.70357,0 -0.10051,0 -0.20102,0.02513 -0.10051,0 -0.20103,0 l 0.0251,2.487644 q 0.0251,1.05536 0.0503,1.80918 0.0251,0.7287 0.0251,1.10562 v 0.22615 q 1.20612,0.0251 1.20612,0.87946 0,0.52768 -0.37691,0.75383 -0.35179,0.20102 -0.77896,0.22615 v 0.40204 q -0.0251,0.12564 -0.0251,0.27641 0,0.12564 0,0.32666 0,0.60306 0,1.25638 0.0251,0.62819 0.0754,1.35688 0.0251,0.2764 0,0.52768 0,0.25128 0.0503,0.40204 0.0251,0.0754 0.0251,0.22616 0.12564,0.0251 0.30153,0.0503 0.20102,0 0.47742,0 1.15588,0 1.50766,0.15077 0.37692,0.15077 0.37692,0.65332 v 0.0503 q 0,0.27641 -0.37692,0.95485 l -1.75893,-0.0251 h -0.22615 q -0.67845,0 -1.03023,0 -0.35179,-0.0251 -0.55281,-0.0754 -0.17589,-0.0503 -0.25128,-0.17589 -0.0754,-0.15077 -0.17589,-0.37691 -0.0503,-0.12564 -0.10051,-1.00511 -0.0251,-0.87947 -0.0754,-2.13585 -0.0251,-1.28151 -0.0754,-2.76404 -0.0251,-1.48253 -0.0503,-2.81429 0,-1.35689 -0.0251,-2.38712 0,-1.03023 0,-1.382017 z" /></g><g
     transform="matrix(1.2077072,0,0,1.2077072,-155.86865,-87.549629)"
     id="text962"
     style="font-style:normal;font-weight:normal;font-size:25.1276207px;line-height:1.25;font-family:sans-serif;letter-spacing:0px;word-spacing:0px;fill:#000000;fill-opacity:1;stroke:none;stroke-width:0.82801527"
     aria-label="POIGNEES  de CASSEROLE"><path
       id="path964"
       style="font-style:normal;font-variant:normal;font-weight:normal;font-stretch:normal;font-family:PreciousPlastic;-inkscape-font-specification:PreciousPlastic;stroke-width:0.82801527"
       d="m 750.45,405.39818 h -0.0251 q 0,-0.0503 0.0251,-0.10051 0.0251,-0.0503 0.0251,-0.10051 0,-0.0503 0,-0.0754 0.0251,-0.0503 0.0251,-0.10051 h 0.0251 q 0.25127,-0.62819 0.80408,-0.70358 h 0.15077 q 1.10561,0 2.58814,1.00511 1.00511,0.67845 1.60817,1.83432 0.60306,1.15587 0.60306,2.43737 0,0.85434 -0.2764,1.55792 -0.25128,0.67844 -0.70357,1.25638 -0.42717,0.57793 -1.00511,1.08049 -0.57793,0.47742 -1.23125,0.92972 l -0.47743,0.32666 q -0.0503,0.20102 -0.0503,1.20612 v 1.48253 l 0.0503,2.91481 q -0.52768,0.5528 -0.97997,0.5528 -0.37692,0 -0.60307,-0.2764 -0.22615,-0.2764 -0.2764,-0.60306 -0.0251,-0.20102 -0.0754,-1.48253 -0.0251,-1.28151 -0.0251,-3.41736 0,-0.50255 -0.0251,-0.97998 0,-0.47742 0,-0.90459 0,-2.71378 -0.0754,-3.69376 -0.0503,-1.13074 -0.0754,-2.03534 -0.0251,-0.90459 -0.0251,-1.55791 0,-0.17589 0,-0.30153 0,-0.12564 0.0251,-0.25128 z m 1.83431,1.75894 q 0.0503,0.50255 0.0503,1.03023 0.0251,0.50255 0.0251,1.0051 0,0.22615 0,0.42717 0,0.20102 0.0251,0.35179 0.0754,0.57793 0.0754,1.08049 0,0.50255 0,0.85434 0,0.35178 0,0.47742 0,0.12564 -0.0251,0.30153 0.77895,-0.50255 1.38202,-1.28151 0.60306,-0.80408 0.60306,-1.70867 0,-2.38713 -2.16098,-3.34198 v 0.32666 q 0,0.0754 0,0.20102 0,0.10051 0.0251,0.27641 z" /><path
       id="path966"
       style="font-style:normal;font-variant:normal;font-weight:normal;font-stretch:normal;font-family:PreciousPlastic;-inkscape-font-specification:PreciousPlastic;stroke-width:0.82801527"
       d="m 757.93802,408.99143 q 0.0754,-0.87946 0.35179,-1.63329 0.30153,-0.77896 0.77895,-1.33177 0.50256,-0.57793 1.20613,-0.90459 0.7287,-0.32666 1.65842,-0.32666 1.10562,0 1.88458,0.50255 0.77895,0.50255 1.2815,1.28151 0.50256,0.77896 0.75383,1.75893 0.27641,0.95485 0.37692,1.85945 0.0503,0.50255 0.0754,1.30663 0.0251,0.77896 0.0503,1.83432 0,0.82921 -0.0503,1.75893 -0.0251,0.92973 -0.20102,1.83432 -0.17589,0.90459 -0.55281,1.73381 -0.37691,0.80408 -1.03023,1.40714 -0.97998,0.9046 -2.362,0.9046 -1.28151,0 -2.11072,-0.7287 -0.82921,-0.72871 -1.30663,-1.80919 -0.47743,-1.08049 -0.65332,-2.31174 -0.1759,-1.23126 -0.1759,-2.23636 0,-0.50255 -0.0502,-0.97998 -0.0503,-0.47742 -0.0503,-0.97998 0,-0.87946 0.0251,-1.60816 0.0503,-0.75383 0.10051,-1.33177 z m 1.68355,2.68866 q 0,0.65332 0.0503,1.78406 0.0503,1.10561 0.22615,2.23636 0.20102,1.13074 0.52768,2.08559 0.35178,0.92972 0.92972,1.20612 0.20102,0.10052 0.7287,0.10052 0.90459,0 1.40715,-0.6282 0.50255,-0.62819 0.75382,-1.53278 0.25128,-0.90459 0.30154,-1.88457 0.0503,-1.00511 0.0503,-1.70868 l -0.0503,-0.35179 h 0.0251 q -0.0251,-0.20102 -0.0503,-0.45229 0,-0.27641 0,-0.62819 0,-0.65332 -0.10051,-1.55792 -0.0754,-0.92972 -0.37692,-1.78406 -0.2764,-0.85434 -0.80408,-1.43227 -0.50255,-0.60306 -1.38202,-0.60306 -0.4523,0 -0.80408,0.20102 -0.32666,0.20102 -0.60307,0.52768 -0.25127,0.32666 -0.42717,0.7287 -0.17589,0.40204 -0.25127,0.80408 -0.15077,0.70357 -0.15077,2.88968 z" /><path
       id="path968"
       style="font-style:normal;font-variant:normal;font-weight:normal;font-stretch:normal;font-family:PreciousPlastic;-inkscape-font-specification:PreciousPlastic;stroke-width:0.82801527"
       d="m 767.86341,407.20737 q 0,-1.60817 0.87947,-1.60817 0.32666,0 0.62819,0.30153 l 0.30153,0.30154 0.0251,1.43227 q 0.0251,1.20613 0.0503,2.46251 0.0251,1.25638 0.0754,2.4625 0.0503,1.23126 0.0503,2.43738 0.0251,1.20613 0.0503,2.48764 0.0251,0.97997 0.0251,1.53278 0.0251,0.55281 0.0251,0.57794 0,0.22615 -0.0251,0.47742 0,0.22615 -0.10051,0.4523 -0.0754,0.20102 -0.25127,0.35179 -0.1759,0.12563 -0.52768,0.12563 -0.27641,0 -0.50256,-0.17589 -0.20102,-0.20102 -0.30153,-0.47742 -0.0754,-0.25128 -0.12564,-2.01021 -0.0251,-1.75894 -0.12563,-4.84963 l -0.0251,-0.77896 q -0.0251,-0.65332 -0.0251,-1.20613 0,-0.5528 -0.0251,-1.05536 -0.0503,-1.30663 -0.0503,-2.03533 0,-0.75383 -0.0251,-0.87947 z" /><path
       id="path970"
       style="font-style:normal;font-variant:normal;font-weight:normal;font-stretch:normal;font-family:PreciousPlastic;-inkscape-font-specification:PreciousPlastic;stroke-width:0.82801527"
       d="m 771.48174,412.25802 q 0,-0.87946 0.0754,-1.75893 0.0754,-0.87947 0.2764,-1.70868 0.22615,-0.82921 0.60306,-1.60817 0.40205,-0.80408 1.03024,-1.50765 0.57793,-0.65332 1.40714,-1.10562 0.82921,-0.4523 1.70868,-0.4523 0.35179,0 0.75383,0.20102 0.40204,0.1759 0.40204,0.67845 0,0.4523 -0.35179,0.67845 -0.35178,0.20102 -0.70357,0.25127 -0.67844,0.0754 -1.181,0.37692 -0.47742,0.30153 -0.85434,0.77895 -0.35178,0.47743 -0.62819,1.05536 -0.25127,0.57794 -0.47742,1.20613 -0.25128,0.7287 -0.25128,2.96506 0,0.87946 0.0754,2.03534 0.0754,1.15587 0.37691,2.21123 0.32666,1.03023 0.97998,1.75893 0.67844,0.70357 1.85944,0.70357 h 0.10051 q 0.25128,-0.12564 0.47743,-0.32666 0.25127,-0.22615 0.37691,-0.50255 0.0754,-0.32666 0.12564,-0.97998 0.0503,-0.67844 0.0503,-1.7338 v -0.77896 h -0.0754 q -0.20102,0 -0.42717,-0.0251 -0.22615,-0.0251 -0.42717,-0.10051 -0.20102,-0.10051 -0.32666,-0.2764 -0.12564,-0.17589 -0.12564,-0.47742 0,-0.35179 0.15077,-0.52768 0.17589,-0.20103 0.40204,-0.27641 0.25128,-0.10051 0.50255,-0.10051 0.27641,-0.0251 0.47743,-0.0251 0.97998,0 1.20613,0.25128 0.42716,0.47742 0.42716,1.53278 0,0.22615 0,0.4523 0.0251,0.20102 0,0.40204 -0.0251,0.20102 -0.0251,0.37692 0,0.15076 0,0.32666 0,0.97997 -0.0251,1.58304 -0.0251,0.57793 -0.0754,0.77895 -0.10051,0.47743 -0.40205,0.9046 -0.30153,0.42717 -0.7287,0.75383 -0.40204,0.30153 -0.90459,0.47742 -0.47743,0.17589 -0.95485,0.17589 -0.37691,0 -0.82921,-0.12563 -0.4523,-0.12564 -0.9046,-0.32666 -0.42717,-0.20102 -0.80408,-0.47743 -0.37691,-0.2764 -0.65332,-0.60306 -0.60306,-0.7287 -0.95485,-1.58304 -0.32666,-0.87947 -0.50255,-1.80919 -0.15077,-0.92972 -0.20102,-1.88457 -0.0503,-0.95485 -0.0503,-1.83432 z" /><path
       id="path972"
       style="font-style:normal;font-variant:normal;font-weight:normal;font-stretch:normal;font-family:PreciousPlastic;-inkscape-font-specification:PreciousPlastic;stroke-width:0.82801527"
       d="m 781.03024,406.55405 q 0.12564,-1.05536 0.80408,-1.05536 0.37692,0 0.82921,0.4523 0.27641,0.2764 0.87947,1.58304 0.60306,1.30664 1.53278,3.59325 l 0.35179,0.85434 q 0.20102,0.4523 0.35179,0.85434 0.17589,0.40204 0.30153,0.75383 0.20102,0.52768 0.32666,0.85434 0.12564,0.30153 0.22615,0.5528 0.10051,0.25128 0.20102,0.47743 0.10051,0.22615 0.22615,0.52768 -0.0251,-1.00511 -0.10051,-1.98508 -0.0503,-1.00511 -0.12564,-1.98509 -0.0503,-0.35178 -0.0503,-0.60306 0,-0.2764 0,-0.40204 0,-0.82921 -0.0503,-1.53279 -0.0503,-0.7287 -0.12564,-1.33176 -0.0503,-0.4523 -0.0754,-0.85434 -0.0251,-0.40204 -0.0251,-0.75383 v -0.10051 q 0,-0.35178 0.22615,-0.70357 0.25127,-0.37692 0.55281,-0.37692 0.70357,0 0.90459,0.87947 0.0754,0.35179 0.12564,1.48253 0.0754,1.13074 0.20102,3.0907 0.0503,1.13074 0.12564,2.46251 0.10051,1.33176 0.20102,2.9148 0.0503,0.90459 0.0754,1.65842 0.0251,0.7287 0.0251,1.25638 0,0.1759 -0.0251,0.50256 0,0.30153 -0.10051,0.60306 -0.0754,0.30153 -0.2764,0.52768 -0.1759,0.22615 -0.52768,0.22615 -0.42717,0 -0.70358,-0.37692 -0.25127,-0.40204 -0.42717,-0.75383 -0.17589,-0.35178 -0.65331,-1.35689 -0.47743,-1.0051 -1.13075,-2.66353 -0.50255,-1.30663 -1.05536,-2.61327 -0.55281,-1.33176 -1.10561,-2.61327 0.0503,1.05536 0.0754,2.11072 0.0503,1.05536 0.10051,2.11072 0.0503,1.80919 0.10051,3.04044 0.0754,1.23126 0.0754,1.80919 0,0.2764 -0.0251,0.47743 0,0.17589 -0.0251,0.30153 -0.0503,0.2764 -0.27641,0.37691 -0.22614,0.10051 -0.42716,0.10051 -0.32666,0 -0.57794,-0.20102 -0.25128,-0.22615 -0.32666,-0.67844 -0.0251,-0.12564 -0.12564,-1.68356 -0.10051,-1.55791 -0.20102,-4.59835 -0.0251,-0.65332 -0.0503,-1.25638 -0.0251,-0.62819 -0.0503,-1.181 -0.0503,-1.88457 -0.12564,-3.04044 -0.0503,-1.15587 -0.0503,-1.58304 z" /><path
       id="path974"
       style="font-style:normal;font-variant:normal;font-weight:normal;font-stretch:normal;font-family:PreciousPlastic;-inkscape-font-specification:PreciousPlastic;stroke-width:0.82801527"
       d="m 790.40281,407.78531 q 0,-2.03534 0.10051,-2.23636 0.2764,-0.42717 0.70357,-0.47743 0.42717,-0.0754 1.181,-0.0754 h 0.17589 q 0.15077,-0.0251 0.32666,-0.0251 0.1759,0 0.37692,0 h 0.40204 q 0.2764,0 0.55281,0.0251 0.2764,0 0.47742,0.10051 0.22615,0.10051 0.35179,0.30153 0.15076,0.20102 0.15076,0.55281 h 0.0503 q -0.17589,0.30153 -0.50255,0.47742 -0.32666,0.1759 -0.70358,0.25128 -0.37691,0.0754 -0.77895,0.10051 -0.37692,0 -0.70358,0 -0.10051,0 -0.20102,0.0251 -0.10051,0 -0.20102,0 l 0.0251,2.48763 q 0.0251,1.05536 0.0503,1.80919 0.0251,0.7287 0.0251,1.10562 v 0.22615 q 1.20613,0.0251 1.20613,0.87946 0,0.52768 -0.37692,0.75383 -0.35178,0.20102 -0.77895,0.22615 v 0.40204 q -0.0251,0.12564 -0.0251,0.27641 0,0.12563 0,0.32665 0,0.60307 0,1.25639 0.0251,0.62819 0.0754,1.35689 0.0251,0.2764 0,0.52768 0,0.25127 0.0503,0.40204 0.0251,0.0754 0.0251,0.22615 0.12564,0.0251 0.30154,0.0503 0.20102,0 0.47742,0 1.15587,0 1.50766,0.15077 0.37691,0.15076 0.37691,0.65332 v 0.0503 q 0,0.27641 -0.37691,0.95485 l -1.75894,-0.0251 h -0.22614 q -0.67845,0 -1.03024,0 -0.35178,-0.0251 -0.5528,-0.0754 -0.1759,-0.0503 -0.25128,-0.17589 -0.0754,-0.15077 -0.17589,-0.37692 -0.0503,-0.12563 -0.10051,-1.0051 -0.0251,-0.87947 -0.0754,-2.13585 -0.0251,-1.28151 -0.0754,-2.76404 -0.0251,-1.48253 -0.0503,-2.81429 0,-1.35689 -0.0251,-2.38712 0,-1.03024 0,-1.38202 z" /><path
       id="path976"
       style="font-style:normal;font-variant:normal;font-weight:normal;font-stretch:normal;font-family:PreciousPlastic;-inkscape-font-specification:PreciousPlastic;stroke-width:0.82801527"
       d="m 796.70983,407.78531 q 0,-2.03534 0.10051,-2.23636 0.2764,-0.42717 0.70357,-0.47743 0.42717,-0.0754 1.181,-0.0754 h 0.17589 q 0.15077,-0.0251 0.32666,-0.0251 0.17589,0 0.37691,0 h 0.40205 q 0.2764,0 0.5528,0.0251 0.27641,0 0.47743,0.10051 0.22615,0.10051 0.35179,0.30153 0.15076,0.20102 0.15076,0.55281 h 0.0503 q -0.1759,0.30153 -0.50256,0.47742 -0.32665,0.1759 -0.70357,0.25128 -0.37691,0.0754 -0.77896,0.10051 -0.37691,0 -0.70357,0 -0.10051,0 -0.20102,0.0251 -0.10051,0 -0.20102,0 l 0.0251,2.48763 q 0.0251,1.05536 0.0503,1.80919 0.0251,0.7287 0.0251,1.10562 v 0.22615 q 1.20613,0.0251 1.20613,0.87946 0,0.52768 -0.37692,0.75383 -0.35179,0.20102 -0.77895,0.22615 v 0.40204 q -0.0251,0.12564 -0.0251,0.27641 0,0.12563 0,0.32665 0,0.60307 0,1.25639 0.0251,0.62819 0.0754,1.35689 0.0251,0.2764 0,0.52768 0,0.25127 0.0503,0.40204 0.0251,0.0754 0.0251,0.22615 0.12564,0.0251 0.30153,0.0503 0.20103,0 0.47743,0 1.15587,0 1.50766,0.15077 0.37691,0.15076 0.37691,0.65332 v 0.0503 q 0,0.27641 -0.37691,0.95485 l -1.75894,-0.0251 h -0.22615 q -0.67844,0 -1.03023,0 -0.35178,-0.0251 -0.55281,-0.0754 -0.17589,-0.0503 -0.25127,-0.17589 -0.0754,-0.15077 -0.1759,-0.37692 -0.0503,-0.12563 -0.10051,-1.0051 -0.0251,-0.87947 -0.0754,-2.13585 -0.0251,-1.28151 -0.0754,-2.76404 -0.0251,-1.48253 -0.0503,-2.81429 0,-1.35689 -0.0251,-2.38712 0,-1.03024 0,-1.38202 z" /><path
       id="path978"
       style="font-style:normal;font-variant:normal;font-weight:normal;font-stretch:normal;font-family:PreciousPlastic;-inkscape-font-specification:PreciousPlastic;stroke-width:0.82801527"
       d="m 803.04197,420.1481 q 0,-0.4523 0.30153,-0.67845 0.32666,-0.25128 1.73381,-0.55281 1.13074,-0.25127 1.7338,-1.10561 0.60307,-0.85434 0.60307,-1.93483 0,-0.67845 -0.10051,-1.181 -0.10051,-0.50255 -0.30153,-0.90459 -0.20103,-0.42717 -0.55281,-0.82921 -0.32666,-0.40205 -0.77896,-0.85434 -0.37691,-0.37692 -0.67844,-0.65332 -0.27641,-0.27641 -0.4523,-0.4523 -0.57794,-0.57793 -1.00511,-1.25638 -0.42717,-0.70357 -0.42717,-1.53278 0,-0.62819 0.27641,-1.25639 0.2764,-0.62819 0.7287,-1.13074 0.4523,-0.52768 1.05536,-0.82921 0.60306,-0.32666 1.23125,-0.32666 0.85434,0 0.85434,0.80409 0,0.40204 -0.15076,0.52768 -0.12564,0.12563 -0.7287,0.35178 -0.65332,0.25128 -1.08049,0.7287 -0.42717,0.4523 -0.42717,1.181 0,0.17589 0.0503,0.35179 0.0503,0.17589 0.10051,0.30153 0,0.0251 0.22615,0.2764 0.25128,0.25128 0.55281,0.55281 0.30153,0.30153 0.60306,0.57794 0.30153,0.2764 0.40204,0.40204 l 0.32666,0.30153 q 0.37692,0.35179 0.62819,0.60306 0.25128,0.25128 0.32666,0.37692 0.47743,0.85434 0.80409,1.78406 0.35178,0.92972 0.35178,2.13585 0,1.30663 -0.7287,2.51276 -0.70357,1.181 -1.83431,1.83431 -0.1759,0.0754 -0.55281,0.20102 -0.37692,0.12564 -0.80408,0.25128 -0.40205,0.10051 -0.80409,0.20102 -0.40204,0.0754 -0.62819,0.0754 -0.85434,0 -0.85434,-0.85433 z" /><path
       id="path980"
       style="font-style:normal;font-variant:normal;font-weight:normal;font-stretch:normal;font-family:PreciousPlastic;-inkscape-font-specification:PreciousPlastic;stroke-width:0.82801527"
       d="m 824.65161,404.61923 q 1.43227,0 2.58814,0.7287 1.15588,0.7287 1.95996,1.85944 0.50255,0.77896 0.80408,1.6333 0.32666,0.82921 0.50256,1.70867 0.17589,0.85434 0.22614,1.75894 0.0503,0.90459 0.0503,1.80919 0,0.80408 -0.0251,1.35689 -0.0251,0.52768 -0.0754,0.77895 -0.25128,1.05536 -0.70357,1.93483 -0.42717,0.87947 -1.08049,1.50766 -0.65332,0.60306 -1.53279,0.95485 -0.87946,0.35178 -2.01021,0.35178 h -0.17589 q -1.05536,-0.0251 -1.25638,-0.80408 -0.0754,-0.30153 -0.10051,-1.08049 -0.0251,-0.77895 -0.0754,-1.98508 -0.0251,-0.80408 -0.0503,-1.80919 0,-1.0051 -0.12564,-2.21123 -0.0251,-0.40204 -0.0754,-1.60817 0,-0.80408 -0.0251,-1.60816 -0.0251,-0.80409 -0.0754,-1.60817 -0.0754,-1.55791 -0.0754,-2.23636 0,-0.4523 0.0503,-0.7287 0.0503,-0.2764 0.17589,-0.42717 0.15077,-0.17589 0.40205,-0.22615 0.2764,-0.0503 0.70357,-0.0503 z m 0.40204,1.93482 q 0.12564,0.67845 0.15077,2.26149 0.0251,0.77895 0.0503,1.70868 0.0251,0.90459 0.0503,1.95995 0.0251,1.05536 0.0251,1.6333 0.0251,0.57793 0.0251,0.70357 0.0503,1.50766 0.12564,2.61327 0.0754,1.10562 0.15077,1.75894 1.28151,-0.32666 2.03533,-1.03024 0.77896,-0.7287 1.181,-2.01021 0.15077,-0.50255 0.15077,-2.1861 0,-1.03023 -0.1759,-2.23636 -0.15076,-1.23125 -0.60306,-2.31174 -0.42717,-1.10561 -1.20612,-1.9097 -0.75383,-0.82921 -1.98509,-1.08049 0,0.0503 0,0.0754 0.0251,0.0251 0.0251,0.0503 z" /><path
       id="path982"
       style="font-style:normal;font-variant:normal;font-weight:normal;font-stretch:normal;font-family:PreciousPlastic;-inkscape-font-specification:PreciousPlastic;stroke-width:0.82801527"
       d="m 832.2904,407.78531 q 0,-2.03534 0.10051,-2.23636 0.2764,-0.42717 0.70357,-0.47743 0.42717,-0.0754 1.181,-0.0754 h 0.1759 q 0.15076,-0.0251 0.32665,-0.0251 0.1759,0 0.37692,0 h 0.40204 q 0.2764,0 0.55281,0.0251 0.2764,0 0.47742,0.10051 0.22615,0.10051 0.35179,0.30153 0.15077,0.20102 0.15077,0.55281 h 0.0503 q -0.17589,0.30153 -0.50255,0.47742 -0.32666,0.1759 -0.70358,0.25128 -0.37691,0.0754 -0.77895,0.10051 -0.37692,0 -0.70357,0 -0.10052,0 -0.20103,0.0251 -0.10051,0 -0.20102,0 l 0.0251,2.48763 q 0.0251,1.05536 0.0503,1.80919 0.0251,0.7287 0.0251,1.10562 v 0.22615 q 1.20613,0.0251 1.20613,0.87946 0,0.52768 -0.37691,0.75383 -0.35179,0.20102 -0.77896,0.22615 v 0.40204 q -0.0251,0.12564 -0.0251,0.27641 0,0.12563 0,0.32665 0,0.60307 0,1.25639 0.0251,0.62819 0.0754,1.35689 0.0251,0.2764 0,0.52768 0,0.25127 0.0503,0.40204 0.0251,0.0754 0.0251,0.22615 0.12564,0.0251 0.30153,0.0503 0.20102,0 0.47742,0 1.15587,0 1.50766,0.15077 0.37691,0.15076 0.37691,0.65332 v 0.0503 q 0,0.27641 -0.37691,0.95485 l -1.75893,-0.0251 h -0.22615 q -0.67845,0 -1.03023,0 -0.35179,-0.0251 -0.55281,-0.0754 -0.17589,-0.0503 -0.25128,-0.17589 -0.0754,-0.15077 -0.17589,-0.37692 -0.0503,-0.12563 -0.10051,-1.0051 -0.0251,-0.87947 -0.0754,-2.13585 -0.0251,-1.28151 -0.0754,-2.76404 -0.0251,-1.48253 -0.0503,-2.81429 0,-1.35689 -0.0251,-2.38712 0,-1.03024 0,-1.38202 z" /><path
       id="path984"
       style="font-style:normal;font-variant:normal;font-weight:normal;font-stretch:normal;font-family:PreciousPlastic;-inkscape-font-specification:PreciousPlastic;stroke-width:0.82801527"
       d="m 846.46231,406.47867 q 0.4523,-0.65332 1.05536,-1.20613 0.60307,-0.57793 1.48253,-0.57793 h 0.12564 l 0.0503,0.0251 q 0.25127,0 0.57793,0.30153 0.32666,0.30153 0.32666,0.55281 0,0.80408 -1.0051,0.90459 -0.20102,0.0251 -0.42717,0.22615 -0.22615,0.17589 -0.4523,0.4523 -0.77896,0.97997 -1.10561,2.36199 -0.30154,1.38202 -0.30154,3.543 0,1.7338 0.27641,2.99018 0.30153,1.25638 0.80408,2.06047 0.35179,0.4523 0.80409,0.67844 0.45229,0.22615 1.25638,0.32666 1.03023,0.12564 1.03023,0.92973 0,0.87946 -1.03023,0.87946 h -0.12564 q -1.25638,-0.0503 -2.11072,-0.52768 -0.85434,-0.50255 -1.40715,-1.28151 -0.52768,-0.80408 -0.82921,-1.80919 -0.2764,-1.0051 -0.42717,-2.08559 -0.0754,-0.52768 -0.0754,-2.26148 0,-1.65843 0.25127,-3.34198 0.27641,-1.70868 1.25638,-3.14095 z" /><path
       id="path986"
       style="font-style:normal;font-variant:normal;font-weight:normal;font-stretch:normal;font-family:PreciousPlastic;-inkscape-font-specification:PreciousPlastic;stroke-width:0.82801527"
       d="m 852.59343,420.19835 q 0,-0.12564 0.0251,-0.32666 0.0251,-0.20102 0.0754,-0.4523 0.10051,-0.57793 0.42717,-2.23635 0.32666,-1.65843 0.87947,-4.39734 0.52768,-2.66353 0.82921,-4.19631 0.32666,-1.55791 0.37691,-1.73381 0.10051,-0.42717 0.55281,-0.77895 0.4523,-0.37692 0.90459,-0.37692 0.35179,0 0.55281,0.20102 0.20102,0.20103 0.57794,1.23126 0.37691,1.03023 0.80408,2.99018 0.10051,0.42717 0.20102,0.85434 0.12564,0.42717 0.25128,0.92973 0.30153,1.20612 0.67844,2.66352 0.40204,1.43228 0.85434,3.24147 0.60306,2.41225 0.60306,2.83942 0,0.35178 -0.25127,0.60306 -0.22615,0.25128 -0.57794,0.25128 -0.52768,0 -0.80408,-0.65332 -0.12564,-0.32666 -0.62819,-1.83432 -0.50255,-1.50765 -0.97998,-4.0958 -0.0503,-0.30153 -0.12564,-0.52768 -0.0503,-0.22615 -0.10051,-0.32666 -0.37691,-0.0754 -1.98508,-0.0754 h -0.15076 q -0.0503,0.20102 -0.10051,0.50255 -0.0503,0.30153 -0.15077,0.75383 -0.10051,0.4523 -0.20102,0.90459 -0.10051,0.4523 -0.1759,0.92973 -0.0503,0.32665 -0.15076,0.82921 -0.0754,0.47742 -0.17589,0.97997 -0.0754,0.50256 -0.20103,0.95485 -0.10051,0.4523 -0.22614,0.70358 -0.25128,0.52768 -0.75383,0.52768 -0.35179,0 -0.60307,-0.25128 -0.25127,-0.2764 -0.25127,-0.62819 z m 3.34197,-8.01571 h 0.70358 q 0.20102,0 0.35178,0 0.1759,0 0.30153,0.0251 -0.0251,-0.0754 -0.0503,-0.15077 -0.0251,-0.0754 -0.0503,-0.17589 l -0.0251,-0.12564 q -0.0251,-0.12564 -0.10051,-0.35179 -0.0503,-0.25127 -0.15077,-0.57793 -0.12564,-0.35179 -0.17589,-0.67845 -0.0503,-0.32666 -0.15077,-0.67844 l -0.0754,-0.30153 q -0.0503,0.20102 -0.10051,0.42716 -0.0251,0.22615 -0.0754,0.47743 -0.17589,0.7287 -0.2764,1.25638 -0.0754,0.52768 -0.12564,0.85434 z" /><path
       id="path988"
       style="font-style:normal;font-variant:normal;font-weight:normal;font-stretch:normal;font-family:PreciousPlastic;-inkscape-font-specification:PreciousPlastic;stroke-width:0.82801527"
       d="m 862.74495,420.1481 q 0,-0.4523 0.30153,-0.67845 0.32666,-0.25128 1.73381,-0.55281 1.13074,-0.25127 1.7338,-1.10561 0.60306,-0.85434 0.60306,-1.93483 0,-0.67845 -0.10051,-1.181 -0.10051,-0.50255 -0.30153,-0.90459 -0.20102,-0.42717 -0.55281,-0.82921 -0.32665,-0.40205 -0.77895,-0.85434 -0.37692,-0.37692 -0.67845,-0.65332 -0.2764,-0.27641 -0.45229,-0.4523 -0.57794,-0.57793 -1.00511,-1.25638 -0.42717,-0.70357 -0.42717,-1.53278 0,-0.62819 0.2764,-1.25639 0.27641,-0.62819 0.72871,-1.13074 0.45229,-0.52768 1.05536,-0.82921 0.60306,-0.32666 1.23125,-0.32666 0.85434,0 0.85434,0.80409 0,0.40204 -0.15077,0.52768 -0.12564,0.12563 -0.7287,0.35178 -0.65332,0.25128 -1.08049,0.7287 -0.42717,0.4523 -0.42717,1.181 0,0.17589 0.0503,0.35179 0.0503,0.17589 0.10051,0.30153 0,0.0251 0.22615,0.2764 0.25127,0.25128 0.55281,0.55281 0.30153,0.30153 0.60306,0.57794 0.30153,0.2764 0.40204,0.40204 l 0.32666,0.30153 q 0.37691,0.35179 0.62819,0.60306 0.25128,0.25128 0.32666,0.37692 0.47742,0.85434 0.80408,1.78406 0.35179,0.92972 0.35179,2.13585 0,1.30663 -0.7287,2.51276 -0.70357,1.181 -1.83432,1.83431 -0.17589,0.0754 -0.5528,0.20102 -0.37692,0.12564 -0.80409,0.25128 -0.40204,0.10051 -0.80408,0.20102 -0.40204,0.0754 -0.62819,0.0754 -0.85434,0 -0.85434,-0.85433 z" /><path
       id="path990"
       style="font-style:normal;font-variant:normal;font-weight:normal;font-stretch:normal;font-family:PreciousPlastic;-inkscape-font-specification:PreciousPlastic;stroke-width:0.82801527"
       d="m 870.45911,420.1481 q 0,-0.4523 0.30153,-0.67845 0.32666,-0.25128 1.7338,-0.55281 1.13075,-0.25127 1.73381,-1.10561 0.60306,-0.85434 0.60306,-1.93483 0,-0.67845 -0.10051,-1.181 -0.10051,-0.50255 -0.30153,-0.90459 -0.20102,-0.42717 -0.55281,-0.82921 -0.32666,-0.40205 -0.77895,-0.85434 -0.37692,-0.37692 -0.67845,-0.65332 -0.2764,-0.27641 -0.4523,-0.4523 -0.57793,-0.57793 -1.0051,-1.25638 -0.42717,-0.70357 -0.42717,-1.53278 0,-0.62819 0.2764,-1.25639 0.27641,-0.62819 0.7287,-1.13074 0.4523,-0.52768 1.05536,-0.82921 0.60307,-0.32666 1.23126,-0.32666 0.85434,0 0.85434,0.80409 0,0.40204 -0.15077,0.52768 -0.12564,0.12563 -0.7287,0.35178 -0.65332,0.25128 -1.08049,0.7287 -0.42717,0.4523 -0.42717,1.181 0,0.17589 0.0503,0.35179 0.0503,0.17589 0.10051,0.30153 0,0.0251 0.22615,0.2764 0.25127,0.25128 0.5528,0.55281 0.30153,0.30153 0.60307,0.57794 0.30153,0.2764 0.40204,0.40204 l 0.32666,0.30153 q 0.37691,0.35179 0.62819,0.60306 0.25127,0.25128 0.32666,0.37692 0.47742,0.85434 0.80408,1.78406 0.35179,0.92972 0.35179,2.13585 0,1.30663 -0.7287,2.51276 -0.70358,1.181 -1.83432,1.83431 -0.17589,0.0754 -0.55281,0.20102 -0.37691,0.12564 -0.80408,0.25128 -0.40204,0.10051 -0.80409,0.20102 -0.40204,0.0754 -0.62819,0.0754 -0.85433,0 -0.85433,-0.85433 z" /><path
       id="path992"
       style="font-style:normal;font-variant:normal;font-weight:normal;font-stretch:normal;font-family:PreciousPlastic;-inkscape-font-specification:PreciousPlastic;stroke-width:0.82801527"
       d="m 878.14813,407.78531 q 0,-2.03534 0.10052,-2.23636 0.2764,-0.42717 0.70357,-0.47743 0.42717,-0.0754 1.181,-0.0754 h 0.17589 q 0.15077,-0.0251 0.32666,-0.0251 0.17589,0 0.37691,0 h 0.40205 q 0.2764,0 0.5528,0.0251 0.27641,0 0.47743,0.10051 0.22615,0.10051 0.35178,0.30153 0.15077,0.20102 0.15077,0.55281 h 0.0503 q -0.1759,0.30153 -0.50256,0.47742 -0.32666,0.1759 -0.70357,0.25128 -0.37691,0.0754 -0.77896,0.10051 -0.37691,0 -0.70357,0 -0.10051,0 -0.20102,0.0251 -0.10051,0 -0.20102,0 l 0.0251,2.48763 q 0.0251,1.05536 0.0503,1.80919 0.0251,0.7287 0.0251,1.10562 v 0.22615 q 1.20612,0.0251 1.20612,0.87946 0,0.52768 -0.37691,0.75383 -0.35179,0.20102 -0.77896,0.22615 v 0.40204 q -0.0251,0.12564 -0.0251,0.27641 0,0.12563 0,0.32665 0,0.60307 0,1.25639 0.0251,0.62819 0.0754,1.35689 0.0251,0.2764 0,0.52768 0,0.25127 0.0503,0.40204 0.0251,0.0754 0.0251,0.22615 0.12564,0.0251 0.30153,0.0503 0.20102,0 0.47743,0 1.15587,0 1.50766,0.15077 0.37691,0.15076 0.37691,0.65332 v 0.0503 q 0,0.27641 -0.37691,0.95485 l -1.75894,-0.0251 H 880.485 q -0.67844,0 -1.03023,0 -0.35179,-0.0251 -0.55281,-0.0754 -0.17589,-0.0503 -0.25127,-0.17589 -0.0754,-0.15077 -0.1759,-0.37692 -0.0503,-0.12563 -0.10051,-1.0051 -0.0251,-0.87947 -0.0754,-2.13585 -0.0251,-1.28151 -0.0754,-2.76404 -0.0251,-1.48253 -0.0503,-2.81429 0,-1.35689 -0.0251,-2.38712 0,-1.03024 0,-1.38202 z" /><path
       id="path994"
       style="font-style:normal;font-variant:normal;font-weight:normal;font-stretch:normal;font-family:PreciousPlastic;-inkscape-font-specification:PreciousPlastic;stroke-width:0.82801527"
       d="m 884.45516,416.57997 v -2.11072 q 0,-0.45229 0,-0.80408 0.0251,-0.37691 0.0251,-0.65332 0.0754,-2.56302 0.0754,-5.37731 0.0251,-0.95485 0.0754,-1.60817 0.0503,-0.67844 0.12564,-1.05536 l -0.12564,-0.17589 0.20102,-0.20102 q 0.30153,-0.30153 0.70357,-0.30153 0.37692,0 0.77896,0.15076 0.42717,0.12564 0.82921,0.35179 0.40204,0.22615 0.75383,0.50255 0.35179,0.27641 0.57794,0.52768 0.97997,1.08049 1.30663,2.13585 0.32666,1.05536 0.32666,2.43738 v 0.2764 q 0,0.42717 -0.20102,0.92972 -0.17589,0.50256 -0.47742,0.97998 -0.30154,0.47743 -0.67845,0.85434 -0.37691,0.37692 -0.75383,0.57794 l 0.0503,0.0503 q 0.0251,0 0.0251,0.0251 0,0 0.0251,0 l 0.0251,0.0251 q 0.65332,0.50255 1.25638,1.58304 0.12564,0.22615 0.37691,0.82921 0.25128,0.60306 0.50256,1.28151 0.25127,0.67844 0.42717,1.30663 0.20102,0.60307 0.20102,0.85434 0,0.35179 -0.27641,0.65332 -0.25127,0.2764 -0.60306,0.2764 h -0.10051 q -0.0754,0 -0.17589,-0.0503 -0.0754,-0.0503 -0.20102,-0.10051 v 0.0251 q -0.0251,-0.0251 -0.0503,-0.0503 0,-0.0251 -0.0251,-0.0503 -0.0754,-0.0251 -0.12563,-0.0754 l 0.0251,-0.0503 q -0.35178,-0.55281 -0.7287,-1.80919 -0.15076,-0.50255 -0.35178,-1.05536 -0.20103,-0.57794 -0.50256,-1.10562 -0.2764,-0.52768 -0.65332,-0.95485 -0.35178,-0.45229 -0.82921,-0.70357 v 0.55281 q 0,0.4523 -0.0251,0.95485 0,0.47742 0.0503,0.97997 0.0251,0.32666 0.0251,0.70358 0,0.37691 0,0.75383 v 0.77895 q 0,0.35179 -0.0251,0.60307 0,0.25127 -0.0251,0.37691 -0.0503,0.2764 -0.30153,0.40204 -0.22615,0.10051 -0.47742,0.10051 -0.50256,0 -0.67845,-0.25127 -0.15076,-0.27641 -0.25128,-0.70358 -0.0251,-0.10051 -0.0251,-0.2764 0,-0.17589 0,-0.42717 0,-0.52768 -0.0754,-1.35689 -0.0251,-0.27641 -0.0251,-0.65332 0,-0.37691 0,-0.87947 z m 1.88457,-4.19631 v 0.22615 h 0.0503 l 0.10051,-0.0503 q 0.27641,-0.12563 0.47743,-0.17589 0.20102,-0.0503 0.25127,-0.10051 0.12564,-0.10051 0.30154,-0.30153 0.17589,-0.20102 0.37691,-0.47743 0.2764,-0.35178 0.32666,-0.5528 0.0503,-0.22615 0.0503,-0.75383 0,-1.28151 -0.42717,-2.16098 -0.40205,-0.87946 -1.45741,-1.53278 v 0.25127 q 0,0.4523 -0.0251,0.97998 0,0.50255 0,1.08049 0,0.77895 -0.0251,1.65842 0,0.85434 0,1.9097 z" /><path
       id="path996"
       style="font-style:normal;font-variant:normal;font-weight:normal;font-stretch:normal;font-family:PreciousPlastic;-inkscape-font-specification:PreciousPlastic;stroke-width:0.82801527"
       d="m 892.57137,408.99143 q 0.0754,-0.87946 0.35179,-1.63329 0.30153,-0.77896 0.77896,-1.33177 0.50255,-0.57793 1.20612,-0.90459 0.7287,-0.32666 1.65842,-0.32666 1.10562,0 1.88458,0.50255 0.77895,0.50255 1.2815,1.28151 0.50256,0.77896 0.75383,1.75893 0.27641,0.95485 0.37692,1.85945 0.0503,0.50255 0.0754,1.30663 0.0251,0.77896 0.0503,1.83432 0,0.82921 -0.0503,1.75893 -0.0251,0.92973 -0.20102,1.83432 -0.17589,0.90459 -0.55281,1.73381 -0.37691,0.80408 -1.03023,1.40714 -0.97998,0.9046 -2.362,0.9046 -1.28151,0 -2.11072,-0.7287 -0.82921,-0.72871 -1.30663,-1.80919 -0.47743,-1.08049 -0.65332,-2.31174 -0.17589,-1.23126 -0.17589,-2.23636 0,-0.50255 -0.0503,-0.97998 -0.0503,-0.47742 -0.0503,-0.97998 0,-0.87946 0.0251,-1.60816 0.0503,-0.75383 0.10051,-1.33177 z m 1.68355,2.68866 q 0,0.65332 0.0503,1.78406 0.0503,1.10561 0.22615,2.23636 0.20102,1.13074 0.52768,2.08559 0.35178,0.92972 0.92972,1.20612 0.20102,0.10052 0.7287,0.10052 0.90459,0 1.40715,-0.6282 0.50255,-0.62819 0.75383,-1.53278 0.25127,-0.90459 0.30153,-1.88457 0.0503,-1.00511 0.0503,-1.70868 l -0.0503,-0.35179 h 0.0251 q -0.0251,-0.20102 -0.0503,-0.45229 0,-0.27641 0,-0.62819 0,-0.65332 -0.10051,-1.55792 -0.0754,-0.92972 -0.37692,-1.78406 -0.2764,-0.85434 -0.80408,-1.43227 -0.50255,-0.60306 -1.38202,-0.60306 -0.4523,0 -0.80408,0.20102 -0.32666,0.20102 -0.60307,0.52768 -0.25127,0.32666 -0.42716,0.7287 -0.1759,0.40204 -0.25128,0.80408 -0.15077,0.70357 -0.15077,2.88968 z" /><path
       id="path998"
       style="font-style:normal;font-variant:normal;font-weight:normal;font-stretch:normal;font-family:PreciousPlastic;-inkscape-font-specification:PreciousPlastic;stroke-width:0.82801527"
       d="m 902.47164,412.08213 q 0,-3.06557 0.0503,-4.67374 0.0503,-1.60817 0.17589,-1.7338 0.25128,-0.25128 0.50256,-0.25128 0.57793,0 0.82921,0.67845 0.0503,0.2764 0.0754,1.55791 0.0503,1.28151 0.0754,3.49274 0.0251,1.95995 0.0251,3.49274 0,1.53278 0,2.58814 0,1.53279 -0.10051,1.9097 0.35179,0 0.67845,0.0251 0.35178,0.0251 0.67844,0.10051 v -0.22615 q 0.75383,0.75383 0.75383,1.08049 0,0.4523 -0.35179,0.67844 -0.35178,0.22615 -0.70357,0.22615 -0.10051,0 -0.40204,0 -0.2764,-0.0251 -0.60306,-0.0503 -0.32666,-0.0251 -0.60307,-0.0503 -0.25127,-0.0251 -0.30153,-0.0503 -0.50255,-0.30153 -0.67844,-1.15587 -0.10051,-0.42717 -0.10051,-7.6388 z" /><path
       id="path1000"
       style="font-style:normal;font-variant:normal;font-weight:normal;font-stretch:normal;font-family:PreciousPlastic;-inkscape-font-specification:PreciousPlastic;stroke-width:0.82801527"
       d="m 907.7233,407.78531 q 0,-2.03534 0.10051,-2.23636 0.2764,-0.42717 0.70357,-0.47743 0.42717,-0.0754 1.181,-0.0754 h 0.17589 q 0.15077,-0.0251 0.32666,-0.0251 0.1759,0 0.37692,0 h 0.40204 q 0.2764,0 0.55281,0.0251 0.2764,0 0.47742,0.10051 0.22615,0.10051 0.35179,0.30153 0.15076,0.20102 0.15076,0.55281 h 0.0503 q -0.17589,0.30153 -0.50255,0.47742 -0.32666,0.1759 -0.70358,0.25128 -0.37691,0.0754 -0.77895,0.10051 -0.37692,0 -0.70358,0 -0.10051,0 -0.20102,0.0251 -0.10051,0 -0.20102,0 l 0.0251,2.48763 q 0.0251,1.05536 0.0503,1.80919 0.0251,0.7287 0.0251,1.10562 v 0.22615 q 1.20613,0.0251 1.20613,0.87946 0,0.52768 -0.37692,0.75383 -0.35178,0.20102 -0.77895,0.22615 v 0.40204 q -0.0251,0.12564 -0.0251,0.27641 0,0.12563 0,0.32665 0,0.60307 0,1.25639 0.0251,0.62819 0.0754,1.35689 0.0251,0.2764 0,0.52768 0,0.25127 0.0503,0.40204 0.0251,0.0754 0.0251,0.22615 0.12563,0.0251 0.30153,0.0503 0.20102,0 0.47742,0 1.15587,0 1.50766,0.15077 0.37691,0.15076 0.37691,0.65332 v 0.0503 q 0,0.27641 -0.37691,0.95485 l -1.75893,-0.0251 h -0.22615 q -0.67845,0 -1.03023,0 -0.35179,-0.0251 -0.55281,-0.0754 -0.1759,-0.0503 -0.25128,-0.17589 -0.0754,-0.15077 -0.17589,-0.37692 -0.0503,-0.12563 -0.10051,-1.0051 -0.0251,-0.87947 -0.0754,-2.13585 -0.0251,-1.28151 -0.0754,-2.76404 -0.0251,-1.48253 -0.0503,-2.81429 0,-1.35689 -0.0251,-2.38712 0,-1.03024 0,-1.38202 z" /></g></g></g></g>
</svg>