<svg xmlns="http://www.w3.org/2000/svg" viewBox="0 0 565.16 208.2"><defs><style>.cls-1,.cls-4{fill:#9097e1;}.cls-1{stroke:#9097e1;stroke-width:7px;}.cls-1,.cls-3{stroke-linecap:round;stroke-linejoin:round;}.cls-2,.cls-3{fill:#62ebca;}.cls-3{stroke:#62ebca;stroke-width:4px;}</style></defs><g id="Calque_1" data-name="Calque 1"><path class="cls-1" d="M295.2,632.7,240.4,586V632.7h-7.9V545h7.9v38l47.5-38h11.9l-50,39.52L307,632.7Z" transform="translate(-222.84 -478.8)"/><path class="cls-1" d="M381.71,632.7l-51-40.34V632.7h-7.89V545H363c18,0,30.85,8.44,30.85,24.92,0,16.83-12.28,24.85-30.31,24.85H345.18l48.95,38Zm-51-45.19h32.86c12.93,0,22.18-5.37,22.18-17.61,0-12-9.25-17.68-22.18-17.68H330.71Z" transform="translate(-222.84 -478.8)"/><path class="cls-1" d="M447.4,592.81,407.79,545h9.62l34,40.49L485.34,545H495l-39.59,47.83v39.85h-8Z" transform="translate(-222.84 -478.8)"/><path class="cls-1" d="M545,633.58c-14.54.08-29.28-3.9-39.6-10.48l4.29-6.18c10,6.12,23.25,9.59,35.61,9.45,15.15-.19,25.88-6.15,25.89-16.6,0-9.41-6.51-12.93-21.86-16.56L537,590.32c-18-4.19-27.44-10.92-27.54-23.47-.12-13.9,13.68-22.53,33.07-22.73a63.43,63.43,0,0,1,33.7,9.35l-4.1,6.19a53.15,53.15,0,0,0-28.94-8.33c-15.09.27-25.5,5.73-25.38,15.72.11,8.62,7.19,12.91,21.54,16.28l12.76,3c18.49,4.28,27.05,10.56,27.15,23.39.12,14.61-14.13,23.8-34.31,23.9Z" transform="translate(-222.84 -478.8)"/><path class="cls-1" d="M626.89,552.25H593.47l0-7.27h74.65v7.27H634.76V632.7h-7.87Z" transform="translate(-222.84 -478.8)"/><path class="cls-2" d="M431,515.08h0c-.82-.09-5-.73-10.48-5.61a31.14,31.14,0,0,0-40.75-.1c-5.09,4.22-10.5,6.38-15.48,6.5-5-.12-10.18-2.28-15.28-6.5a29.89,29.89,0,0,0-39.65,0c-5.11,4.22-10.25,6.38-15.29,6.5-5-.12-10.37-2.28-15.48-6.5a31.14,31.14,0,0,0-40.75.1c-5.48,4.88-9.66,5.52-10.48,5.61h0a4.54,4.54,0,0,0,0,9.07h.07c1,0,8-.41,16.43-7.9,4.8-4.27,17-9.75,29,.11,6.79,5.62,14.23,8.47,21.25,8.6,7.06-.13,14.27-3,21.06-8.6a20.61,20.61,0,0,1,28.1,0c6.79,5.62,14,8.47,21.06,8.6,7-.13,14.47-3,21.25-8.6,11.92-9.86,24.16-4.38,29-.11,8.42,7.49,15.44,7.88,16.43,7.9H431a4.54,4.54,0,0,0,0-9.07Z" transform="translate(-222.84 -478.8)"/><path class="cls-2" d="M431,492.05h0c-.82-.09-5-.73-10.48-5.6a31.13,31.13,0,0,0-40.75-.1c-5.09,4.21-10.5,6.37-15.48,6.49-5-.12-10.18-2.28-15.28-6.49a29.86,29.86,0,0,0-39.65,0c-5.11,4.21-10.25,6.37-15.29,6.49-5-.12-10.37-2.28-15.48-6.49a31.13,31.13,0,0,0-40.75.1c-5.48,4.87-9.66,5.51-10.48,5.6h0a4.54,4.54,0,0,0,0,9.07h.07c1,0,8-.4,16.43-7.9,4.8-4.27,17-9.75,29,.12,6.79,5.62,14.23,8.47,21.25,8.6,7.06-.13,14.27-3,21.06-8.6a20.59,20.59,0,0,1,28.1,0c6.79,5.62,14,8.47,21.06,8.6,7-.13,14.47-3,21.25-8.6,11.92-9.87,24.16-4.39,29-.12,8.42,7.5,15.44,7.89,16.43,7.9H431a4.54,4.54,0,0,0,0-9.07Z" transform="translate(-222.84 -478.8)"/><path class="cls-3" d="M717.26,628.81C700,624.34,688,608.72,688,590c0-17.33,10.07-31.93,25.06-37.69l-.12-.9c-.28-2.4-.52-4.81-.63-7.21C693,550.45,680,568.54,680,590c0,23.1,15.32,42.46,37.42,47Q717.36,632.89,717.26,628.81Z" transform="translate(-222.84 -478.8)"/><polygon class="cls-2" points="484.98 58.12 506.68 64.28 491.62 81.7 484.98 58.12"/><path class="cls-3" d="M752.08,626.43c16.84-6,27.42-22.56,25.79-41.25-1.51-17.26-12.81-30.93-28.25-35.36,0-.3,0-.61,0-.91.07-2.41.1-4.84,0-7.24,19.77,4.59,34.28,21.48,36.14,42.81,2,23-11.56,43.63-33.18,50.1Z" transform="translate(-222.84 -478.8)"/><polygon class="cls-2" points="529.12 139.19 517.92 159.44 540.38 160.86 529.12 139.19"/><path class="cls-4" d="M238.21,673.89a7.64,7.64,0,0,0,4.21-1.11c.9-.52,1.46-1,2.11-1a3,3,0,0,1,2.49,2.75c0,1-.86,1.93-2.23,2.75a13.43,13.43,0,0,1-6.92,1.76c-7.65,0-13.37-5.37-13.37-14.52s5.68-14.35,13.32-14.35a14,14,0,0,1,7,1.71c1.37.78,2.23,1.77,2.23,2.71a3.07,3.07,0,0,1-2.62,2.84c-.65,0-1.2-.48-2.06-1a8.22,8.22,0,0,0-4.3-1.12c-4.17,0-7.52,2.84-7.52,9.11S233.91,673.89,238.21,673.89Z" transform="translate(-222.84 -478.8)"/><path class="cls-4" d="M256.3,676.47c0,1.55-.94,2.32-2.88,2.32s-2.88-.77-2.88-2.32V651.72c0-1.54,1-2.32,2.88-2.32s2.88.78,2.88,2.32Z" transform="translate(-222.84 -478.8)"/><path class="cls-4" d="M277.92,675.36c0,1-.69,1.54-1.51,2.06a11.5,11.5,0,0,1-6.14,1.5c-6.4,0-10-3.69-10-10s3.56-10.22,9.32-10.22,8.85,3.91,8.85,8.46c0,3-1.46,3.35-3.26,3.35H265.8c.47,2.41,1.93,3.7,4.6,3.7a7.7,7.7,0,0,0,3.52-.9,3.76,3.76,0,0,1,1.68-.56A2.57,2.57,0,0,1,277.92,675.36Zm-12.16-8.56H273c0-2.06-1.08-3.69-3.48-3.69C267.35,663.11,266.1,664.4,265.76,666.8Z" transform="translate(-222.84 -478.8)"/><path class="cls-4" d="M289.39,663.54a8.61,8.61,0,0,0-3.56.86,4.7,4.7,0,0,1-1.81.6c-1.33,0-2.19-1.59-2.19-2.71,0-.81.47-1.41,1.55-2a13.77,13.77,0,0,1,6.53-1.46c3.09,0,5.37.78,6.66,2.28a7.4,7.4,0,0,1,1.33,4.81v10.53c0,1.63-.77,2.36-2.79,2.36-1.72,0-2.41-.51-2.41-1.76v-.34a6.67,6.67,0,0,1-5.33,2.1c-3.95,0-6.36-2.15-6.36-5.58,0-3.87,3.1-6.06,11.35-6.79v-.3C292.36,664.48,291.63,663.54,289.39,663.54Zm-2.53,9.15c0,1,.64,1.76,2.27,1.76a5,5,0,0,0,3.23-1.2v-3.48C288.66,670.24,286.86,671,286.86,672.69Z" transform="translate(-222.84 -478.8)"/><path class="cls-4" d="M308.26,661.22v.47c1.16-1.8,3.09-2.79,5.8-2.79,2.45,0,4.38.81,5.54,2.66a8.75,8.75,0,0,1,1.2,4.94v10c0,1.55-.94,2.32-2.87,2.32s-2.88-.77-2.88-2.32v-9a4,4,0,0,0-.56-2.32,2.92,2.92,0,0,0-2.62-1.2,4.26,4.26,0,0,0-3.31,1.46v11.08c0,1.55-.95,2.32-2.88,2.32s-2.88-.77-2.88-2.32V661.22c0-1.55.9-2.32,2.79-2.32S308.3,659.89,308.26,661.22Z" transform="translate(-222.84 -478.8)"/><path class="cls-4" d="M330.65,675.4a23.5,23.5,0,0,1-1.89,6.74c-.61,1.38-1.25,2.37-3.1,2.37s-2.27-.86-2.27-1.89a5.38,5.38,0,0,1,.25-1.46l1.25-4.9c.34-1.38.69-2.67,3.14-2.67C329.83,673.59,330.65,674.37,330.65,675.4Z" transform="translate(-222.84 -478.8)"/><path class="cls-4" d="M355.14,673.89a7.66,7.66,0,0,0,4.21-1.11c.9-.52,1.46-1,2.11-1a3,3,0,0,1,2.49,2.75c0,1-.86,1.93-2.24,2.75a13.37,13.37,0,0,1-6.91,1.76c-7.65,0-13.37-5.37-13.37-14.52s5.67-14.35,13.32-14.35a14,14,0,0,1,7,1.71c1.38.78,2.24,1.77,2.24,2.71a3.07,3.07,0,0,1-2.62,2.84c-.65,0-1.21-.48-2.07-1a8.18,8.18,0,0,0-4.29-1.12c-4.17,0-7.52,2.84-7.52,9.11S350.84,673.89,355.14,673.89Z" transform="translate(-222.84 -478.8)"/><path class="cls-4" d="M373.19,676.47c0,1.55-.95,2.32-2.88,2.32s-2.88-.77-2.88-2.32V661.22c0-1.55.9-2.32,2.79-2.32s2.71,1,2.67,2.32v.86a5.4,5.4,0,0,1,4.94-3.22c1.63,0,2.36.77,2.36,2.57,0,2-.9,2.58-2.62,2.67-2.36.08-3.52.56-4.38,1.89Z" transform="translate(-222.84 -478.8)"/><path class="cls-4" d="M398.8,675.36c0,1-.69,1.54-1.5,2.06a11.56,11.56,0,0,1-6.15,1.5c-6.4,0-10-3.69-10-10s3.57-10.22,9.32-10.22,8.86,3.91,8.86,8.46c0,3-1.47,3.35-3.27,3.35h-9.37a4.19,4.19,0,0,0,4.6,3.7,7.67,7.67,0,0,0,3.52-.9,3.76,3.76,0,0,1,1.68-.56A2.57,2.57,0,0,1,398.8,675.36Zm-12.16-8.56h7.22c0-2.06-1.08-3.69-3.48-3.69C388.23,663.11,387,664.4,386.64,666.8Z" transform="translate(-222.84 -478.8)"/><path class="cls-4" d="M410.28,663.54a8.61,8.61,0,0,0-3.57.86,4.7,4.7,0,0,1-1.81.6c-1.33,0-2.19-1.59-2.19-2.71,0-.81.48-1.41,1.55-2a13.77,13.77,0,0,1,6.53-1.46c3.09,0,5.37.78,6.66,2.28a7.4,7.4,0,0,1,1.33,4.81v10.53c0,1.63-.77,2.36-2.79,2.36-1.72,0-2.41-.51-2.41-1.76v-.34a6.65,6.65,0,0,1-5.32,2.1c-4,0-6.36-2.15-6.36-5.58,0-3.87,3.09-6.06,11.34-6.79v-.3C413.24,664.48,412.51,663.54,410.28,663.54Zm-2.54,9.15c0,1,.64,1.76,2.28,1.76a5,5,0,0,0,3.22-1.2v-3.48C409.54,670.24,407.74,671,407.74,672.69Z" transform="translate(-222.84 -478.8)"/><path class="cls-4" d="M437.43,676.26a1.8,1.8,0,0,1-1,1.67,9,9,0,0,1-4.25,1c-3.09,0-4.94-1.25-5.89-3a10.89,10.89,0,0,1-.94-5.37V664.1h-1.51c-1.54,0-2.32-.78-2.32-2.41s.78-2.4,2.32-2.4h1.51V655.5c0-1.54.94-2.32,2.88-2.32s2.87.78,2.87,2.32v3.79h3.61c1.55,0,2.32.77,2.32,2.4s-.77,2.41-2.32,2.41h-3.61v6.44a6,6,0,0,0,.39,2.62,1.61,1.61,0,0,0,1.59.86,6.5,6.5,0,0,0,1.33-.21,3.88,3.88,0,0,1,1-.17C437,673.64,437.43,675.31,437.43,676.26Z" transform="translate(-222.84 -478.8)"/><path class="cls-4" d="M457.2,675.36c0,1-.69,1.54-1.5,2.06a11.56,11.56,0,0,1-6.15,1.5c-6.4,0-10-3.69-10-10s3.57-10.22,9.33-10.22,8.85,3.91,8.85,8.46c0,3-1.46,3.35-3.27,3.35h-9.37a4.19,4.19,0,0,0,4.6,3.7,7.75,7.75,0,0,0,3.53-.9,3.73,3.73,0,0,1,1.67-.56A2.56,2.56,0,0,1,457.2,675.36ZM445,666.8h7.22c0-2.06-1.07-3.69-3.48-3.69C446.63,663.11,445.39,664.4,445,666.8Z" transform="translate(-222.84 -478.8)"/><path class="cls-4" d="M466.61,675.4a23.5,23.5,0,0,1-1.89,6.74c-.6,1.38-1.24,2.37-3.09,2.37s-2.28-.86-2.28-1.89a5.39,5.39,0,0,1,.26-1.46l1.25-4.9c.34-1.38.68-2.67,3.13-2.67C465.8,673.59,466.61,674.37,466.61,675.4Z" transform="translate(-222.84 -478.8)"/><path class="cls-4" d="M499,677.25c0,1-.68,1.54-2.7,1.54-2.5,0-3.18-.81-4.34-2.58l-4.64-6.91c-.61,0-1.16.08-1.77.08a11.82,11.82,0,0,1-1.46-.08v7.17c0,1.55-.9,2.32-2.79,2.32s-2.84-.77-2.84-2.32V654.73c0-1.55,0-3.14,2.5-3.82a23,23,0,0,1,5.28-.56c7.26,0,11.65,3.31,11.65,9.15a9,9,0,0,1-5.07,8.38l4.29,5.93C498.5,675.74,499,676.43,499,677.25Zm-13.27-12.64c4,0,6.23-1.76,6.23-4.72s-2.2-4.6-5.8-4.6a12.54,12.54,0,0,0-2.15.21v9A10.2,10.2,0,0,0,485.74,664.61Z" transform="translate(-222.84 -478.8)"/><path class="cls-4" d="M518.48,675.36c0,1-.69,1.54-1.5,2.06a11.56,11.56,0,0,1-6.15,1.5c-6.4,0-10-3.69-10-10s3.57-10.22,9.32-10.22,8.86,3.91,8.86,8.46c0,3-1.46,3.35-3.27,3.35h-9.37a4.19,4.19,0,0,0,4.6,3.7,7.67,7.67,0,0,0,3.52-.9,3.76,3.76,0,0,1,1.68-.56A2.56,2.56,0,0,1,518.48,675.36Zm-12.16-8.56h7.22c0-2.06-1.08-3.69-3.48-3.69C507.91,663.11,506.66,664.4,506.32,666.8Z" transform="translate(-222.84 -478.8)"/><path class="cls-4" d="M531.72,674a5.52,5.52,0,0,0,2.53-.69,2.94,2.94,0,0,1,1.42-.43,2.6,2.6,0,0,1,2.45,2.67,2.13,2.13,0,0,1-1.12,1.8,9.73,9.73,0,0,1-5.54,1.55c-5.46,0-9.54-4-9.54-10s4-10.06,9.62-10.06a9.91,9.91,0,0,1,5.38,1.42,2.21,2.21,0,0,1,1.2,1.89,2.67,2.67,0,0,1-2.41,2.75,2.81,2.81,0,0,1-1.42-.47,5.5,5.5,0,0,0-2.57-.65c-2.54,0-3.91,1.89-3.91,5S529.18,674,531.72,674Z" transform="translate(-222.84 -478.8)"/><path class="cls-4" d="M559.3,660.75a14.94,14.94,0,0,1-.68,3.48c-1.55,5.71-5.42,14.73-10.1,20.45-1.33,1.63-2.19,2.32-3.27,2.32a3,3,0,0,1-3.09-2.66,3.62,3.62,0,0,1,1.42-2.45,23.93,23.93,0,0,0,3.31-4l-6.49-15.39a4.73,4.73,0,0,1-.52-1.8c0-.95.65-1.76,2.75-1.76s2.8.73,3.4,2.32l4.12,11.17a58.85,58.85,0,0,0,3.57-11.09c.3-1.28.56-2.4,3-2.4C558.83,658.9,559.3,659.76,559.3,660.75Z" transform="translate(-222.84 -478.8)"/><path class="cls-4" d="M571.38,674a5.56,5.56,0,0,0,2.54-.69,2.93,2.93,0,0,1,1.41-.43,2.6,2.6,0,0,1,2.45,2.67,2.14,2.14,0,0,1-1.11,1.8,9.76,9.76,0,0,1-5.55,1.55c-5.45,0-9.54-4-9.54-10s4-10.06,9.63-10.06a9.9,9.9,0,0,1,5.37,1.42,2.21,2.21,0,0,1,1.2,1.89,2.67,2.67,0,0,1-2.4,2.75,2.75,2.75,0,0,1-1.42-.47,5.54,5.54,0,0,0-2.58-.65c-2.53,0-3.91,1.89-3.91,5S568.85,674,571.38,674Z" transform="translate(-222.84 -478.8)"/><path class="cls-4" d="M587.15,676.47c0,1.55-.94,2.32-2.88,2.32s-2.88-.77-2.88-2.32V651.72c0-1.54,1-2.32,2.88-2.32s2.88.78,2.88,2.32Z" transform="translate(-222.84 -478.8)"/><path class="cls-4" d="M608.77,675.36c0,1-.69,1.54-1.51,2.06a11.5,11.5,0,0,1-6.14,1.5c-6.4,0-10-3.69-10-10s3.56-10.22,9.32-10.22,8.85,3.91,8.85,8.46c0,3-1.46,3.35-3.26,3.35h-9.37c.47,2.41,1.93,3.7,4.6,3.7a7.7,7.7,0,0,0,3.52-.9,3.76,3.76,0,0,1,1.68-.56A2.57,2.57,0,0,1,608.77,675.36Zm-12.16-8.56h7.22c0-2.06-1.08-3.69-3.49-3.69C598.2,663.11,597,664.4,596.61,666.8Z" transform="translate(-222.84 -478.8)"/><path class="cls-4" d="M618.18,675.4a23.5,23.5,0,0,1-1.89,6.74c-.6,1.38-1.25,2.37-3.1,2.37s-2.27-.86-2.27-1.89a5.79,5.79,0,0,1,.25-1.46l1.25-4.9c.34-1.38.69-2.67,3.14-2.67C617.36,673.59,618.18,674.37,618.18,675.4Z" transform="translate(-222.84 -478.8)"/><path class="cls-4" d="M650.58,677.25c0,1-.69,1.54-2.71,1.54-2.49,0-3.18-.81-4.34-2.58l-4.64-6.91c-.6,0-1.16.08-1.76.08a11.69,11.69,0,0,1-1.46-.08v7.17c0,1.55-.9,2.32-2.79,2.32S630,678,630,676.47V654.73c0-1.55,0-3.14,2.49-3.82a23.13,23.13,0,0,1,5.29-.56c7.26,0,11.64,3.31,11.64,9.15a9,9,0,0,1-5.07,8.38l4.3,5.93C650.06,675.74,650.58,676.43,650.58,677.25ZM637.3,664.61c4,0,6.23-1.76,6.23-4.72s-2.19-4.6-5.8-4.6a12.64,12.64,0,0,0-2.15.21v9A10.36,10.36,0,0,0,637.3,664.61Z" transform="translate(-222.84 -478.8)"/><path class="cls-4" d="M670.05,675.36c0,1-.69,1.54-1.51,2.06a11.5,11.5,0,0,1-6.14,1.5c-6.4,0-10-3.69-10-10s3.56-10.22,9.32-10.22,8.85,3.91,8.85,8.46c0,3-1.46,3.35-3.26,3.35h-9.37c.47,2.41,1.93,3.7,4.6,3.7a7.7,7.7,0,0,0,3.52-.9,3.76,3.76,0,0,1,1.68-.56A2.57,2.57,0,0,1,670.05,675.36Zm-12.16-8.56h7.21c0-2.06-1.07-3.69-3.48-3.69C659.48,663.11,658.23,664.4,657.89,666.8Z" transform="translate(-222.84 -478.8)"/><path class="cls-4" d="M681.52,663.54a8.65,8.65,0,0,0-3.57.86,4.67,4.67,0,0,1-1.8.6c-1.33,0-2.19-1.59-2.19-2.71,0-.81.47-1.41,1.54-2a13.84,13.84,0,0,1,6.54-1.46c3.09,0,5.37.78,6.66,2.28A7.4,7.4,0,0,1,690,665.9v10.53c0,1.63-.78,2.36-2.79,2.36-1.72,0-2.41-.51-2.41-1.76v-.34a6.68,6.68,0,0,1-5.33,2.1c-4,0-6.36-2.15-6.36-5.58,0-3.87,3.1-6.06,11.35-6.79v-.3C684.49,664.48,683.75,663.54,681.52,663.54ZM679,672.69c0,1,.64,1.76,2.27,1.76a5,5,0,0,0,3.23-1.2v-3.48C680.79,670.24,679,671,679,672.69Z" transform="translate(-222.84 -478.8)"/><path class="cls-4" d="M700.69,684.59c0,1.55-1,2.32-2.88,2.32s-2.88-.77-2.88-2.32V661.22c0-1.59.94-2.32,2.83-2.32s2.54.69,2.54,1.8V661a6,6,0,0,1,4.94-2.06c4.73,0,8.47,3.52,8.47,9.71s-3.83,10.23-9.63,10.23a7,7,0,0,1-3.39-.73Zm2.57-10.44c2.84,0,4.56-1.85,4.56-5.24s-1.76-5.41-4.43-5.41a4.27,4.27,0,0,0-2.7.9v9.06A4.65,4.65,0,0,0,703.26,674.15Z" transform="translate(-222.84 -478.8)"/><path class="cls-4" d="M734.38,675.36c0,1-.69,1.54-1.51,2.06a11.5,11.5,0,0,1-6.14,1.5c-6.4,0-10-3.69-10-10s3.56-10.22,9.32-10.22,8.85,3.91,8.85,8.46c0,3-1.46,3.35-3.26,3.35h-9.37c.47,2.41,1.93,3.7,4.6,3.7a7.7,7.7,0,0,0,3.52-.9,3.76,3.76,0,0,1,1.68-.56A2.57,2.57,0,0,1,734.38,675.36Zm-12.16-8.56h7.21c0-2.06-1.07-3.69-3.48-3.69C723.81,663.11,722.56,664.4,722.22,666.8Z" transform="translate(-222.84 -478.8)"/><path class="cls-4" d="M745.85,663.54a8.57,8.57,0,0,0-3.56.86,4.76,4.76,0,0,1-1.81.6c-1.33,0-2.19-1.59-2.19-2.71,0-.81.47-1.41,1.55-2a13.77,13.77,0,0,1,6.53-1.46c3.09,0,5.37.78,6.66,2.28a7.4,7.4,0,0,1,1.33,4.81v10.53c0,1.63-.77,2.36-2.79,2.36-1.72,0-2.41-.51-2.41-1.76v-.34a6.68,6.68,0,0,1-5.33,2.1c-4,0-6.36-2.15-6.36-5.58,0-3.87,3.1-6.06,11.35-6.79v-.3C748.82,664.48,748.09,663.54,745.85,663.54Zm-2.53,9.15c0,1,.64,1.76,2.27,1.76a5,5,0,0,0,3.23-1.2v-3.48C745.12,670.24,743.32,671,743.32,672.69Z" transform="translate(-222.84 -478.8)"/><path class="cls-4" d="M773,676.26a1.82,1.82,0,0,1-1,1.67,9,9,0,0,1-4.26,1c-3.09,0-4.94-1.25-5.88-3a10.89,10.89,0,0,1-1-5.37V664.1h-1.5c-1.55,0-2.32-.78-2.32-2.41s.77-2.4,2.32-2.4h1.5V655.5c0-1.54,1-2.32,2.88-2.32s2.88.78,2.88,2.32v3.79h3.61c1.55,0,2.32.77,2.32,2.4s-.77,2.41-2.32,2.41h-3.61v6.44a6,6,0,0,0,.39,2.62,1.61,1.61,0,0,0,1.59.86,6.61,6.61,0,0,0,1.33-.21,3.74,3.74,0,0,1,1-.17C772.54,673.64,773,675.31,773,676.26Z" transform="translate(-222.84 -478.8)"/></g></svg>